<svg id="Camada_2" data-name="Camada 2" xmlns="http://www.w3.org/2000/svg" viewBox="0 0 71 119"><defs><style>.cls-1{fill:#141419;}</style></defs><title>Prancheta 1</title><path class="cls-1" d="M62.54,35.75a26.51,26.51,0,0,0-7.29-18.1A27.7,27.7,0,0,0,35.16,9H14.87A6.07,6.07,0,0,0,8.8,15V77.72a6.07,6.07,0,0,0,6.07,6.07H33v21.59a2.72,2.72,0,0,0,.81,1.89l0,0a2.58,2.58,0,0,0,1.83.75h0A26.91,26.91,0,0,0,62.54,81.19V35.85A.82.82,0,0,0,62.54,35.75Zm-5.23,1.42A21.69,21.69,0,0,1,35.68,57.52h0a2.6,2.6,0,0,0-2.6,2.6V78.59H14.87a.87.87,0,0,1-.87-.87V15a.87.87,0,0,1,.87-.87H35.16a22.48,22.48,0,0,1,16.3,7A21.22,21.22,0,0,1,57.31,37.17ZM38.23,62.59A27,27,0,0,0,57.35,51.72V81.19a21.82,21.82,0,0,1-19.11,21.52Zm-2.51,44.86Z"/></svg>