<svg width="33" height="60" viewBox="0 0 33 60" fill="none" xmlns="http://www.w3.org/2000/svg">
<path d="M32.5305 16.2056C32.5135 12.15 30.9458 8.24766 28.117 5.24851C24.9815 1.90855 20.5339 0 15.95 0H3.68077C1.65294 0 0 1.65294 0 3.68077V41.6302C0 43.6581 1.65294 45.311 3.68077 45.311H14.672V58.3811C14.672 58.7901 14.8594 59.2161 15.1661 59.5229L15.1832 59.5399C15.4729 59.8296 15.8648 60 16.2908 60C25.2371 59.983 32.5305 52.6896 32.5305 43.7262V16.2738C32.5305 16.2397 32.5305 16.2227 32.5305 16.2056ZM29.361 17.0747C28.952 23.9761 23.1923 29.3951 16.2738 29.3951H16.2397C15.3706 29.3951 14.672 30.0937 14.672 30.9628V42.1414H3.68077C3.39108 42.1414 3.15251 41.9029 3.15251 41.6132V3.68077C3.15251 3.39108 3.39108 3.15251 3.68077 3.15251H15.9671C19.6819 3.15251 23.2945 4.70321 25.8336 7.41267C28.3215 10.054 29.5825 13.4962 29.361 17.0747ZM17.8245 32.4624C22.4254 32.0193 26.6515 29.5995 29.3951 25.8847V43.7262C29.3951 50.338 24.351 55.9784 17.8245 56.7623V32.4624Z" fill="url(#paint0_linear)"/>
<defs>
<linearGradient id="paint0_linear" x1="1.84219" y1="13.9435" x2="53.3451" y2="61.8386" gradientUnits="userSpaceOnUse">
<stop stop-color="#C72328"/>
<stop offset="1" stop-color="#DD2476"/>
</linearGradient>
</defs>
</svg>
