<svg width="177" height="60" viewBox="0 0 177 60" fill="none" xmlns="http://www.w3.org/2000/svg">
<path d="M29.7893 17.9298C29.7737 14.2159 28.3381 10.6424 25.7477 7.89596C22.8765 4.83745 18.8036 3.08972 14.606 3.08972H3.37061C1.51365 3.08972 0 4.58777 0 6.44473V41.1964C0 43.0533 1.51365 44.567 3.37061 44.567H13.4356V56.5358C13.4356 56.9103 13.6073 57.3004 13.8882 57.5813L13.9038 57.5969C14.1691 57.8622 14.528 58.0182 14.9181 58.0182C23.1105 58.0026 29.7893 51.3238 29.7893 43.1157V17.9766C29.7893 17.961 29.7893 17.9454 29.7893 17.9298ZM26.8869 18.71C26.5124 25.0299 21.238 29.9922 14.9025 29.9922H14.8713C14.0754 29.9922 13.4356 30.632 13.4356 31.4278V41.6645H3.37061C3.10533 41.6645 2.88687 41.446 2.88687 41.1808V6.44473C2.88687 6.17945 3.10533 5.96098 3.37061 5.96098H14.6216C18.0234 5.96098 21.3316 7.38101 23.6567 9.86216C25.935 12.2965 27.0897 15.433 26.8869 18.71ZM16.3225 32.801C20.5358 32.3953 24.4057 30.1795 26.9181 26.7776V43.1157C26.9181 49.1704 22.2991 54.3355 16.3225 55.0533V32.801Z" fill="#F3F2F4"/>
<path d="M59.9219 10.3615C61.4668 11.9844 62.247 14.1534 62.247 16.8687C62.247 19.5839 61.4668 21.7529 59.9219 23.3602C58.3771 24.9675 56.5045 25.7789 54.3043 25.7789C51.9948 25.7789 50.091 24.7646 48.5617 22.736V30.7412C48.5617 31.1625 48.3589 31.3654 47.9376 31.3654H44.3797C43.9584 31.3654 43.7555 31.1625 43.7555 30.7412V8.98829C43.7555 8.56697 43.9584 8.36411 44.3797 8.36411H47.7035C48 8.36411 48.2184 8.56697 48.3277 8.98829L48.5461 10.7984C50.2626 8.89466 52.2288 7.94278 54.4603 7.94278C56.5513 7.94278 58.3771 8.75422 59.9219 10.3615ZM56.3953 20.6138C57.2848 19.7399 57.7373 18.4759 57.7373 16.8687C57.7373 15.277 57.2848 14.0286 56.4109 13.1391C55.537 12.2653 54.4291 11.8127 53.1339 11.8127C51.8075 11.8127 50.684 12.2809 49.7789 13.186C48.8738 14.091 48.4057 15.355 48.4057 16.9623C48.4057 18.5696 48.8582 19.8179 49.7633 20.6606C50.6684 21.5032 51.7763 21.9402 53.0715 21.9402C54.3823 21.9402 55.5058 21.4876 56.3953 20.6138Z" fill="#F3F2F4"/>
<path d="M82.1898 8.41092C82.6112 8.41092 82.814 8.61378 82.814 9.03511V24.8114C82.814 25.2328 82.6112 25.4356 82.1898 25.4356H79.0221C78.7256 25.4356 78.5071 25.2328 78.3979 24.8114L78.1482 22.7204C76.5878 24.7958 74.6528 25.8257 72.3433 25.8257C70.143 25.8257 68.2705 25.0143 66.7256 23.407C65.1807 21.7997 64.4005 19.6307 64.4005 16.9155C64.4005 14.2003 65.1807 12.0312 66.7412 10.4083C68.2861 8.80104 70.1274 7.98959 72.2497 7.98959C74.5279 7.98959 76.5097 8.95708 78.195 10.9077L78.4135 9.05071C78.4759 8.62939 78.6788 8.42652 79.0377 8.42652H82.1898V8.41092ZM76.8843 20.6918C77.7893 19.8492 78.2419 18.6008 78.2419 16.9935C78.2419 15.3862 77.7737 14.1222 76.8687 13.2172C75.9636 12.3121 74.8244 11.8439 73.5136 11.8439C72.2029 11.8439 71.1105 12.2965 70.2367 13.186C69.3628 14.0754 68.9103 15.3238 68.9103 16.8999C68.9103 18.4915 69.3628 19.7399 70.2523 20.6294C71.1417 21.5189 72.2653 21.9714 73.5761 21.9714C74.8713 21.9714 75.9792 21.5345 76.8843 20.6918Z" fill="#F3F2F4"/>
<path d="M99.4018 9.09753L97.2484 12.6866C97.1236 12.8739 96.9675 12.9675 96.749 12.9831C96.6242 12.9831 96.1405 12.8426 95.6879 12.8426C93.3784 12.8426 92.3017 14.2315 91.9272 17.0871V24.8114C91.9272 25.2328 91.7243 25.4356 91.303 25.4356H87.8231C87.4018 25.4356 87.1989 25.2328 87.1989 24.8114L87.1677 9.03511C87.1677 8.61378 87.3706 8.41092 87.7919 8.41092H91.1157C91.4122 8.41092 91.6307 8.61378 91.7399 9.03511L91.9584 10.9545C93.1131 9.11313 94.7828 8.13004 96.9207 8.03641C97.7633 8.05201 98.4812 8.11443 99.0742 8.23927C99.5579 8.39531 99.6671 8.6762 99.4018 9.09753Z" fill="#F3F2F4"/>
<path d="M113.899 24.0936C114.023 24.4369 113.93 24.7178 113.602 24.9051C112.4 25.498 111.043 25.7789 109.498 25.7945C105.316 25.7945 103.646 23.4694 103.646 18.866V12.2653H101.586C101.165 12.2653 100.962 12.0624 100.962 11.6411V9.01949C100.962 8.59816 101.165 8.3953 101.586 8.3953H103.646V4.61897C103.646 4.19764 103.849 3.99478 104.27 3.99478H107.782C108.203 3.99478 108.406 4.19764 108.406 4.61897V8.41091H112.775C113.196 8.41091 113.399 8.61377 113.399 9.03509V11.6411C113.399 12.0624 113.196 12.2653 112.775 12.2653H108.406V19.303C108.406 21.3004 109.202 21.9402 110.809 21.9402C111.308 21.9402 111.792 21.8465 112.276 21.6749C112.697 21.5657 112.962 21.6905 113.103 22.0338L113.899 24.0936Z" fill="#F3F2F4"/>
<path d="M119.298 5.57086C118.533 5.57086 117.878 5.30558 117.347 4.74381C116.801 4.19765 116.536 3.54225 116.536 2.79323C116.536 2.0442 116.801 1.38881 117.347 0.842643C117.893 0.280874 118.549 0.0155945 119.298 0.0155945C120.047 0.0155945 120.702 0.280874 121.248 0.842643C121.795 1.40441 122.06 2.05981 122.06 2.79323C122.06 3.55786 121.795 4.21325 121.248 4.74381C120.702 5.30558 120.047 5.57086 119.298 5.57086ZM117.503 25.42C117.082 25.42 116.879 25.2172 116.879 24.7958V9.0195C116.879 8.59817 117.082 8.39531 117.503 8.39531H121.061C121.482 8.39531 121.685 8.59817 121.685 9.0195V24.8114C121.685 25.2328 121.482 25.4356 121.061 25.4356H117.503V25.42Z" fill="#F3F2F4"/>
<path d="M142.049 8.41093C142.471 8.41093 142.674 8.61379 142.674 9.03512V24.8114C142.674 25.2328 142.471 25.4356 142.049 25.4356H138.757C138.414 25.4356 138.195 25.2328 138.133 24.8114L137.914 23.1573C136.307 24.9363 134.31 25.8258 131.969 25.8258C127.88 25.8258 125.68 22.9545 125.68 17.6801V9.01951C125.68 8.59819 125.883 8.39532 126.304 8.39532H129.862C130.284 8.39532 130.486 8.59819 130.486 9.01951V17.6645C130.486 20.0988 131.766 21.5345 133.935 21.5345C136.182 21.5345 137.743 19.9584 137.883 16.6502V9.01951C137.883 8.59819 138.086 8.39532 138.507 8.39532H142.049V8.41093Z" fill="#F3F2F4"/>
<path d="M68.1769 37.9818C69.3784 39.4018 69.9714 41.3992 69.9714 43.9896V52.6658C69.9714 53.0871 69.7685 53.29 69.3472 53.29H65.7894C65.368 53.29 65.1652 53.0871 65.1652 52.6658V43.9896C65.1652 41.5552 63.9168 40.1508 61.7477 40.1508C59.3914 40.1508 57.7997 41.6957 57.6749 45.0039V52.6658C57.6749 53.0871 57.472 53.29 57.0507 53.29H53.4928C53.0715 53.29 52.8687 53.0871 52.8687 52.6658V36.8738C52.8687 36.4525 53.0715 36.2496 53.4928 36.2496H56.8166C57.1131 36.2496 57.3316 36.4525 57.4408 36.8738L57.6281 38.4967C59.173 36.7334 61.0611 35.8595 63.3082 35.8595C65.3524 35.8595 66.9597 36.5617 68.1769 37.9818Z" fill="#F3F2F4"/>
<path d="M90.3511 36.2184C90.7724 36.2184 90.9753 36.4213 90.9753 36.8426V51.9948C90.9753 54.5383 90.117 56.5201 88.3849 57.9089C86.6528 59.2978 84.4369 60 81.7685 60C79.3186 60 77.0715 59.4694 75.0117 58.4083C74.6684 58.2678 74.5436 57.987 74.684 57.6125L75.5423 55.3654C75.6827 54.9441 75.9636 54.8348 76.3537 55.0533C77.9454 55.9428 79.5683 56.3953 81.2068 56.3953C82.6892 56.3953 83.8752 56.0676 84.8114 55.3966C85.7321 54.71 86.2003 53.8049 86.2003 52.6346V49.6697C84.749 51.5266 82.9077 52.4785 80.6606 52.4785C78.5072 52.4785 76.6658 51.7295 75.1365 50.2158C73.6073 48.7178 72.8427 46.7204 72.8427 44.1768C72.8427 41.6645 73.6073 39.6359 75.1209 38.1222C76.6346 36.6086 78.4135 35.8595 80.4733 35.8595C82.7828 35.8595 84.7178 36.8114 86.2939 38.7152L86.528 36.8582C86.5904 36.4369 86.7932 36.234 87.1521 36.234H90.3511V36.2184ZM84.9051 47.6255C85.7321 46.8764 86.1534 45.7529 86.1534 44.2705C86.1534 42.788 85.7165 41.6489 84.8739 40.8062C84.0312 39.9792 82.9857 39.5578 81.7217 39.5578C80.4733 39.5578 79.459 39.9636 78.6476 40.7594C77.8362 41.5708 77.4304 42.6944 77.4304 44.1612C77.4304 45.6437 77.8362 46.7672 78.6476 47.563C79.459 48.3745 80.4889 48.7802 81.7841 48.7802C83.0325 48.7646 84.0624 48.3901 84.9051 47.6255Z" fill="#F3F2F4"/>
<path d="M107.563 36.9362L105.41 40.5253C105.285 40.7126 105.129 40.8062 104.91 40.8218C104.785 40.8218 104.302 40.6814 103.849 40.6814C101.54 40.6814 100.463 42.0702 100.088 44.9258V52.6502C100.088 53.0715 99.8856 53.2743 99.4643 53.2743H95.9844C95.5631 53.2743 95.3602 53.0715 95.3602 52.6502L95.3446 36.8738C95.3446 36.4525 95.5475 36.2496 95.9688 36.2496H99.2926C99.5891 36.2496 99.8075 36.4525 99.9168 36.8738L100.135 38.7932C101.29 36.9518 102.96 35.9688 105.098 35.8751C105.94 35.8907 106.658 35.9531 107.251 36.078C107.719 36.234 107.828 36.5305 107.563 36.9362Z" fill="#F3F2F4"/>
<path d="M122.466 38.2782C124.026 39.9167 124.806 42.0546 124.806 44.6918C124.806 44.9883 124.791 45.2379 124.775 45.4096C124.713 45.8153 124.494 46.0026 124.088 46.0026H112.291C112.728 48.7178 114.398 50.0754 117.3 50.0754C119.157 50.0754 120.687 49.342 121.873 47.8907C122.169 47.5942 122.481 47.5786 122.746 47.8595L124.26 49.3264C124.541 49.6541 124.51 49.9974 124.166 50.3407C122.341 52.5409 119.938 53.6333 116.926 53.6333C114.258 53.6333 112.088 52.8062 110.419 51.1677C108.749 49.5292 107.906 47.407 107.906 44.8322C107.906 42.3043 108.687 40.1664 110.247 38.4343C111.808 36.7022 113.883 35.8283 116.442 35.8283C118.876 35.8283 120.889 36.6398 122.466 38.2782ZM112.229 43.1001H120.733C120.437 40.6658 118.908 39.355 116.598 39.355C114.242 39.355 112.557 40.697 112.229 43.1001Z" fill="#F3F2F4"/>
<path d="M129.956 52.8842C128.739 52.4161 127.787 51.8543 127.1 51.1365C126.819 50.8556 126.804 50.5591 127.038 50.2627L128.239 48.3433C128.442 48 128.77 47.9376 129.16 48.2184C129.722 48.7178 130.455 49.1079 131.345 49.42C132.234 49.7165 133.108 49.8881 133.982 49.8881C135.761 49.8881 136.791 49.2327 136.791 48.0936C136.791 47.3134 136.026 46.7984 135.339 46.6268C135.012 46.5487 134.434 46.4239 133.623 46.2835C131.547 45.9246 129.956 45.3472 128.863 44.5669C127.771 43.7867 127.209 42.6476 127.209 41.1339C127.209 39.4954 127.834 38.2158 129.051 37.2952C130.283 36.3745 131.938 35.9063 134.044 35.9063C136.354 35.9063 138.382 36.5305 140.114 37.7633C140.458 37.9662 140.52 38.2783 140.239 38.6372L139.022 40.4941C138.819 40.7906 138.507 40.853 138.148 40.6814C136.993 39.9011 135.698 39.4954 134.263 39.5266C132.421 39.5266 131.485 40.0416 131.485 41.0559C131.485 41.7581 132.234 42.2106 132.967 42.4135C133.326 42.5071 133.841 42.6164 134.528 42.7412C134.668 42.7568 134.793 42.788 134.871 42.8192C136.947 43.2561 138.492 43.8335 139.521 44.5826C140.551 45.3316 141.066 46.4707 141.066 47.9844C141.066 49.6541 140.442 51.0117 139.225 52.0416C137.977 53.0715 136.244 53.5865 133.997 53.5865C132.515 53.5708 131.157 53.3368 129.956 52.8842Z" fill="#F3F2F4"/>
<path d="M146.075 52.8842C144.858 52.4161 143.906 51.8543 143.22 51.1365C142.939 50.8556 142.923 50.5591 143.157 50.2627L144.359 48.3433C144.562 48 144.89 47.9376 145.28 48.2184C145.841 48.7178 146.575 49.1079 147.464 49.42C148.354 49.7165 149.228 49.8881 150.101 49.8881C151.88 49.8881 152.91 49.2327 152.91 48.0936C152.91 47.3134 152.146 46.7984 151.459 46.6268C151.131 46.5487 150.554 46.4239 149.743 46.2835C147.667 45.9246 146.075 45.3472 144.983 44.5669C143.891 43.7867 143.329 42.6476 143.329 41.1339C143.329 39.4954 143.953 38.2158 145.17 37.2952C146.403 36.3745 148.057 35.9063 150.164 35.9063C152.473 35.9063 154.502 36.5305 156.234 37.7633C156.577 37.9662 156.64 38.2783 156.359 38.6372L155.142 40.4941C154.939 40.7906 154.627 40.853 154.268 40.6814C153.113 39.9011 151.818 39.4954 150.382 39.5266C148.541 39.5266 147.605 40.0416 147.605 41.0559C147.605 41.7581 148.354 42.2106 149.087 42.4135C149.446 42.5071 149.961 42.6164 150.648 42.7412C150.788 42.7568 150.913 42.788 150.991 42.8192C153.066 43.2561 154.611 43.8335 155.641 44.5826C156.671 45.3316 157.186 46.4707 157.186 47.9844C157.186 49.6541 156.562 51.0117 155.345 52.0416C154.096 53.0715 152.364 53.5865 150.117 53.5865C148.635 53.5708 147.293 53.3368 146.075 52.8842Z" fill="#F3F2F4"/>
<path d="M161.696 51.1521C160.057 49.498 159.23 47.3446 159.23 44.723C159.23 42.117 160.057 39.9792 161.696 38.3251C163.334 36.6866 165.472 35.8595 168.094 35.8595C170.715 35.8595 172.853 36.6866 174.507 38.3407C176.161 39.9948 176.988 42.1326 176.988 44.723C176.988 47.329 176.161 49.4668 174.507 51.1365C172.837 52.8062 170.7 53.6332 168.094 53.6332C165.472 53.6488 163.334 52.8218 161.696 51.1521ZM168.094 49.7321C169.404 49.7321 170.528 49.2795 171.464 48.3901C172.401 47.5006 172.884 46.2678 172.884 44.723C172.884 43.1781 172.416 41.9609 171.48 41.0871C170.544 40.2132 169.404 39.7607 168.094 39.7607C166.783 39.7607 165.675 40.2132 164.739 41.0871C163.802 41.9609 163.334 43.1781 163.334 44.723C163.334 46.2834 163.802 47.5162 164.739 48.3901C165.675 49.2795 166.783 49.7321 168.094 49.7321Z" fill="#F3F2F4"/>
<path d="M47.9064 36.2653H44.3485C43.9272 36.2653 43.7243 36.4681 43.7243 36.8894V52.6658C43.7243 53.0871 43.9272 53.29 44.3485 53.29H47.9064C48.3277 53.29 48.5306 53.0871 48.5306 52.6658V36.8738C48.5306 36.4681 48.3277 36.2653 47.9064 36.2653Z" fill="#F3F2F4"/>
</svg>
