<svg id="Graphic" xmlns="http://www.w3.org/2000/svg" viewBox="0 0 1313.13 565.81"><title>Prancheta 3</title><path d="M1313.13,37.11V19.48A19.48,19.48,0,0,1,1293.66,0H288.06a20.25,20.25,0,0,1-40.5,0H25.32c0,10.76-9.19,19.48-20.52,19.48V37.11c11.33,0,20.52,8.72,20.52,19.48S16.13,76.06,4.8,76.06V93.69c11.33,0,20.52,8.72,20.52,19.48S16.13,132.64,4.8,132.64v17.63c11.33,0,20.52,8.72,20.52,19.48S16.13,189.22,4.8,189.22v17.63c11.33,0,20.52,8.72,20.52,19.48S16.13,245.8,4.8,245.8v17.63c11.33,0,20.52,8.72,20.52,19.48S16.13,302.38,4.8,302.38V320c11.33,0,20.52,8.72,20.52,19.48S16.13,359,4.8,359v17.63c11.33,0,20.52,8.72,20.52,19.48S16.13,415.55,4.8,415.55v17.63c11.33,0,20.52,8.72,20.52,19.48S16.13,472.13,4.8,472.13v17.63c11.33,0,20.52,8.72,20.52,19.48S16.13,528.71,4.8,528.71v17.63c11.33,0,20.52,8.72,20.52,19.48H247.56a20.25,20.25,0,0,1,40.5,0h1005.6a19.48,19.48,0,0,1,19.48-19.48V528.71a19.48,19.48,0,1,1,0-39V472.13a19.48,19.48,0,1,1,0-39V415.55a19.48,19.48,0,1,1,0-39V359c-38.42-3.63-75.69-37.36-75.69-76.73a75.69,75.69,0,0,1,75.69-75.69V189.22a19.48,19.48,0,1,1,0-39V132.64a19.48,19.48,0,1,1,0-39V76.06a19.48,19.48,0,1,1,0-39ZM267.81,528.5a20.25,20.25,0,1,1,20.25-20.25A20.25,20.25,0,0,1,267.81,528.5Zm0-56.25A20.25,20.25,0,1,1,288.06,452,20.25,20.25,0,0,1,267.81,472.25Zm0-56.25a20.25,20.25,0,1,1,20.25-20.25A20.25,20.25,0,0,1,267.81,416Zm0-58.25a20.25,20.25,0,1,1,20.25-20.25A20.25,20.25,0,0,1,267.81,357.75Zm0-56.25a20.25,20.25,0,1,1,20.25-20.25A20.25,20.25,0,0,1,267.81,301.5Zm0-56.25A20.25,20.25,0,1,1,288.06,225,20.25,20.25,0,0,1,267.81,245.25Zm0-56.25a20.25,20.25,0,1,1,20.25-20.25A20.25,20.25,0,0,1,267.81,189Zm0-56.25a20.25,20.25,0,1,1,20.25-20.25A20.25,20.25,0,0,1,267.81,132.75Zm0-56.25a20.25,20.25,0,1,1,20.25-20.25A20.25,20.25,0,0,1,267.81,76.5Z"/></svg>