<svg xmlns="http://www.w3.org/2000/svg" viewBox="0 0 1190.55 841.89"><defs><style>.cls-1{fill:#3c3d4c;}</style></defs><title>Prancheta 5</title><g id="line_art" data-name="line art"><path class="cls-1" d="M564.7,747.72a2,2,0,0,1-1.75-1c-5.56-9.93-4.39-18.33-3-28.05.22-1.6.45-3.24.65-4.94a42.91,42.91,0,0,1,1.49-7.65,18.25,18.25,0,0,1-5.16-2.59c-9.64-7-9-24.45-8.51-39.83.22-6.31.42-12.28-.18-16.47-.36-2.5-.74-7.09-1.27-13.43-2.2-26.25-7.36-87.72-22.18-99.47a7.14,7.14,0,0,0-5.67-1.72c-8.95,1.32-6.65,29.82-5.66,42,.31,3.79.55,6.79.53,8.6-.19,16.14-3.13,32.69-6,48.71l-.63,3.53a62.82,62.82,0,0,1-3.22,10.69c-1.74,4.72-3.37,9.18-3.4,14,0,5.15,2.19,8.9,4.54,12.87a39.73,39.73,0,0,1,4.13,8.52c3.47,11.24,1.19,20.39-6.25,25.12-4.62,2.94-9.83,2.85-14.85,2.76-3.44-.06-6.72-.11-9.62.79-.51,2.95.58,3.93,1,4.27,3.71,3.33,16.49.71,24-2.11a22.34,22.34,0,0,0,3.06-1.73c3.1-1.94,6.61-4.14,9.33-2.59,2.47,1.4,2.39,4.88,2.36,6-.12,5.18-7,9.08-9.94,10.52a26.64,26.64,0,0,1-7.9,2.07,23.38,23.38,0,0,0-7.5,2,19.73,19.73,0,0,0-5.12,4.29,27.45,27.45,0,0,1-4.23,3.86c-4.64,3.21-20.45,13-29.11,3.55a2,2,0,0,1-.32-2.24c2.15-4.35,5.46-8,8.66-11.44,3.38-3.68,6.87-7.49,9-12.16,3.87-8.59,2.18-17.8.39-27.54-1.36-7.38-2.76-15-1.84-22.87.55-4.63,1.22-9,1.88-13.28,1.93-12.52,3.75-24.34,1.61-38.75-5.77-39-10.91-93.89,10.94-120.33,11.86-14.35,27-16.21,43-18.19,3-.37,6-.74,9.07-1.2,21.64-3.28,23.58-11,23.59-32.1,0-12-.19-24.31-.38-36.23-.39-24.08-.78-49,.39-73.8a177.44,177.44,0,0,1,4.15-29.41,18,18,0,0,1-9.25-3.89c-4.6-3.94-8.43-11.39-9.81-18.29-1.34,1.78-2.9,3.57-4.43,5.34-1.67,1.92-3.24,3.73-4.5,5.46a24.33,24.33,0,0,1-2.92,3.43c-.63.62-.63.62-1.18,3.74a25.73,25.73,0,0,0,.53,5.17,39.24,39.24,0,0,1,.63,5.45c0,12.47-6.09,25.43-14.8,31.53a20.77,20.77,0,0,1-19.77,2.47C489,337.46,486.65,330.58,487,323c-3.52-2-6.91-1.88-11.43,1.91-4.79,4-8.07,11.76-11,18.59-1.15,2.72-2.24,5.28-3.37,7.5-4.9,9.62-4.9,9.62,2.35,16.58a41.47,41.47,0,0,0,3.7,2.92c4.09,3,8.73,6.44,8.55,10.42-.08,1.95-1.26,3.63-3.5,5a2,2,0,0,1-1.73.17c-.39-.1-1.89-.45-3.35-.79-5.4-1.26-8.19-1.94-9.7-2.36-.51,7.18-2.21,16-4.06,24.9-.67,3.24-1.26,6-1.32,7a2,2,0,0,1-.67,1.36c-6.46,5.71-11.36,1-14.94-2.52l-.66-.64c-.36,3.41,1.32,8.13,3.62,11.78a2.31,2.31,0,0,0-.37,3.58,2,2,0,0,1-.92,2.54,38.58,38.58,0,0,0-5.14,3.79,21.72,21.72,0,0,0,3.79-1.58,2,2,0,0,1,2.86,2.36,2.1,2.1,0,0,1-.39,1.4l0,0a29.67,29.67,0,0,0-3,4.78c1.17-1.3,2.29-2.69,3.4-4l.85-1a2,2,0,0,1,3.38.46c1.41,3.23.92,6.45.37,9.57,7.16-5.17,14.8-24.52,19.14-35.52,1.49-3.79,2.79-7.05,3.8-9.2.73-1.55,2-3.76,3.41-6.32,2.08-3.71,4.87-8.67,7.24-13.78-3.29-8.56-6.67-17.42-5.13-26.48a2,2,0,0,1,2.12-1.66c5.12.39,8.64,2.31,10.46,5.72,3,5.62.65,14.17-3.1,22.59a72,72,0,0,1,4.2,13.88c1.41,8.84,1.2,17.19,1,25.26-.15,5.74-.3,11.68.13,17.79,1.22,17.51,24.36,16.87,44.77,16.3,8.65-.24,16.82-.47,22.73.74a2,2,0,0,1,1.59,1.72,6.39,6.39,0,0,1-1.8,5.42c-5.78,5.9-24.07,4.56-47.39,2.2-8.94-.91-17.38-1.76-20.4-1.17-16.74,3.24-22,23.47-26.29,39.72-.91,3.49-1.78,6.79-2.7,9.73-9.2,29.19-24.86,47.84-52.87,62.17.22,5.2-.06,10.43-1.84,14.47a42.91,42.91,0,0,1,1.8,18.45c-1.25,8.74-7.41,24.79-16.67,31.49a14.13,14.13,0,0,1-11,2.9c-15.49-2.74-19.93-24.64-18.13-39.32a29.87,29.87,0,0,1,1.42-6.3,19.7,19.7,0,0,1-5.24-.47,2,2,0,0,1-1.56-2c0-2.65.32-6.12.66-10.14,1.12-13.42,2.81-33.71-4.51-39.87-2-1.67-3.69-2.28-5.2-1.86-4.72,1.31-8.33,11.86-11.24,20.33-2.14,6.26-4,11.66-6.35,14.16-5.09,5.4-9.49,5.29-12.28,4.25-10-3.73-15-25-15.35-32.78-.58-13.85,3.58-26.52,7.59-38.77,1.4-4.28,2.73-8.33,3.85-12.39a59.19,59.19,0,0,0-6.57,11c-8.22,16.92-14.62,35.72-17.12,50.31-2.57,15,6,18.27,18,22.82,3,1.15,6.14,2.34,9.27,3.81a2,2,0,0,1,.92.88c6.18,11.67,5.15,24.48-2.7,33.44-8.17,9.32-21.75,12.27-34.59,7.5a2,2,0,0,1-1.13-1.05c-6.54-14.48-10.38-26.79-12.46-39.93-.4-2.5-.64-5.37-.88-8.15-.43-5-.87-10.17-2.17-13.48a36.16,36.16,0,0,0-2.81-5.25c-2.7-4.46-5.77-9.53-3.65-15.85s5.33-9.69,9.44-9.55c3.48.09,6.86,2.73,9.73,6.18-1.7-4-3.58-7.31-5.49-9a2,2,0,0,1-.66-1.73,4.65,4.65,0,0,1,.24-1c-2,1.37-4,3.07-5.92,4.72-5.12,4.36-10.4,8.86-16.22,7.78-2.16-.41-4.05-1.78-6-3.22s-4.31-3.12-6.91-3.62c-2.17-.42-5.25.12-8.24.63-3.49.6-6.78,1.17-9.41.47-1.94-.51-7.83-2.08-7.73-6.41.16-7.08,18-12.58,20.71-13.17,2.25-.49,4.49-1.06,6.85-1.66,9.12-2.32,18.55-4.71,28.2-2.29a2,2,0,0,1,1.15.79c.52.74,1.1,1.46,1.7,2.23a24,24,0,0,1,3.65,5.61c0-6.52-1.7-12-4.58-14.6-1.89-1.68-4.28-2.19-7.3-1.56a51.09,51.09,0,0,0-9,3,46.18,46.18,0,0,1-14.34,3.89c-8,.7-14.94,1.3-21.29,5.92-6.59,4.8-9.59,11.8-12.5,18.56-3.25,7.57-6.6,15.4-14.87,20.09-18.42,10.45-38.91,4.86-57-.08l-3.05-.83c-13.4-3.62-43.27-7.8-60.4,2.27a23.91,23.91,0,0,0-11.63,15.22,2,2,0,1,1-3.88-1A27.78,27.78,0,0,1,64,553.95c18.24-10.73,48.48-6.74,63.47-2.68l3.06.83c18.18,5,37,10.09,54,.46,7.1-4,10-10.91,13.17-18.19s6.33-14.77,13.82-20.22c7.25-5.28,15-6,23.3-6.67,5.41-.47,9.19-2,13.19-3.61a55,55,0,0,1,9.66-3.19c4.23-.89,8,0,10.79,2.48,6.62,5.89,6.07,18.09,5.74,21.69A1.53,1.53,0,0,0,273,527a4.44,4.44,0,0,1-.49,2.61c5.73,6.27,9.84,21.45,11.27,27.37,2.74-14.69,9.1-33.14,17.17-49.76,3.93-8.09,7.64-13.39,12.14-16.82,6.22-25.54,8.91-55.08-8.24-85.8l-1.07-1.93c-6.64-12-16.67-30.09-32.38-27.61-7.66,1.22-15.71,5.42-23.5,9.49-6.92,3.61-14.07,7.35-21.24,9.21-10.38,2.7-21.25,4.06-31.75,5.38-14.85,1.87-30.21,3.8-44.27,9.53a2,2,0,0,1-2.54-.94,38.49,38.49,0,0,1-2.22-6c-3.8.72-8.25.28-12.59-.15-4.69-.47-9.53-1-13,.12-5.2,1.58-13.14,8.13-20.16,13.91C89.87,424.07,83.34,429.21,79,428.1a4.37,4.37,0,0,1-3-2.79,2,2,0,0,1,.25-1.93,47.4,47.4,0,0,1,6.62-6.68c1.29-1.15,2.61-2.31,3.78-3.49l-2.31.94c-6.71,2.76-14.3,5.88-18.93.73a2,2,0,0,1,0-2.66c.37-.42.73-.89,1.08-1.37a9.52,9.52,0,0,1-5.77-3.35,2,2,0,0,1-.27-2.25c2.15-4.07,7-5.62,11.64-7.11,1.33-.43,2.69-.86,3.94-1.35a44.49,44.49,0,0,0-6.72.5,45.54,45.54,0,0,1-7.84.52,2,2,0,0,1-1.65-1.06c-1.31-2.46-.87-4.23-.27-5.28,2.15-3.77,9.46-4.11,17.93-4.51,5.77-.27,12.3-.57,14.55-2.18a11.54,11.54,0,0,0,2.58-2.28A24.76,24.76,0,0,0,90.09,381c-4.86-1.27-11.52-3-12.33-8.72a2,2,0,0,1,2.52-2.21,15.79,15.79,0,0,0,9.92-.21c2.86-.82,5.82-1.67,10.33.33,3.14,1.39,5,2.09,6.67,2.7a60.56,60.56,0,0,1,8.82,4c5.51,2.91,13.19,2.57,19.37,2.29,4-.18,7.39-.33,9.89.32a2,2,0,0,1,1.46,2.34c-.5,2.46.5,8.83,1.9,14.59,4.32-3,4.38-9.46.16-19.29a2,2,0,0,1,1.84-2.79c35.08-.05,66.5-1.45,95.65-18.1L251.9,353c5.93-3.43,11.79-6.81,17.61-9.75-13.92-2.24-31.73-17.41-32.09-31.49a2,2,0,0,1,2.53-2l.62.17c10.28,2.85,21.94,6.08,32-.88,6.33-4.39,8-10.86,9.75-17.7,1.3-5.07,2.65-10.32,5.93-15,11.72-16.85,27.7-18.12,37.83-14.08a24.41,24.41,0,0,1,15.64,25.09,8.16,8.16,0,0,1,7.21,5.61c2,5.44-.27,12.93-4.72,16.16.09,1.68.18,3.45.27,5.3.47,9.87,1.06,22.16,3.5,31.82a41.75,41.75,0,0,0,2.15,6c11.4,4.22,20.15,10.87,26.09,19.85,6.72,10.14,4.56,20.25,2.48,30a75.66,75.66,0,0,0-2.15,15c-.13,14.44,4.24,25,9.3,37.28,1.23,3,2.5,6.05,3.76,9.31,5.58,14.45,11,31.37,8.76,47.5,0,.84,0,1.67,0,2.48,0,2.92,0,5.67.19,7.67.53,5.88,1.56,11.93,2.56,17.79A198.7,198.7,0,0,1,404,561c.1,1.81.3,3.85.51,6,.14,1.41.28,2.89.41,4.4,26.27-13.74,40.54-31.12,49.34-59,.9-2.84,1.75-6.09,2.65-9.54,4.54-17.34,10.18-38.91,29.4-42.64,3.61-.7,11.53.1,21.57,1.12,15.62,1.58,39.24,4,44.13-1a2.54,2.54,0,0,0,.51-.72c-5.34-.76-12.51-.56-20.06-.35-21.11.58-47.38,1.31-48.87-20-.44-6.3-.29-12.34-.14-18.17.21-8.26.41-16.06-.94-24.53a53.13,53.13,0,0,0-2.64-9.49c-1.9,3.77-3.93,7.38-5.71,10.55-1.4,2.49-2.61,4.64-3.28,6.07-1,2-2.23,5.25-3.69,9-7.87,19.93-15.71,37.92-25.13,39.27a2,2,0,0,1-1.68-.55,2,2,0,0,1-.59-1.67c.14-1.14.33-2.24.52-3.29a34.85,34.85,0,0,0,.54-3.75,42.17,42.17,0,0,1-5.38,5.53,2,2,0,0,1-3.13-.8c-1.24-3.1-.48-5.88,1-8.51a27.63,27.63,0,0,1-5.8.95,2,2,0,0,1-1.75-3.13,27.29,27.29,0,0,1,4.39-4.63l-.35,0a2,2,0,0,1-1.12-3.76c.77-.4,1.53-.87,2.33-1.36a31.66,31.66,0,0,1,3.93-2.15c-2.37-4.6-4.56-11.6-1.63-16.3a2,2,0,0,1,2.94-.51,41.56,41.56,0,0,1,3.13,2.84c4,3.86,5.91,5.22,8.94,2.87.21-1.43.68-3.72,1.3-6.67,1.2-5.78,3.69-17.78,4.13-26.37-2.53-2.45-4.74-6.21-6.32-8.89l-.58-1a2,2,0,0,1,.85-2.83c3.44-1.65,5.65-.83,6.9.15,2.26,1.77,3.14,5.6,3.15,10.67l.1.06c1.06.4,7.31,1.85,10.35,2.56l2.57.6.18,0a2.08,2.08,0,0,0,.92-1.3c.08-1.86-4.31-5.1-6.93-7a43.78,43.78,0,0,1-4.1-3.26c-8.81-8.46-8.6-10.56-3.15-21.28,1.07-2.09,2.13-4.6,3.25-7.25,3.07-7.25,6.56-15.46,12.09-20.09s10.36-4.83,14.44-3.08c.44-2.9,1.13-5.84,1.8-8.69.4-1.72.79-3.39,1.13-5-4.84-8.59-7.55-19.87-9.34-27.29-.27-1.12-.52-2.15-.75-3.05-1.6-6.34-4.46-22.22,3.45-32.63,4.06-5.35,10.21-8.17,18.26-8.36,9.1-.23,15.64,1.7,20,5.87,6.13,5.87,7.17,15.4,7.45,25.67,4.25-.09,6,1.81,6.69,3.55,2.13,5.2-3.44,13.61-7.34,17.25a18.51,18.51,0,0,1,.79,5.74A5.57,5.57,0,0,1,531,290a20.49,20.49,0,0,0,2.49-2.93c1.37-1.88,3.07-3.84,4.72-5.74,3.05-3.51,6.21-7.14,7-10a2,2,0,0,1,2.73-1.28,35.69,35.69,0,0,1,2-19.7,122.94,122.94,0,0,1,8.35-15.16c5.16-8.39,10-16.31,11.06-27.1,1.44-15.12.7-40.37-5.45-49.18a46.19,46.19,0,0,0-7.78-8.15c-3.29-2.92-6.69-5.94-9.48-10.47a2,2,0,0,1,.6-2.72c6.26-4.12,12-.13,16.6,3.08.93.65,1.83,1.27,2.7,1.82.29-2.29-.36-4.72-1-7.26-1.27-4.76-2.72-10.16,2.1-15.29a2,2,0,0,1,2.85-.07c1.28,1.24,2.08,3.64,3,6.42.66,2,2,6.14,3,6.47,1-.2,1.74-5.26,2-7.17.48-3.26.89-6.07,2.19-7.73a2,2,0,0,1,3.4.42,8.81,8.81,0,0,0,1.18,1.56c.32.38.66.77,1,1.2l.56-.49a10.43,10.43,0,0,0,1.55-1.5,2,2,0,0,1,3-.3c4.11,3.81,2.29,8.49,1,11.9-1,2.7-1.55,4.32-1,5.57a57.87,57.87,0,0,0,5.19-6.7c1-1.42,1.93-2.75,2.91-4a2,2,0,0,1,3-.14c4.29,4.56-.63,17.13-8,34.39-2.31,5.38-4.3,10-4.91,12.48-2.21,8.9-2.23,19.21-2.25,30.13,0,7.15,0,14.54-.72,21.47-1.72,17.15-6.33,33.88-10.8,50.06-1.05,3.82-2.12,7.66-3.14,11.54a9.62,9.62,0,0,1,2.06,3.49c2.06,6.27-.64,9.22-2.43,10.42a9,9,0,0,1-3.39,1.33,175.72,175.72,0,0,0-4.27,29.7c-1.17,24.69-.77,49.53-.39,73.55.19,11.94.39,24.29.38,36.3,0,22.23-2.56,32.36-27,36.06-3.1.47-6.19.85-9.18,1.22-15.85,2-29.54,3.64-40.39,16.77-20.84,25.2-15.72,79-10.07,117.19,2.22,15,.36,27.12-1.62,39.94-.65,4.22-1.32,8.58-1.86,13.14-.86,7.25.49,14.59,1.8,21.68,1.21,6.59,2.45,13.33,1.86,20a36.56,36.56,0,0,1,10.29-.8c4.64.08,9,.15,12.64-2.14,7.95-5,6.27-15,4.57-20.56a36.11,36.11,0,0,0-3.76-7.66c-2.52-4.27-5.13-8.68-5.09-14.93,0-5.54,1.87-10.54,3.65-15.37a58.82,58.82,0,0,0,3-10l.63-3.54c2.81-15.85,5.72-32.25,5.91-48.05,0-1.62-.23-4.68-.51-8.23-1.34-16.61-3.58-44.41,9.07-46.27a11.07,11.07,0,0,1,8.74,2.54c16.17,12.82,21.24,73.24,23.68,102.27.51,6,.91,10.81,1.25,13.2.65,4.54.44,10.68.21,17.18-.47,13.67-1.06,30.69,6.87,36.45a14.5,14.5,0,0,0,4.46,2.16c2.66-4.08,7-4.5,14.46-4.72l3.3-.11a11,11,0,0,0,0-1.74c-1.11-.38-2.26-.71-3.47-1.05-4.15-1.18-8.44-2.4-11.55-5.89a2,2,0,0,1-.25-2.32,32.89,32.89,0,0,1,6.85-8.11c3.2-3,6-5.58,7.28-11.2,1.8-7.75,1.63-17.5,1.17-26.88a284.51,284.51,0,0,0-8.79-59c-5.42-20.63-7.74-37.22-7.76-55.47,0-3.63-.29-9-.83-14.82-7-4.77-13.08-13.11-14.54-20.6-.92-4.72.16-8.51,3.11-11,2.45-2,4.53-1.73,5.86-1.11,5.51,2.58,8.12,17.81,9.35,30.35a18.49,18.49,0,0,0,3.72,1.71c3.64,1.17,6.7.63,9.08-1.62,7-6.64,8.11-18,9.15-29.07.76-8.08,1.55-16.43,4.71-23,8.37-17.3,23.33-24.39,42.11-20,6.2,1.46,11.28,4,16.19,6.52,9.25,4.68,16.55,8.38,27.41,2.49,11.48-6.22,35.34-7.28,50.76-7.2-2.6-4.15-5.44-8.29-8.45-12.57-4.45,1.55-10.76,1.2-17.33.85l-2-.11c-6.77-.34-19.82.34-27.11,4.74a61.18,61.18,0,0,1-3.14,9.19,5.5,5.5,0,0,1-1.66,1.92,6.48,6.48,0,0,0-.55.49,2,2,0,0,1-2,.69,2,2,0,0,1-1.49-1.55,12.15,12.15,0,0,1,2.71-10.79,15.67,15.67,0,0,1,2.67-2.42c2.73-11.74,2.13-25.06-5.21-33.52a35.29,35.29,0,0,0-4.74-4.36c-3.82-3.09-7.43-6-7.58-13.68-.13-6.92,3.81-11.75,7.62-16.42a59.24,59.24,0,0,0,4-5.29c5.53-8.6,7.82-14.33,6.72-19.87a17,17,0,0,1-12.95-10.51c-.51-1.31-1.13-2.8-1.79-4.38-2.38-5.69-5.28-12.62-5.91-18.2-2.26-5.73-3.47-11.74-2.47-17.05a16.28,16.28,0,0,1,9.48-12.09c9.17-4.44,20.36-3.94,28.49,1.26a22.54,22.54,0,0,1,10.63,20.09c0,1.35-.12,3.11-.31,5.13.58,2.4.37,6.08-.28,11.15,4.21-12.25,1.44-27.47-1.25-42.24-1.72-9.45-3.34-18.38-3.26-26.63.07-7,1.48-14.31,2.84-21.36,1-5.06,2-10.28,2.49-15.34.72-7.25.12-12.91-1.76-16.83a13,13,0,0,0-3.45-4c-2.35-2.08-5-4.44-4.57-9.72a2,2,0,0,1,2.4-1.79,23.9,23.9,0,0,1,3,.88,7.9,7.9,0,0,1-2.08-5.46,2,2,0,0,1,1.06-1.81c6.8-3.61,12.28-4.08,16.27-1.37,9.8,6.65,7.14,30.94,5.19,48.68-.69,6.26-1.28,11.66-1.13,14.64v.13c.73,14.36,1.42,27.93,5.44,41.14.71,2.33,1.56,4.66,2.48,7,5.75-1.38,13.12-1.12,22.32,2.79,4.29,1.82,11.07-.09,16.12-4.54,2.12-1.87,6.82-6.84,5.31-13a2,2,0,0,1,2.83-2.69c7.13,2.49,9.07,15,8.88,20.78-.28,8.29-2.28,23.31-12.62,30.8-5.86,4.25-14.12,4-17.4,3.7-6.15-.57-9-3.52-12.26-6.95l-1.31-1.36q-.53-.54-1.11-1.06c3.46,16.45.66,31.5-2,46.05-3.47,18.64-6.75,36.24,3.17,55.39,3.64,7,11.59,25.56,13.35,33.51a2,2,0,0,1-2.07,2.43c-.11,0-2.78-.15-7-.25a94.72,94.72,0,0,1,9.06,21.56,31.49,31.49,0,0,1,6.09,11.77,67.15,67.15,0,0,1,2.62,20.23,12.93,12.93,0,0,1,3.65.4c7,1.75,8,7.31,8.83,11.78a21.84,21.84,0,0,0,1.5,5.53c2.42,5,5,6.47,8.47,8.51a47.87,47.87,0,0,1,6.4,4.25,14.52,14.52,0,0,1,3.91,5c4.55-10.37-1.27-22.72-6.49-33.81-1.08-2.29-2.09-4.45-3-6.52-7.72-18-10.23-39.21-6.71-56.64,3-14.83,10.59-25.69,18.64-37.2,3.24-4.64,6.6-9.44,9.66-14.55,7.81-13,8.71-25.66,9.75-40.26.26-3.63.53-7.38.91-11.25,2-20.47,14.49-36.76,26.4-50,1.43-1.59,2.86-3.21,4.29-4.84,9.54-10.84,19.4-22,33.29-27.31A43.89,43.89,0,0,1,886,247.36c4.42-.52,8.6-1,12.13-3.18s5.13-5.53,6.7-9.12q-.16-1.19-.23-2.54a16.16,16.16,0,0,1,0-1.63c-4.11,6.59-9.9,12-16.25,13.42-9.54,2.18-14.35-1.84-16.7-5.6-7-11.1-1.58-34.39,4.49-44-2.35-1.83-3.43-3.87-3.21-6.07.45-4.49,6.15-7,8.58-7.83,6.45-2.28,21.16,2.37,21.3,2.42,7.69,2.46,13.07,6.7,15.54,12.27,2,4.53,2,9.64,0,15.22.44.05.86.09,1.24.1a2,2,0,0,1,1.71,1,11.91,11.91,0,0,1-.06,12,11.07,11.07,0,0,1-8.63,5.22,2,2,0,0,1-.17.23A24.52,24.52,0,0,0,909,235.6c.46,2.46,1.28,3.93,2.37,4.16,3.28.69,9.7-5.5,15-12.25a15.08,15.08,0,0,1,.58-6.71,12.48,12.48,0,0,1,9-8.7c7.89-14.59,18.29-28.25,33.21-43.67l1.52-1.57c9.48-9.77,25.35-26.12,26.21-37.87a31.65,31.65,0,0,0-.69-8.34c-1-5.58-2-10.85,6.79-17.2a2,2,0,0,1,3.07,1c.49,1.45.91,3,1.31,4.42a57.46,57.46,0,0,0,1.79,5.73c1.92-.65,3.5-2.61,5.27-4.81a23.46,23.46,0,0,1,5.5-5.48,31.26,31.26,0,0,1,13.92-4.54,2,2,0,0,1,1.92,2.79,12.07,12.07,0,0,0-.6,2.77c-.08.56-.17,1.14-.28,1.72,4.45,0,9.16.52,13.26,2.94a2,2,0,0,1,1,1.55c.66,7.54-11.56,13.88-22.35,19.47-4.65,2.41-9,4.68-11.14,6.47-11.57,9.81-20,25.28-26.23,36.57-2.94,5.36-5.57,11.38-8.12,17.2-4.51,10.32-9.18,21-16,29.28l-.47.57c-3.44,4.22-9.24,11.31-15.82,13,3.25.15,6.16.92,7.91,3.54,4.77,7.12-5.27,22.06-18.9,40.84-4.56,6.29-8.87,12.24-10.1,15.2-4.8,11.56-4.07,24.93-3.37,37.86.25,4.65.52,9.46.52,14.14,0,.76,0,1.68,0,2.72.18,8.7.48,23.25-6.57,26.87-3.52,1.81-11.65,0-23.65-3a97.11,97.11,0,0,0-10.75-2.34c-16.17-1.42-24.42,4.34-36.55,13.87a30.61,30.61,0,0,1-5.36,3.51c-1.63,6.89-3.16,13.73-4.67,20.5l-.46,2c-4.08,18.22-6.11,36.95-8.08,55.05-.51,4.7-1,9.41-1.57,14.11-2.45,21.16-3.1,37.31,11,52.44,9.81,10.51,23.72,16.25,37.17,21.81,8.2,3.39,16.68,6.89,24.28,11.46,12.65,7.61,22.49,16.8,32.9,26.54,2.52,2.36,5.13,4.8,7.77,7.2,3.37,3.07,6.21,4.49,8.46,4.29.1-1.87.25-3.71.39-5.52a73.83,73.83,0,0,0,.27-13.84c-1.3-11.59-12.84-22.07-25.61-29.44-2.64-1.25-5.15-2.54-7.64-4-.73-.34-1.46-.67-2.18-1a100,100,0,0,0-10.81-3.59c-13.59-4-32.21-9.5-32.76-23.49a2,2,0,0,1,.69-1.59,8.88,8.88,0,0,0,.7-.67A2,2,0,0,1,874,519c13,2.57,23.09,11,32.89,19.07l2.1,1.74a72.05,72.05,0,0,0,9.47,6.64c2,1,4.59,2.27,7.37,3.86,1.86.88,3.79,1.75,5.83,2.65,1.88.83,3.91,1.57,6.06,2.35,7.3,2.65,15.58,5.65,19.33,13.55a30.6,30.6,0,0,1,2.28,7.73A18.79,18.79,0,0,1,962,575c6.49-3.28,17.3,3.8,21.9,8.81a16.56,16.56,0,0,0,2-2.06c-.09-3,.24-3.48.61-4a7.73,7.73,0,0,1,2.76-2.31c2.9-8.87.64-20.52-3.83-28.84H983c-5.88,0-12,0-17.66-2-2.19-.74-4.51-1.51-6.92-2.3-17.23-5.7-38.68-12.78-55.33-24.06a67.74,67.74,0,0,1-17.06-15.92c-3.05,1.76-5.29,1.29-6.12,1a4.63,4.63,0,0,1-3.07-4.7c.09-1.9,1.18-4.13,3.75-6a43.5,43.5,0,0,1-2.35-24.14c1.85-10.81,6.24-20.57,10.49-30,2.22-4.93,4.52-10,6.4-15.19.39-1.06.79-2.14,1.21-3.24,2.22-5.91,4.74-12.62,5.08-18.41a31.49,31.49,0,0,0-.53-5.55c-.9-6.11-2.14-14.47,5-17.18,5.78-2.2,8.83-.52,10.37,1.28,7.82,9.11-6.66,43-8.12,45.58a119.49,119.49,0,0,1-8.53,12.42c-8.21,10.94-16,21.27-10.13,34.43A56,56,0,0,0,892.3,478c2.05,3.57,3.92,6.82,3.3,10.94,14.27.79,30.08,10.74,41.17,17.73l1.7,1.07c4,2.48,8.52,4.94,13.36,7.55,13.08,7.05,27.91,15,35.36,26.32.22.33.44.67.65,1,9.76.3,18.82,2.26,21.09,16,.49,3,.73,6,1,9a68.15,68.15,0,0,0,2.25,14.67,73.91,73.91,0,0,1,3.45,17.26c1.15-2,2.45-4.51,3.9-7.51.44-.92.8-1.66,1.06-2.14,9.8-18.54,13.26-35.77,10.57-52.65-2.71-17-11.36-34-19.73-50.32-16.34-32-33.23-65-8.56-101.75,14.86-22.14,35.43-24.6,57.2-27.19,2.95-.35,6-.72,9-1.13,19-2.57,36.44-14.94,46.62-33.08,5.31-9.47,8.87-20.1,12.31-30.39,2-5.87,4-11.94,6.33-17.75.77-1.92,1.47-3.93,2.14-5.88,2-5.72,4-11.64,8.33-16.47,3.21-3.6,7.24-5.71,11.13-7.76a46.06,46.06,0,0,0,7.79-4.77,2,2,0,0,1,2.52,3.1,49.72,49.72,0,0,1-8.45,5.2c-3.75,2-7.28,3.83-10,6.89-3.77,4.23-5.6,9.52-7.53,15.12-.69,2-1.4,4.06-2.21,6.07-2.3,5.71-4.31,11.72-6.25,17.53-3.5,10.46-7.12,21.28-12.61,31.07-10.79,19.23-29.32,32.34-49.57,35.08-3.08.42-6.15.78-9.11,1.14-21.74,2.59-40.52,4.83-54.36,25.45-23.35,34.79-7.73,65.35,8.8,97.7,8.51,16.64,17.3,33.85,20.12,51.51s-.76,35.81-11,55.14c-.24.46-.58,1.15-1,2-2.34,4.84-4.9,9.83-7.64,13.43,0,.48-.1,1-.16,1.44-1.84,14.47-8.55,16.07-11.42,16.07h-.05c-7.34-.05-14.34-9.25-15.61-20.5,0-.44-.14-1.16-.25-2.1-.83-6.84-1.35-11.68-1.65-15.14q-.75.62-1.58,1.18a2,2,0,0,1-2.77-.51c-2.94-4.23-13.63-11.41-18.13-9.14-1.56.79-3.4,2-3.85,3.3q0,.75.08,1.51c.84,2.29,4.5,5,7,6.91a36.8,36.8,0,0,1,3.38,2.71c8.54,8.26,10.71,30.08,3.81,38.27-1.63,1.93-6.27,5.79-14.16,0C950.9,624.46,949,615.57,949,606.73c-2.82.1-6.47-1.21-11-5.36-2.66-2.42-5.28-4.87-7.81-7.24-10.25-9.59-19.94-18.64-32.23-26-7.34-4.42-15.68-7.86-23.75-11.19-13.84-5.72-28.16-11.63-38.57-22.77C820.35,517.78,821,500,823.54,478.5c.54-4.7,1.05-9.39,1.56-14.08,2-18.21,4-37,8.15-55.49l.46-2c1.36-6.09,2.74-12.25,4.19-18.44a5.78,5.78,0,0,1-2.87-.74c-5-2.9-4-12.41-2.11-25.53.21-1.45.42-2.85.59-4.14,3-22.79,6.48-45,15.23-65.66l.21-.5c3.9-9.23,11.16-26.41,20.91-29.37a2,2,0,0,1,2.46,1.22c3.62,9.8-.85,23.44-4.44,34.4-.91,2.76-1.76,5.37-2.4,7.66-3.89,14-8.3,29.77-13.28,45.16-3.31,10.24-6.09,20.57-8.6,30.85.49-.35,1-.74,1.58-1.18,12.95-10.17,22.05-16.24,39.37-14.71a95,95,0,0,1,11.37,2.45c6.88,1.72,18.41,4.6,20.85,3.34,4.83-2.48,4.53-17,4.4-23.23,0-1.07,0-2,0-2.8,0-4.57-.26-9.33-.52-13.93-.73-13.38-1.49-27.22,3.67-39.62,1.41-3.39,5.65-9.24,10.56-16,8.38-11.56,22.4-30.9,18.81-36.27-1.38-2.07-5.31-1.88-9.47-1.68-4.87.23-10.38.5-13.93-2.92a12.55,12.55,0,0,1-2.41-3.23c-5.48,6.62-12.2,12.74-17.28,11.67a5.92,5.92,0,0,1-4-3,18,18,0,0,1-6.33,6.89c-4.29,2.64-9.1,3.21-13.77,3.75a40.26,40.26,0,0,0-9.67,1.92c-13,4.9-22.49,15.73-31.7,26.21-1.44,1.64-2.88,3.27-4.32,4.87-11.47,12.75-23.46,28.39-25.39,47.72-.38,3.81-.65,7.54-.9,11.14-1,14.49-2,28.17-10.31,42-3.13,5.24-6.53,10.09-9.81,14.79-7.8,11.16-15.17,21.69-18,35.7-3.37,16.67-.95,37,6.47,54.28.86,2,1.86,4.14,2.92,6.39,5.89,12.51,13.13,27.9,4.61,40.64a41,41,0,0,1-1.22,20.27c-1.8,5.32-4.47,8.28-7.51,8.35h-.11c-3,0-5.57-2.75-7.68-8.16-3.1-8-16.41-16.54-24.37-21.68l-1.1-.71c-7,19.85-18.27,38.37-30.45,49.68-8.44,7.84-20.1,10.89-28.35,7.41-.5-.21-1-.45-1.52-.73a30.67,30.67,0,0,1-10,2.81c-7.39.61-13.46-2.45-18.05-9.12-11.51-16.72-4.3-49.93-2.74-56.41a20.66,20.66,0,0,1,2.38-5.45,4.54,4.54,0,0,1-.72-.75c-1.78-2.36-1.08-6.23.84-12.54.94-3.1,2.35-6.7,3.85-10.5,2.75-7,5.87-15,6.35-20.83.7-8.63,2.67-14,6.19-16.85,4.25-3.46,9.85-2.76,16.34-2,5.08.63,10.85,1.35,16.93.14,11.94-2.38,23.46-4.67,32.12-.09a99.56,99.56,0,0,0-8.12-17.15c-14.9-.15-40.07.58-51.3,6.68C669.45,456.3,660.5,451.77,651,447c-4.7-2.38-9.56-4.84-15.3-6.19-17-4-30,2.17-37.6,17.83-2.84,5.88-3.57,13.51-4.33,21.59-1.11,11.76-2.26,23.93-10.38,31.6-3.47,3.28-8,4.15-13,2.52a20.4,20.4,0,0,1-2.08-.8c.54,7,.64,12.28.64,12.43,0,18.13,2.23,33.91,7.63,54.46a288.45,288.45,0,0,1,8.91,59.78c.47,9.67.65,19.75-1.27,28-1.58,6.81-5.07,10.07-8.44,13.22a32.73,32.73,0,0,0-5.3,5.85c2.29,1.89,5.37,2.77,8.61,3.69,1.62.46,3.29.94,4.88,1.55a2,2,0,0,1,1.23,1.43,15,15,0,0,1,0,6,2,2,0,0,1-1.86,1.62c-1.85.09-3.53.14-5.06.19-5.07.15-8.12.23-10.08,1.69l.2,0c4.4.75,9.39,1.61,13.54,6.8,5.16,6.44,8.29,18.47,4.36,26.66-3.41,7.11-9.51,8.31-15.42,9.46a53,53,0,0,0-5.61,1.31A2,2,0,0,1,564.7,747.72ZM565.88,707a39.38,39.38,0,0,0-1.34,7.18c-.21,1.72-.44,3.39-.66,5-1.23,8.88-2.22,16,1.84,24.16,1.49-.39,3-.68,4.42-1,5.61-1.1,10-2,12.58-7.27,3.15-6.58.54-16.91-3.88-22.43-3.21-4-6.86-4.63-11.1-5.36ZM458.55,738.54c7,5.38,20.18-3.21,22.87-5.07a24,24,0,0,0,3.61-3.32,23.18,23.18,0,0,1,6.17-5.08,26.79,26.79,0,0,1,8.74-2.41,23.27,23.27,0,0,0,6.75-1.71c3.67-1.79,7.64-4.75,7.69-7,0-2-.37-2.48-.37-2.48-.81-.23-3.89,1.7-5.21,2.53a23.77,23.77,0,0,1-3.77,2.08c-.85.32-20.89,7.78-28.05,1.34a7,7,0,0,1-1.3-1.56l-.12.28c-2.37,5.25-6.08,9.3-9.68,13.21A54.08,54.08,0,0,0,458.55,738.54ZM365.4,596.87a23.16,23.16,0,0,0-2,7.38c-1.56,12.74,2.09,32.64,14.86,34.89a10.29,10.29,0,0,0,7.93-2.2c8-5.76,13.85-20.44,15.05-28.82a36.11,36.11,0,0,0-.83-13.61,11.81,11.81,0,0,1-5.63,2.77c-3.07.65-7-.22-10.88-1.07a35,35,0,0,0-8.12-1.2,42,42,0,0,0-7.66,1.26C367.19,596.48,366.3,596.69,365.4,596.87ZM953,605.53c-.2,8.56,1.22,16.41,9.48,22.46,5.74,4.21,8,1.53,8.74.65,5.07-6,3.89-25.64-3.53-32.81a35.23,35.23,0,0,0-3-2.37,56.43,56.43,0,0,1-4.81-3.86c-.58,6.66-2.54,12.75-6.24,15.49C953.46,605.24,953.24,605.39,953,605.53ZM280.52,624.24c11.2,3.86,22.41,1.33,29.41-6.67,6.7-7.65,7.61-18.2,2.48-28.34-2.81-1.28-5.64-2.36-8.39-3.41-6.85-2.62-13.49-5.15-17.41-10.14.48,6.21.62,12.4.71,18.12a2,2,0,0,1-.77,1.61c-.42.33-.87.7-1.31,1.06s-1.12.91-1.58,1.26a2,2,0,0,1-2.93-.57c-3.62-6.09-2.87-15.13-2.15-23.87.52-6.31,1.06-12.84-.23-17.42-1.6-5.73-8.68-17.29-13.77-17.42h-.07c-2.63,0-4.43,3.7-5.47,6.83-1.53,4.56.81,8.42,3.28,12.5a39.64,39.64,0,0,1,3.11,5.86c1.52,3.85,2,9.31,2.43,14.6.24,2.83.47,5.5.84,7.86C270.7,598.64,274.35,610.44,280.52,624.24ZM990,583c.19,3.1.72,8.7,1.92,18.63.11.95.2,1.68.25,2.13,1.13,9.95,7.05,16.92,11.67,16.95h0c3.08,0,5.53-3.32,6.83-9.06a5.73,5.73,0,0,1-3,.74,4.69,4.69,0,0,1-3.69-1.87c-2.07-2.83-.83-7.69.6-13.32.93-3.66,2.09-8.22,1.39-10.08-1.24-3.25-6.86-7.81-11.65-8.49a6.89,6.89,0,0,0-1.86,0A22.54,22.54,0,0,1,990,583Zm20.11,7.06a54.34,54.34,0,0,1-1.66,8.12c-.88,3.45-2.21,8.66-1.25,10,0,.06.16.21.69.24.79.07,1.94-.56,3.66-2.69A52.07,52.07,0,0,0,1010.12,590.08Zm-69.76-29.57c6.76,6,12.41,13.56,13.4,22.39a77.82,77.82,0,0,1-.25,14.6c0,.62-.1,1.24-.15,1.86,2-3.57,2.87-9.47,2.74-15.31a6.23,6.23,0,0,1-.19-2.13c0-.16,0-.32.06-.48a32.26,32.26,0,0,0-2.49-10.9C951,565.36,945.88,562.67,940.36,560.51ZM376.21,591a42.08,42.08,0,0,1,8.5,1.3c3.42.75,7,1.54,9.19,1.06a7.62,7.62,0,0,0,5.13-3.56c-1-3.14-2.24-6.28-3.52-9.47l-1.21.52c-3.35,1.44-6.66,2.54-9.85,3.62-6.17,2.07-11.6,3.89-15.45,7.48a38.44,38.44,0,0,1,6.52-.94Zm-18.15,2.37a17.62,17.62,0,0,0,4.72-.11c4.43-7.23,12.25-9.85,20.41-12.59,3.12-1,6.34-2.12,9.54-3.5l1.29-.56a91.48,91.48,0,0,1-5.24-16.21c-2.48-12.71-.07-23.15,2.49-34.21,1.11-4.81,2.26-9.78,3-15.11l0-.15c-.06-9-.57-19.61-5.84-21.94a2,2,0,0,1-1.37.17c-9.58-2.26-20.43-1.76-31.92-1.24-4.81.22-9.78.44-14.62.44h-.38c-11,0-18,.78-23.56,4.44q-.75,3-1.55,5.91c-1.16,4.26-2.54,8.44-4,12.88-3.91,11.91-7.94,24.22-7.4,37.35.36,8.52,5.6,26.53,12.76,29.2.9.34,3.63,1.36,8-3.25,1.76-1.87,3.65-7.38,5.47-12.71,3.54-10.33,7.2-21,14-22.89,2.84-.79,5.81.1,8.84,2.65,8.91,7.49,7.18,28.16,5.92,43.26C358.4,588.33,358.16,591.11,358.06,593.38Zm-75.56-18.9c-.55,6.78-1,13.66.69,18.51l.12-.09C283.22,587,283,580.74,282.51,574.48Zm381-49.86a17.94,17.94,0,0,0-2.32,5c-4.12,17.12-6,41.33,2.15,53.21,3.77,5.48,8.5,7.89,14.42,7.4a24.91,24.91,0,0,0,6.63-1.57c-3.28-3.24-6-8.62-6.23-17.56-.25-10.4,3.06-19.87,6.26-29,.42-1.21.85-2.43,1.27-3.65.66-1.93,1.79-4.33,3.09-7.1A95,95,0,0,0,693.5,520a5.77,5.77,0,0,1-2.7-1.93c-.12-.16-.23-.33-.33-.5a9.63,9.63,0,0,1-2.74,5.44c-2.52,2.27-5.91,2.06-10.21,1.8-1.51-.09-3.23-.2-5.06-.2h0c-1.31,0-2.51,0-3.6,0A48,48,0,0,1,663.51,524.62ZM692.72,589c6.74,1.93,15.74-.88,22.53-7.19,11.76-10.92,22.79-29.42,29.61-49.1-3.06-2.11-4-3.21-3.81-4.73a2,2,0,0,1,1.57-1.65,16.3,16.3,0,0,1,4.39-.31,120.16,120.16,0,0,0,4.56-23.58c-5.17,4.53-8,15.6-10.32,24.34a75.45,75.45,0,0,1-3.47,11.28C731.88,550.77,712.15,577.63,692.72,589Zm4.73-68.16a92.17,92.17,0,0,1-5,12.16c-1.2,2.56-2.34,5-2.93,6.69-.42,1.23-.85,2.45-1.27,3.67-3.23,9.24-6.27,18-6,27.63.18,7.44,2.33,12.85,6.26,15.86,19.08-9.81,39.93-38,45.72-50.49.2-.42.39-.91.59-1.44q-.67.8-1.41,1.58c-5.93,10.74-12.24,19.39-16.82,22.46-2.18,1.46-4.12,1.81-5.76,1a2,2,0,0,1-1.1-2.21c1.43-7,7.76-12.42,13.88-17.69C726,538,728.3,536,730.24,534c1.91-3.51,3.78-7.25,5.54-11.08-1-1.72-6.19-2.19-11.17-2.64l-2.86-.27a67.57,67.57,0,0,0-9,.41C706.44,520.92,701.27,521.26,697.45,520.88ZM399.18,578.7c.62,1.54,1.23,3.09,1.82,4.65a43.28,43.28,0,0,0,.23-5.61Zm594.59-4.12c.37,0,.74.05,1.12.11,4.79.68,10.36,4.29,13.28,8.28a73.24,73.24,0,0,1-2.26-15c-.24-3-.46-5.85-.92-8.65-1.64-9.9-7.11-12.07-14.94-12.56C993.9,554.94,995.92,565.59,993.76,574.58Zm-598.59-47.4c-2.45,10.6-4.76,20.62-2.45,32.48a87.47,87.47,0,0,0,5,15.34q1.71-.79,3.35-1.59c-.13-1.92-.31-3.92-.51-6s-.42-4.28-.53-6.17a195.71,195.71,0,0,0-2.84-21.41C396.45,535.68,395.73,531.42,395.17,527.17Zm354.58,4,1.95,1.26c8.9,5.75,22.36,14.43,25.93,23.59,1.73,4.43,3.29,5.61,4,5.61h0c.77,0,2.41-1.53,3.81-5.63A36.69,36.69,0,0,0,787,541.09c-8.16,7.62-16.78,1.71-24.44-3.55-4.12-2.83-8.34-5.72-12.62-6.93ZM723,545.89c-3.39,3-6.51,6.13-8.24,9.45C717.13,553.58,720,550.24,723,545.89Zm166.18-46C903.7,520,936,530.67,959.7,538.51c2.42.8,4.75,1.57,6.95,2.31,5.06,1.71,10.79,1.74,16.33,1.76-7.19-9.81-20.9-17.2-33.06-23.76-4.9-2.64-9.52-5.13-13.58-7.68l-1.7-1.07c-11-6.94-26.9-16.94-40.32-17.16a23.85,23.85,0,0,1-2.3,3.71A27,27,0,0,1,889.17,499.91ZM875,523.27c1.86,10,17.24,14.54,29.72,18.22l.21.06-.53-.44C895.4,533.7,886.15,526,875,523.27ZM751.1,526.78c4.92,1.41,9.5,4.56,13.72,7.46,9.23,6.34,14.74,9.57,20.74,2.56l.48-.59a12.54,12.54,0,0,0-3.79-6.25,43.86,43.86,0,0,0-5.9-3.9c-3.81-2.21-7.1-4.12-10.06-10.22a25.08,25.08,0,0,1-1.83-6.55c-.88-4.79-1.58-7.55-5.87-8.62a7.67,7.67,0,0,0-2.81-.2A120,120,0,0,1,751.1,526.78Zm-519.48,3.61a13.54,13.54,0,0,1,2.55.22c3.47.66,6.14,2.6,8.5,4.31,1.63,1.18,3.16,2.29,4.45,2.53,3.93.75,8.28-3,12.89-6.89a68.44,68.44,0,0,1,7.17-5.59c0-2.79-1.72-4.92-3.65-7.35-.46-.58-.94-1.18-1.4-1.8-8.45-1.88-17.13.32-25.54,2.46-2.3.58-4.67,1.19-7,1.69-6.63,1.44-17.51,6.9-17.56,9.35,0,.31.85,1.42,4.76,2.46,1.78.47,4.79,0,7.7-.55A43.47,43.47,0,0,1,231.61,530.39Zm440.84-9.73h0c2,0,3.73.11,5.3.21,3.49.21,6,.37,7.29-.78s1.78-3.45,2-7.41a38.08,38.08,0,0,0-.14-4.7,11.36,11.36,0,0,0-2,.13c-6.38,1-13.68,6.77-18.5,12.63l2.45,0C669.9,520.68,671.12,520.66,672.46,520.66Zm12.43-57.48c-2.5,0-4.58.42-6.17,1.72-2.58,2.1-4.12,6.7-4.73,14.07-.52,6.43-3.76,14.68-6.61,22-1.46,3.73-2.84,7.26-3.74,10.21-1.41,4.64-2,7.55-1.62,8.66,5.31-7.1,14.07-14.4,22.22-15.65a15.51,15.51,0,0,1,2.3-.19c-.4-4.92-.39-10,3.29-15.37a2,2,0,0,1,2.46-.7c8.67,3.84,5.54,11.74,3.26,17.51-.24.6-.47,1.19-.7,1.78a14.9,14.9,0,0,1,2.52,3.18,10,10,0,0,1,1,6.58,110.09,110.09,0,0,0,14.07-.52,67.12,67.12,0,0,1,9.74-.4l2.83.26c5.36.48,9.86.89,12.53,2.75,5.44-12.66,9.32-25.83,8.83-34.75a88.44,88.44,0,0,0-2.76-18c-7.38-7.59-18.84-5.31-33.33-2.42-6.72,1.34-12.82.58-18.21-.09A61,61,0,0,0,684.89,463.18Zm8.57,48.51a5.21,5.21,0,0,0,.59,4.07,1.35,1.35,0,0,0,.36.33,5.89,5.89,0,0,0-.48-3.67C693.77,512.17,693.62,511.93,693.46,511.7ZM556.52,482a2.15,2.15,0,0,0-1.28.64c-1.79,1.49-2.38,3.89-1.75,7.14,1,5.33,5.14,11.48,10,15.8-1.34-11.12-3.59-22.06-6.67-23.49A.71.71,0,0,0,556.52,482Zm134.08,22.6c.28.09.56.2.83.32l.39-1c2.43-6.13,3.29-9.42.36-11.53C690,496.43,690.2,500.29,690.59,504.6Zm59.31-25.76q.27,2.55.41,5.23a55.33,55.33,0,0,1-2,15.82,12.8,12.8,0,0,1,3.52-2.52A65,65,0,0,0,749.91,478.84Zm132.43,17.52a3.92,3.92,0,0,0-1.48,2.45c0,.58.29.7.42.75a3.43,3.43,0,0,0,2.55-.56Q883,497.69,882.34,496.36Zm3.41-2q.56,1.08,1.18,2.13a24.23,24.23,0,0,0,1.88-2.26q.36-.48.67-.94c-.43.08-.85.17-1.27.28A20.21,20.21,0,0,0,885.75,494.35Zm-2.34-30.82c-.48,1.85-.89,3.72-1.21,5.62a39.78,39.78,0,0,0,1.91,21.55,23.9,23.9,0,0,1,3.11-1,25.66,25.66,0,0,1,4.33-.7c.71-3.05-.66-5.43-2.7-9a60,60,0,0,1-3-5.76A26.43,26.43,0,0,1,883.41,463.54ZM274.5,370.82c16.27,0,26.15,17.83,32.84,29.91l1.06,1.92c17,30.39,15.27,59.49,9.52,84.91,5.68-2.55,12.73-3.2,22.54-3.18h.15c4.75,0,9.67-.22,14.43-.44,10.45-.47,21.22-1,30.81.88a2,2,0,0,1,.3-.13,2.69,2.69,0,0,1,2.35.11,9,9,0,0,1,4.35,2.3,158.75,158.75,0,0,0-7-21.92c-1.24-3.21-2.5-6.27-3.72-9.22-5.23-12.66-9.74-23.59-9.6-38.84a78.71,78.71,0,0,1,2.24-15.81c2.08-9.79,3.88-18.24-1.91-27a46.62,46.62,0,0,0-20.49-16.81,34.62,34.62,0,0,1,2.69,8.92,2,2,0,0,1-3.31,1.74c-2.25-2-5.33-4.26-8.59-6.66a140.14,140.14,0,0,1-12.57-10c-12.47-11.7-24.38-14.64-36.42-12.77a40.46,40.46,0,0,1-15.79,4.81c-7.92,3.4-16,8.08-24.47,13l-5.64,3.25c-29.17,16.66-60.2,18.48-94.67,18.62,4,10.79,2.87,18.12-3.39,21.83l-.49.27c.42,1.43.85,2.72,1.27,3.8,14-5.38,29-7.26,43.47-9.08,10.38-1.3,21.11-2.65,31.25-5.28,6.73-1.75,13.67-5.37,20.39-8.88,8.07-4.21,16.42-8.57,24.72-9.89A23.36,23.36,0,0,1,274.5,370.82Zm636.33,11a10.26,10.26,0,0,0-3.53.79c-3.82,1.46-3.42,6.25-2.44,12.86a33.54,33.54,0,0,1,.57,6.37c-.38,6.4-3,13.4-5.33,19.58-.41,1.09-.81,2.16-1.19,3.21-1.93,5.29-4.26,10.46-6.51,15.46L891,443.26c1.71-2.53,3.58-5,5.42-7.48a116.61,116.61,0,0,0,8.25-12c3-5.28,13.85-34.84,8.56-41A3,3,0,0,0,910.83,381.86ZM735.76,438.75c2.84.05,5.19.13,6.87.2-2.52-8.51-9.21-24-12.32-30-10.56-20.37-7-39.48-3.55-58,2.64-14.18,5.37-28.85,2.05-44.54-.32-1.52-.72-3-1.18-4.56a38.75,38.75,0,0,0-10.92-4.72,4.8,4.8,0,0,0-4,.44c-1.7,1.23-2,3.89-2,3.92q-.06,1.39-.12,2.81c.79,1.54,1.69,3.21,2.68,5,5.6,10.25,12.58,23,11.11,37.3-1,9.71-3.51,18.55-5.73,26.35-.77,2.69-1.5,5.28-2.16,7.81a132.3,132.3,0,0,0,9.2,26.69c3.32,6.88,3.85,11.85,1.62,15.19a7.8,7.8,0,0,1-1.24,1.44C729.55,429.11,732.82,433.9,735.76,438.75ZM677.51,336.18c.89,6.25-1.63,12.81-7.45,21.85a63.11,63.11,0,0,1-4.27,5.65c-3.51,4.3-6.82,8.36-6.71,13.81.11,5.81,2.49,7.73,6.09,10.64a39.13,39.13,0,0,1,5.24,4.85c7.52,8.67,8.83,21.67,6.76,33.62,10.51-4.48,25.44-3.78,26.24-3.74l2,.11c5.42.3,11,.6,14.68-.29l-1.05-1.48L717,418.27c-9-12.72-7.92-24.57-4.66-37.5-5.86-25.21-6.64-53.11-5.82-75.51a48,48,0,0,1-2.15-4.86,42.37,42.37,0,0,1-3.91,16.25,2,2,0,0,1-2.12,1.1c-.33,0-1.87,0-2.49,0a1.9,1.9,0,0,1-.59,0c-2.38,7.81-6.16,14.93-12,17.13A20.41,20.41,0,0,1,677.51,336.18ZM91.85,407.58a2,2,0,0,1,1.81,2.84c-1.61,3.45-4.94,6.4-8.16,9.26a63.7,63.7,0,0,0-4.8,4.56c3.2-.44,11-6.91,16.9-11.74,7.66-6.31,15.57-12.83,21.53-14.65,4.27-1.3,9.53-.78,14.6-.27,3.93.39,8,.79,11.14.26-1.3-5.2-2.3-11-2.25-14.72a60.13,60.13,0,0,0-7.07.06c-6.66.3-14.94.66-21.41-2.75a57.23,57.23,0,0,0-8.34-3.75c-1.71-.63-3.66-1.35-6.91-2.8s-5-.88-7.61-.14a21,21,0,0,1-7.05,1.06,30.07,30.07,0,0,0,6.86,2.37c4,1,7.07,1.84,7.57,4.53.46,2.48-1.94,4.58-4.36,6.31-3.21,2.3-9.76,2.6-16.69,2.93-5.08.24-13.58.63-14.64,2.49a.64.64,0,0,0-.05.39,56,56,0,0,0,5.85-.52c4.94-.61,10-1.23,13.53,1.31a2,2,0,0,1,.1,3.15c-2.43,2-5.84,3.11-9.14,4.17s-6.67,2.14-8.45,4c1.6,1.2,3.4,1.34,5.78.49A2,2,0,0,1,72,410.14a14.42,14.42,0,0,0-1.67,2.11l-.67.93c3.13,1.37,8.38-.79,13.09-2.73,3.22-1.32,6.27-2.58,8.84-2.85ZM714.6,389.43c-1.45,9.15-.65,17.59,5.67,26.53l2.07,2.92,1.37,1.93a3.82,3.82,0,0,0,.25-.33c1.34-2,.68-5.89-1.9-11.23A127,127,0,0,1,714.6,389.43ZM869.16,267.16c-7.22,4.23-13.66,19.46-16.53,26.27l-.21.5c-8.56,20.24-12,42.12-15,64.63-.17,1.31-.38,2.72-.6,4.19-1,6.89-2.89,19.72.16,21.49a2.48,2.48,0,0,0,1.86,0c2.75-11.48,5.79-23.07,9.51-34.57,4.95-15.31,9.35-31.08,13.23-45,.66-2.37,1.53-5,2.45-7.83C867.2,287.31,871,275.59,869.16,267.16ZM476.48,358c-.51,6.12,1.4,12.42,3.69,18.61,2.33-6.05,3.52-11.76,1.66-15.23C480.89,359.57,479.13,358.46,476.48,358ZM451.63,371c.54.9,1.15,1.89,1.8,2.87a4.51,4.51,0,0,0-1.31-2.65A1.13,1.13,0,0,0,451.63,371Zm258.69-58.66c-.36,18.44.5,39.82,4.33,60l.12-.43c2.28-8,4.64-16.3,5.6-25.66C721.66,333.69,715.55,322,710.33,312.38ZM338.63,353.07c2.23,1.76,4.59,3.49,6.91,5.2,1.39,1,2.75,2,4,3-.64-1.7-1.39-3.42-2.14-5.12l-.31-.71a74.54,74.54,0,0,0-7.37-2.09Zm-24.49-30.49c4.45,12.2,11.19,23.33,26.52,26.87q2.3.53,4.49,1.17a33.68,33.68,0,0,1-1.06-3.37c-2.53-10-3.13-22.55-3.62-32.61-.11-2.28-.21-4.45-.33-6.45a21.28,21.28,0,0,1-5,11.33c-7.2,8-13.7,5.66-20,3.41Zm-72.37-8.12c2.48,11.16,17.42,23.22,28.6,24.9a31.5,31.5,0,0,0,7.12.21,70.8,70.8,0,0,1,15.3-4.68,24.43,24.43,0,0,0,3.75-2.69c3.8-3.35,5.67-7.29,5.57-11.72-.11-4.77-1.73-9.27-3.3-13.63-3-8.38-6.14-17,1.2-27.53,6.3-9,13.34-9.9,18.14-9.06,8.87,1.54,16.15,9.75,19.47,17.8,1.08-9.85-4-18.44-13-22.06-8.76-3.5-22.68-2.28-33.06,12.65-2.87,4.13-4.07,8.81-5.34,13.75-1.86,7.26-3.79,14.76-11.35,20C264.06,319.85,251.92,317.22,241.77,314.46ZM491,325.88c.39,5,2.82,9.09,9.53,11.54a16.71,16.71,0,0,0,16.1-2c7.59-5.31,13.09-17.19,13.09-28.25a37.3,37.3,0,0,0-.58-4.82c-.15-.93-.29-1.82-.4-2.65-2.2,11.55-8.29,25-12.92,30-9.49,10.11-16.62,3.62-22.35-1.59C492.64,327.29,491.82,326.56,491,325.88Zm-190.22,8.3a40.73,40.73,0,0,1,16.09,3.28,73.1,73.1,0,0,1-7.85-17.4,2,2,0,0,1,2.44-2.55c1.77.5,3.4,1.08,5,1.65,6.18,2.22,10.27,3.68,15.67-2.32,6.71-7.45,3.86-20.45,2.83-24.26-2.15-7.91-9.28-16.95-17.49-18.38-5.32-.93-10.09,1.57-14.18,7.41-6.15,8.79-3.63,15.78-.71,23.88,1.68,4.66,3.41,9.47,3.54,14.89a18.54,18.54,0,0,1-5.84,13.79ZM656.69,302a62.26,62.26,0,0,0,11.18,17.76c4.26,4.58,7.11,8.56,8.6,12.48a15.76,15.76,0,0,0,5.41-1.07c7.34-2.78,11.36-18.48,12.6-30a15.94,15.94,0,0,0-2.87,3,2,2,0,0,1-1.51.75,1.93,1.93,0,0,1-1.55-.68c-5.67-6.45-20.66-14.48-27.73-11.82-2.82,1.06-4.19,3.82-4.19,8.44Q656.64,301.38,656.69,302Zm5.55,17.3.12.29c.68,1.62,1.31,3.14,1.83,4.48a12.9,12.9,0,0,0,7.54,7.35,43.7,43.7,0,0,0-6.79-8.95C664.08,321.52,663.17,320.45,662.24,319.27Zm-171.06,1.64a56.5,56.5,0,0,1,5,4.21c6.54,5.95,10.26,8.73,16.74,1.82,5.31-5.66,12.22-23.26,12.69-34-1.75,8.32-5.05,16.93-10.42,21.25a13.05,13.05,0,0,1-12.38,2.42c-3.69-1.05-6.78-3.55-9.38-6.88l-.3,1.28A94.13,94.13,0,0,0,491.18,320.91Zm3.42-16.58c2.54,4.16,5.61,7.35,9.32,8.41A9.14,9.14,0,0,0,512.7,311c8-6.44,11-25.62,10.48-34.55-.24-3.92-1.93-7-3.73-10.18-1.61-2.9-3.27-5.88-3.92-9.59a52.71,52.71,0,0,0-7.52,2c-6.36,2-14,4.32-19.28.25.25,5.74,1.69,11.13,3.2,16.75,2,7.44,4.06,15.13,3.31,24C495.13,301.19,494.9,302.75,494.61,304.32Zm236.4-5a36.19,36.19,0,0,1,5.69,4.63l1.35,1.4c3.06,3.19,5.08,5.3,9.74,5.73,6,.55,11.33-.53,14.68-3,9-6.49,10.72-20.13,11-27.69.13-4.06-1-10.89-3.48-14.56-.33,4.47-2.73,9-6.9,12.63-6.24,5.51-14.6,7.65-20.33,5.22-8-3.38-14.3-3.79-19.23-2.8.63,1.47,1.27,2.93,1.91,4.38C727.4,289.86,729.45,294.53,731,299.32Zm-392.25-8,.07.24A44.6,44.6,0,0,1,340.38,306a2,2,0,0,1,2.3-.85,11.42,11.42,0,0,0,2.48-10.85c-.85-2.34-2.67-3.33-5.41-2.94A2,2,0,0,1,338.75,291.29Zm325.36-3.43c8.77,0,20.11,6.61,25.85,12.06,1.49-1.61,3.17-3,4.87-3.06q0-.95.06-1.81a18.66,18.66,0,0,0-8.79-16.65c-7-4.47-16.64-4.88-24.59-1a12.31,12.31,0,0,0-7.29,9.22,20.3,20.3,0,0,0,0,6.7,9.53,9.53,0,0,1,5.21-4.64A13.29,13.29,0,0,1,664.11,287.86ZM503.43,237.7l-1.32,0c-6.77.17-11.88,2.45-15.17,6.78-4.76,6.27-5.79,17.19-2.76,29.23.23.92.48,2,.76,3.09,1.3,5.39,3.31,13.74,6.43,21.07.36-7.61-1.49-14.51-3.28-21.2-2-7.35-4-15-3.18-23.51a2,2,0,0,1,3.79-.69c3.17,6.44,9,5.18,18.15,2.34,3.72-1.15,7.24-2.24,10.43-2.28a2,2,0,0,1,2,1.87c.24,3.78,1.9,6.76,3.66,9.92,1.93,3.47,3.92,7.05,4.22,11.88a48.17,48.17,0,0,1-.06,5.89c3.22-3.48,6.31-9.46,5.34-11.82-.54-1.32-3.14-1.14-4.65-.91a2,2,0,0,1-2.3-1.94c-.19-10.2-.82-19.78-6.26-25C515.9,239.27,510.72,237.7,503.43,237.7Zm216.2,44.38a21.37,21.37,0,0,0-10.49,9,2,2,0,0,1-.5.61c-1.59,1.31-1.77,3.31-1,6a8.43,8.43,0,0,1,2.66-3.3,8.58,8.58,0,0,1,7.29-1.09,39.47,39.47,0,0,1,8,3c-1.21-3.15-2.58-6.27-3.93-9.34C721,285.32,720.33,283.71,719.63,282.08Zm-170.56-8.35c.14,6.72,4.18,16,9,20.11a13.78,13.78,0,0,0,7.54,3c.79-3.37,1.62-6.72,2.5-10.06a36.76,36.76,0,0,0-7.07-3.54c-3.69-1.54-7.52-3.14-9.74-5.82A14.44,14.44,0,0,1,549.07,273.73Zm22,17.35q-.63,2.49-1.23,5L570,296C571.31,295.1,571.69,293.45,571.09,291.08ZM693.52,178.16c.47,1.55,1.58,2.53,3,3.82a16.54,16.54,0,0,1,4.4,5.3c2.21,4.59,2.93,11,2.14,19-.52,5.24-1.54,10.56-2.54,15.7-1.39,7.2-2.7,14-2.76,20.64-.08,7.86,1.51,16.61,3.2,25.87a213.32,213.32,0,0,1,3.25,22.23,8,8,0,0,1,1.58-1.87,26.9,26.9,0,0,1,12.33-10.32c-.92-2.32-1.77-4.66-2.49-7-4.16-13.68-4.86-27.48-5.61-42.1v-.13c-.17-3.3.44-8.85,1.15-15.28,1.73-15.78,4.35-39.63-3.46-44.93-2.46-1.67-6.13-1.34-10.92,1,.95,3.54,5.93,4.15,11.82,4.52a2.09,2.09,0,0,1,1.59.9,2,2,0,0,1,.26,1.78,5.72,5.72,0,0,1-3,3.42c-3.31,1.53-7.71-.12-12-1.72ZM551.32,140a48.45,48.45,0,0,0,7.5,7.73,50,50,0,0,1,8.4,8.85c8,11.46,7.15,41.31,6.15,51.85-1.11,11.71-6.23,20-11.64,28.81a119.71,119.71,0,0,0-8.09,14.68c-2.65,6-3.67,17.7.69,23,1.6,1.92,5,3.33,8.2,4.68a50.3,50.3,0,0,1,6.61,3.14c.89-3.31,1.8-6.61,2.7-9.88,4.42-16,9-32.57,10.68-49.39.67-6.74.69-14,.7-21.08,0-10.68,0-21.72,2.37-31.09.69-2.77,2.74-7.55,5.12-13.09,3-7.09,8.74-20.37,9.35-26.8l-.3.42a47.21,47.21,0,0,1-7.32,8.83,2,2,0,0,1-2.54.06c-4.41-3.47-2.61-8.11-1.29-11.51,1.06-2.74,1.6-4.48,1.14-5.89l-.31.27a11,11,0,0,0-1.9,1.9,2,2,0,0,1-3.56-.51,5.75,5.75,0,0,0-1-1.71c-.18.94-.33,2-.46,2.9-.7,4.82-1.43,9.8-5.27,10.52-4.22.79-6-4.49-7.52-9.14-.25-.74-.53-1.6-.82-2.39-1.09,2.55-.47,5.29.53,9s2.11,7.88.23,12.08a2,2,0,0,1-2.67,1,37.71,37.71,0,0,1-5.37-3.32C557.38,141,554.37,139.1,551.32,140Zm334.79,44.19a10.15,10.15,0,0,0-3.23.41c-3.35,1.18-5.78,3-5.93,4.46-.1,1,1,2.23,3.06,3.44a2,2,0,0,1,.54,3c-5.63,7-11.83,31-5.47,41.13,2.46,3.92,6.53,5.17,12.42,3.82,10.4-2.38,19.82-19,19.34-29.75a9.89,9.89,0,0,0-.76-1.29c-2-3-5.66-4.41-9.5-6-3.63-1.46-7.39-3-10.19-5.89a2,2,0,0,1,.07-2.83,10.58,10.58,0,0,1,11.74-2.31c6.27,2.5,11.9,10.3,12.57,17.3,2,4.86.59,9.82-.66,14.29-.2.69-.39,1.38-.57,2.06a2,2,0,0,1,1.75-.91,7.16,7.16,0,0,0,6.61-3.35,7.67,7.67,0,0,0,.44-7l-.94-.11a17.52,17.52,0,0,0-1.86-.17,2,2,0,0,1-1.8-2.83c2.49-5.5,2.82-10.38,1-14.51-2-4.5-6.53-8-13.1-10.08C897.29,185.66,890.59,184.18,886.11,184.18Zm44.56,44.22a9,9,0,0,0,2.35,4c2.29,2.21,6.64,2,10.87,1.81l-.1,0c-8.63-2.12-7.8-7.74-7.19-11.84a24.1,24.1,0,0,0,.34-3.35A89.3,89.3,0,0,1,930.66,228.4Zm9-14.6c1.82,3,1.33,6.34.93,9.08-.6,4.08-.9,6.12,4.19,7.37,6.24,1.54,13.27-7.09,17-11.72l.47-.58c6.44-7.86,11-18.27,15.4-28.35,2.58-5.9,5.25-12,8.27-17.52,6.34-11.57,15-27.41,27.15-37.7,2.45-2.08,6.82-4.34,11.88-7,7.67-4,19-9.85,20.12-14.58-3.93-1.88-8.69-1.95-12.89-1.74a2,2,0,0,1-1.81-3,10.07,10.07,0,0,0,.85-3.35l.1-.64a28.66,28.66,0,0,0-9.25,3.59,20.31,20.31,0,0,0-4.51,4.6c-2.42,3-5.16,6.43-9.56,6.53a2,2,0,0,1-1.86-1.16,48.36,48.36,0,0,1-2.61-7.74l-.4-1.43c-4.34,3.89-3.82,6.76-3,11.48a35.41,35.41,0,0,1,.75,9.34c-1,13.2-16.83,29.55-27.33,40.36l-1.51,1.56C957.49,186.28,947.32,199.61,939.62,213.8Zm-7.37,5.31a9.6,9.6,0,0,0-.82,1.32C931.72,220,932,219.54,932.25,219.11ZM891,196.26a34,34,0,0,0,7,3.44,52.05,52.05,0,0,1,5.65,2.53,16.56,16.56,0,0,0-7-6.13A6.53,6.53,0,0,0,891,196.26Z"/></g></svg>