<svg id="Camada_1" data-name="Camada 1" xmlns="http://www.w3.org/2000/svg" viewBox="0 0 257 145"><defs><style>.cls-1{fill:#fff;}.cls-2{fill:#b3131b;}</style></defs><title>Prancheta 1</title><rect class="cls-1" x="0.78" y="1" width="255" height="142" rx="12" ry="12"/><path id="path2997" class="cls-2" d="M108.84,126.76,9,126.79v-.24c0-.13.16-1,.35-1.9s.5-2.37.67-3.23l.67-3.26.7-3.44.68-3.38c.18-.9.48-2.37.67-3.26s.51-2.45.71-3.44l.69-3.38c.17-.86.45-2.2.61-3s.37-1.8.46-2.3.39-2,.66-3.26.57-2.76.66-3.26.39-2,.67-3.26.57-2.76.66-3.26.39-2,.67-3.26.57-2.74.66-3.2.33-1.66.53-2.66l.86-4.17c.27-1.3.73-3.55,1-5l.78-3.87L23,58.1l.66-3.2.72-3.5L25,48.07c.17-.86.47-2.3.66-3.2s.52-2.47.72-3.5.56-2.61.78-3.5.53-2,.69-2.42a22.06,22.06,0,0,1,1-2.08l.69-1.3.63-.82c.34-.45,1-1.16,1.36-1.58s1.09-1.05,1.52-1.4,1.06-.83,1.39-1.06,1-.63,1.45-.89,1.12-.6,1.45-.76,1-.44,1.51-.63,1.45-.52,2.11-.72,1.91-.51,2.77-.68,2.22-.4,3-.5l1.46-.2,99.9,0,99.9,0V23c0,.13-.16,1-.36,1.9s-.52,2.48-.73,3.48l-.66,3.2c-.16.76-.46,2.23-.67,3.26l-.72,3.5-.67,3.26c-.18.9-.48,2.37-.67,3.26s-.48,2.31-.65,3.14l-.67,3.32c-.2,1-.53,2.57-.73,3.5s-.49,2.37-.66,3.2l-.68,3.32c-.2,1-.53,2.57-.72,3.5s-.49,2.34-.65,3.14l-.67,3.32-.68,3.32-.65,3.14L236,81.36l-.67,3.26-.66,3.2-.72,3.5-.67,3.26-.68,3.32-.72,3.5-.66,3.2-.67,3.26c-.2,1-.53,2.57-.73,3.49l-.36,1.68-.43,1.16c-.24.64-.6,1.49-.8,1.89s-.61,1.1-.9,1.56-.71,1.05-.92,1.31-.84.93-1.4,1.5l-1,1-1,.7c-.54.38-1.12.77-1.29.87l-1.44.74c-.62.31-1.5.71-2,.88s-1.35.47-2,.66-1.33.37-1.53.41l-1.54.32c-.65.14-2,.34-2.9.45l-1.72.21-99.84,0ZM73.32,100.93h2.6l.07-.19a2,2,0,0,0,.07-.55c0-.2.09-.91.19-1.59s.35-2.24.55-3.47L77.45,91c.16-1,.36-2.35.44-2.93A4.25,4.25,0,0,1,78.1,87a2.06,2.06,0,0,1,.37.57l.3.57.67.67.67.67.82.33.82.33,1,.13,1,.13L85,90.37l1.25-.08,1.35-.35,1.35-.35.72-.33a14.8,14.8,0,0,0,1.57-.88l.85-.55.79-.79a18,18,0,0,0,1.36-1.54,6.87,6.87,0,0,0,.57-.82,3.45,3.45,0,0,1,.34-.57A13.52,13.52,0,0,0,96,82.39c.28-.66.73-1.86,1-2.66l.47-1.45L97.68,77c.13-.69.3-1.83.38-2.54l.14-1.28-.08-1.09L98,71l-.25-1.09-.25-1.09L97.13,68l-.41-.81-.79-.84-.79-.84-.93-.48-.93-.48-1-.25-1-.25-1-.08-1-.08L88,64.08l-1.14.13-.93.24-.93.24-.81.38a14.74,14.74,0,0,0-1.44.78,7.29,7.29,0,0,0-.8.57,3.78,3.78,0,0,1-.48.37l-.32.21.22-1.06c.12-.58.22-1.13.23-1.21v-.15H77.19L76.8,67c-.21,1.35-.55,3.43-.75,4.62l-.67,4-.66,3.93c-.2,1.16-.52,3-.73,4.11l-.66,3.56-.67,3.62c-.21,1.13-.54,2.92-.74,4s-.52,2.75-.72,3.75-.39,1.93-.43,2.08l-.07.27h2.6ZM84.5,87l-1,.06-.66-.12-.66-.12-.67-.31-.67-.31-.47-.45-.47-.45-.27-.6a8.53,8.53,0,0,1-.42-1.25L79,82.78l.06-1,.06-1,.31-1.63c.17-.9.48-2.58.68-3.75s.51-2.87.69-3.79l.32-1.67.69-.58a11.23,11.23,0,0,1,1.34-.94l.65-.37.85-.26.85-.26,1.09-.06,1.09-.06.89.19.89.19.62.29.62.29.52.53.52.53.28.56a8.14,8.14,0,0,1,.49,1.33l.2.78-.06,2.3-.06,2.3-.31,1.36c-.17.75-.5,1.89-.72,2.54l-.41,1.18-.5,1a16.8,16.8,0,0,1-1,1.58,6.77,6.77,0,0,1-.87,1c-.23.2-.62.51-.87.69l-.44.33-1,.35-1,.35-1,.06Zm25.09,3.32,1.33,0,1.33-.12c.73-.07,1.93-.21,2.66-.31s2-.33,2.81-.51l1.48-.33.07-.54c0-.3.21-1.19.37-2l.3-1.44-.07-.07-.07-.07-.45.22c-.25.12-1,.41-1.72.64l-1.27.42-1.33.26-1.33.26h-4.23l-.72-.23a11.35,11.35,0,0,1-1.3-.52l-.58-.29-.48-.43-.48-.43-.37-.65-.37-.65-.23-.82-.23-.82v-3l.21-1.35.21-1.35,1.82-.08,1.82-.08,6.72,0,6.72,0,.2-.86c.11-.47.28-1.45.38-2.17l.18-1.31V69.54l-.19-.83-.19-.83-.32-.55a7.61,7.61,0,0,0-.68-1,5.39,5.39,0,0,0-.8-.73,11.78,11.78,0,0,0-1-.63l-.6-.32-1.06-.25L117,64.2l-1.3-.12-1.3-.12-1.21.08-1.21.08-1.45.28-1.45.28-.91.36a16.79,16.79,0,0,0-1.69.81,11.86,11.86,0,0,0-1.33.89c-.3.24-.82.71-1.15,1a10.92,10.92,0,0,0-1.1,1.33,17.54,17.54,0,0,0-.92,1.57c-.24.47-.54,1.12-.68,1.45s-.39,1-.56,1.51-.44,1.45-.6,2.11-.37,1.76-.48,2.43L99.5,79.4V83l.18.79a14.8,14.8,0,0,0,.43,1.45,9.88,9.88,0,0,0,.55,1.21,6.77,6.77,0,0,0,.81,1.07,10.31,10.31,0,0,0,1.1,1,8.68,8.68,0,0,0,1.31.77l.71.32,1,.24c.54.13,1.37.29,1.83.35s1.43.11,2.17.12Zm2.28-17c-3.35,0-6.08,0-6.08-.05s.14-.45.32-.94.48-1.21.68-1.61l.36-.72.8-.79.8-.79.79-.38a9,9,0,0,1,1.27-.5,12.9,12.9,0,0,1,1.69-.2l1.21-.08.93.12.93.12.67.31.67.31.37.4a4.31,4.31,0,0,1,.54.72l.17.32.11.71.11.71-.13,1.18-.13,1.18h-6.08Zm36.15,17h1.33l1.51-.18c.83-.1,1.94-.26,2.46-.36s1.36-.3,1.87-.45a6.58,6.58,0,0,0,1-.35,5.8,5.8,0,0,0,.32-1.22c.12-.62.28-1.46.34-1.86a3.27,3.27,0,0,0,.08-.77s-.11,0-.2.07a10.62,10.62,0,0,1-1.32.55l-1.16.43-1.66.32-1.66.32-1.41,0-1.41,0-.8-.28-.8-.28-.62-.54-.62-.54-.41-.75-.41-.75-.2-1-.2-1V79l.24-1.57.24-1.57.25-.85c.14-.47.29-1,.35-1.21a13.06,13.06,0,0,1,.49-1.27c.22-.5.61-1.27.86-1.71L147,70l.57-.6.57-.6.61-.38.61-.38.78-.24a14.57,14.57,0,0,1,1.69-.38l.91-.14,1.33.07,1.33.07,1.57.31,1.57.31.64.24.67.24a7.76,7.76,0,0,0,.19-1c.08-.55.23-1.45.33-2a5.05,5.05,0,0,0,.13-1.06,6.74,6.74,0,0,0-1-.17c-.55-.06-2-.17-3.31-.25l-2.31-.13-1.63.13-1.63.13-1.21.25-1.21.25-.78.31a11.29,11.29,0,0,0-1.39.69c-.34.21-.77.48-1,.62a16.61,16.61,0,0,0-1.27,1.15l-.93.91-.52.76a19.35,19.35,0,0,0-1.09,1.93l-.58,1.17-.44,1.27c-.24.7-.58,1.84-.75,2.54l-.31,1.27L139,78.46l-.11,1.15v3l.11.88.11.88.36.9.36.9.42.65.42.65.66.65.66.65.7.37.7.37.92.26a16.36,16.36,0,0,0,1.63.36,20,20,0,0,0,2,.12Zm19.88,0,1.63,0,1-.26,1-.26.66-.31a12.61,12.61,0,0,0,1.33-.76,10.25,10.25,0,0,0,1.26-1,13.81,13.81,0,0,0,1.07-1.23,3.17,3.17,0,0,1,.52-.6,10.25,10.25,0,0,1-.14,1.24,18.18,18.18,0,0,0-.17,2v.76h4.44l.07-1.72.07-1.72L181,84c.17-1.23.46-3.05.62-4s.46-2.68.65-3.75.49-2.72.67-3.69l.32-1.75v-3l-.34-.7-.34-.7-.46-.45-.46-.45-.76-.39-.76-.39L179,64.45l-1.14-.25-1.56-.12L174.76,64l-2,.12c-1.11.07-2.67.2-3.46.3l-1.45.18h-2l-.14.69c-.08.38-.3,1.29-.49,2a10.69,10.69,0,0,0-.31,1.36,8,8,0,0,0,1.17-.27c.62-.17,2-.44,2.95-.61l1.81-.31,1.63-.07,1.63-.07,1.05.18,1.05.18.7.35.7.35L178,69l.39.59v1.85l-.21,1-.21,1-4.35,0-4.35,0-1.42.39a16.31,16.31,0,0,0-1.93.63,3,3,0,0,1-.61.24,6.9,6.9,0,0,0-1,.57l-.92.57-.73.73a11.27,11.27,0,0,0-1.13,1.33,11.42,11.42,0,0,0-.81,1.54l-.4.94-.18,1.06-.18,1.06v2.21l.18.92.18.92.33.6a7.54,7.54,0,0,0,.73,1.08l.41.48.72.44.72.44.83.23c.45.13,1.15.28,1.54.35l.71.11,1.63,0Zm1.51-3.38-1,.05-.64-.16a6.8,6.8,0,0,1-1.19-.44l-.55-.28-.3-.35a5.66,5.66,0,0,1-.56-.85l-.26-.5-.05-1.16L164.84,82l.2-.7a11.64,11.64,0,0,1,.59-1.49L166,79l.73-.73.73-.73.78-.37.78-.37,1-.23,1-.23h6l.19.08.19.08-.16.95c-.09.52-.3,1.46-.47,2.1s-.47,1.56-.66,2.06-.36.95-.36,1a6.48,6.48,0,0,1-.44.81l-.44.74-.72.72a4.93,4.93,0,0,1-.82.72,2.26,2.26,0,0,0-.54.3l-.45.3-1,.31-1,.31-1,.05Zm39.33,3.42h1.15l1.09-.18c.6-.1,1.36-.25,1.69-.35a8.92,8.92,0,0,0,1.33-.54l.72-.37.62-.55.62-.55.66-.88a10.18,10.18,0,0,0,.73-1.06l.07-.18-.06.6c0,.33-.11.88-.17,1.21s-.14,1-.19,1.42l-.08.82h4.74V88.07L222,85c.2-1.69.49-4,.65-5s.41-2.59.55-3.38.39-2.24.56-3.2.46-2.65.66-3.75l.71-3.87.66-3.56c.17-.93.48-2.56.68-3.62s.5-2.56.66-3.32.29-1.43.29-1.48v-.09h-5.17l-.08.76c0,.42-.24,1.79-.44,3.05s-.53,3.27-.72,4.47l-.43,2.58-.06.4-.2-.09c-.11,0-.72-.22-1.35-.38l-1.15-.29-1.57-.12L214.71,64l-1.33.12-1.33.12-1.21.31-1.21.31-1.15.56-1.15.56-.85.63-.85.63-.73.78a17.63,17.63,0,0,0-1.29,1.58l-.56.8-.66,1.37c-.36.75-.8,1.75-1,2.21s-.49,1.5-.69,2.29l-.37,1.45-.18,1.88L200,81.42l.14,1.51.14,1.51.16.54c.09.3.28.83.42,1.18l.26.64.47.63.47.63.53.44.53.44.72.36a10,10,0,0,0,1.49.57,13.53,13.53,0,0,0,1.51.31c.41.05,1.27.1,1.9.11Zm2.06-3.43-.91,0-.62-.11a6.71,6.71,0,0,1-1.2-.36l-.59-.25-.5-.41-.5-.41-.37-.7-.37-.7-.17-.79-.17-.79V79.25l.19-1.39.19-1.39.3-1a9.82,9.82,0,0,0,.3-1.11,5.84,5.84,0,0,1,.37-1c.2-.45.53-1.14.74-1.54a12.62,12.62,0,0,1,.87-1.38,11.71,11.71,0,0,1,1.06-1.21,8.08,8.08,0,0,1,1.11-.88l.54-.33,1-.33,1-.33h4l1.15.32c.63.18,1.3.38,1.49.45l.34.13-.07.33c0,.18-.18,1-.32,1.78s-.41,2.32-.61,3.38-.5,2.67-.67,3.56-.42,2-.55,2.54l-.41,1.53a10.05,10.05,0,0,1-.51,1.33,10.54,10.54,0,0,1-.71,1.24,6.94,6.94,0,0,1-.78.92,10.24,10.24,0,0,1-1.07.82l-.66.44-1,.3-1,.3-.91,0ZM33,89.7H35.9l.21-1.3c.12-.71.34-2.09.5-3.05l.66-4c.2-1.23.51-3.05.68-4s.44-2.54.6-3.44a15,15,0,0,1,.36-1.69l.07-.07H54.77l.09.09.09.09-.14.7c-.08.38-.3,1.57-.49,2.63l-.74,4c-.21,1.13-.51,2.73-.67,3.56s-.48,2.57-.72,3.87-.43,2.42-.43,2.51v.15h5.9l.13-.76c.07-.42.19-1.16.26-1.66s.24-1.56.37-2.36l.6-3.5c.19-1.13.52-3.06.72-4.29s.51-3,.67-4,.46-2.59.66-3.62.52-2.77.72-3.87.5-2.75.67-3.69l.68-3.75c.21-1.13.47-2.45.58-2.93l.2-.88H58l-.08.57c0,.32-.19,1.2-.32,2s-.37,2.12-.53,3-.46,2.61-.65,3.81-.45,2.78-.56,3.52l-.2,1.34-4.38.09-4.38.09-3.67-.09c-2,0-3.68-.1-3.69-.11a10.25,10.25,0,0,1,.15-1c.1-.56.28-1.54.41-2.17s.37-1.88.54-2.78.36-2,.43-2.48.2-1.24.3-1.72.29-1.5.43-2.26.28-1.47.32-1.57l.07-.19H36.21L36,55.47c-.1.58-.24,1.41-.31,1.84s-.29,1.82-.49,3.08l-.67,4.17-.66,4.17c-.2,1.26-.53,3.22-.74,4.35s-.5,2.73-.66,3.56l-.67,3.5c-.21,1.1-.51,2.65-.68,3.44s-.34,1.72-.4,2.05-.24,1.29-.42,2.13S30,89.39,30,89.5v.2H33Zm32.5,0h2.6l.07-.19a2.26,2.26,0,0,0,.07-.61c0-.23.16-1.44.36-2.68s.53-3.26.73-4.49.5-3,.67-4,.46-2.57.65-3.56.49-2.55.66-3.44.5-2.6.74-3.79.46-2.21.5-2.27l.07-.11-2.63,0-2.63,0L67.1,66.2c-.12.86-.38,2.58-.58,3.81s-.51,3.11-.68,4.17-.47,2.78-.66,3.81l-.66,3.5c-.17.9-.47,2.47-.67,3.5s-.47,2.39-.6,3-.27,1.27-.31,1.42l-.07.27h2.6Zm60.79,0h2.58l.08-1.09c0-.6.19-1.81.32-2.69s.41-2.63.62-3.89.58-3.36.84-4.67.55-2.6.65-2.88a3.31,3.31,0,0,0,.18-.68,6.4,6.4,0,0,1,.43-1.1,15,15,0,0,1,1-1.75l.55-.82.74-.68.74-.68.91-.43.91-.43h2.78l.68.2c.38.11.72.2.76.2s.07-.13.07-.29.14-1,.3-1.77.3-1.52.3-1.56a3.22,3.22,0,0,0-.88-.34,11,11,0,0,0-1.48-.34l-.6-.07-.79.14a10.14,10.14,0,0,0-1.43.37,8.12,8.12,0,0,0-1.3.65,9.33,9.33,0,0,0-1.24,1,14.21,14.21,0,0,0-1.21,1.42L132,68.61l-.17.24.11-.48c.06-.27.22-1.14.36-1.93s.28-1.55.32-1.66l.06-.21H128v.29c0,.16-.14,1.13-.3,2.14s-.44,2.72-.61,3.79-.47,2.91-.67,4.11-.5,2.91-.67,3.81l-.67,3.5c-.2,1-.53,2.72-.73,3.75s-.45,2.25-.54,2.7-.17.88-.17.94v.11h2.58Zm61.24,0h2.64V88.08l.3-2c.17-1.1.44-2.84.61-3.87s.38-2.34.47-2.9.32-1.79.52-2.72.45-1.94.55-2.24a3.82,3.82,0,0,0,.19-.7,8.15,8.15,0,0,1,.5-1.21l.5-1.05.66-.87.66-.87.72-.54a10.45,10.45,0,0,1,1.41-.88l.69-.34h3l.59.19.59.19.1-.06.1-.06v-.39a15.76,15.76,0,0,1,.29-1.75l.28-1.37-.32-.12-.92-.31-.6-.19h-2.17l-.89.31-.89.31-.67.4-.67.4-.87.91-.87.91-.46.7a3.37,3.37,0,0,1-.5.66s.12-.83.31-1.79.35-1.87.35-2v-.27h-4.47v.08s-.11.82-.25,1.72-.41,2.65-.61,3.88-.52,3.21-.72,4.41-.5,2.91-.67,3.81l-.66,3.5c-.2,1-.52,2.69-.72,3.69l-.58,2.93-.22,1.12h2.64ZM70.57,60.21h.73l.58-.2.58-.2.52-.52.52-.52.27-.7.27-.7V55.32l-.24-.4-.24-.4-.42-.26L72.74,54H70.92l-.62.28-.62.28-.36.38-.36.38-.28.66-.28.66-.05,1-.05,1,.26.51.26.51.51.23.51.23h.73Z"/></svg>