<svg id="Camada_1" data-name="Camada 1" xmlns="http://www.w3.org/2000/svg" viewBox="0 0 257 145"><defs><style>.cls-1{fill:#edeeef;}.cls-2{fill:none;}.cls-3{fill:#231f20;}.cls-4{fill:#ff5f00;}.cls-5{fill:#eb001b;}.cls-6{fill:#f79e1b;}</style></defs><title>Prancheta 1</title><rect class="cls-1" x="0.78" y="1" width="255" height="142" rx="12" ry="12"/><g id="Layer_2" data-name="Layer 2"><g id="Layer_1-2" data-name="Layer 1-2"><rect class="cls-2" x="45.85" y="4.71" width="165.31" height="135.59"/><path class="cls-3" d="M86.78,123.24v-6.76a4,4,0,0,0-4.23-4.28,4.17,4.17,0,0,0-3.78,1.91,4,4,0,0,0-3.56-1.91,3.56,3.56,0,0,0-3.15,1.6v-1.33H69.71v10.77h2.36v-5.92a2.52,2.52,0,0,1,2.64-2.86c1.55,0,2.34,1,2.34,2.84v6h2.36v-6A2.53,2.53,0,0,1,82,114.45c1.6,0,2.36,1,2.36,2.84v6Zm35-10.77h-3.85V109.2h-2.36v3.27h-2.14v2.14h2.18v5c0,2.5,1,4,3.74,4a5.5,5.5,0,0,0,2.93-.83l-.68-2a4.32,4.32,0,0,1-2.07.61c-1.13,0-1.55-.72-1.55-1.8v-4.91h3.83Zm20-.27a3.18,3.18,0,0,0-2.84,1.58v-1.31h-2.32v10.77h2.34v-6c0-1.78.77-2.77,2.25-2.77a3.82,3.82,0,0,1,1.46.27l.72-2.25a5,5,0,0,0-1.67-.29Zm-30.2,1.13a8.05,8.05,0,0,0-4.39-1.13c-2.73,0-4.5,1.31-4.5,3.45,0,1.76,1.31,2.84,3.72,3.18l1.13.16c1.28.18,1.89.52,1.89,1.13,0,.83-.86,1.31-2.45,1.31a5.73,5.73,0,0,1-3.58-1.13l-1.13,1.82a7.77,7.77,0,0,0,4.66,1.4c3.11,0,4.91-1.46,4.91-3.51s-1.42-2.88-3.76-3.22l-1.13-.16c-1-.14-1.82-.34-1.82-1.06s.77-1.26,2-1.26a6.94,6.94,0,0,1,3.38.92Zm62.73-1.13a3.18,3.18,0,0,0-2.84,1.58v-1.31h-2.32v10.77h2.34v-6c0-1.78.77-2.77,2.25-2.77a3.82,3.82,0,0,1,1.46.27l.72-2.25a5,5,0,0,0-1.67-.29Zm-30.18,5.63a5.44,5.44,0,0,0,5.24,5.64h.51a5.63,5.63,0,0,0,3.87-1.28l-1.13-1.89a4.73,4.73,0,0,1-2.82,1,3.46,3.46,0,0,1,0-6.89,4.73,4.73,0,0,1,2.82,1l1.13-1.89a5.63,5.63,0,0,0-3.87-1.28,5.44,5.44,0,0,0-5.74,5.12q0,.25,0,.51Zm21.94,0v-5.36h-2.34v1.31a4.09,4.09,0,0,0-3.38-1.58,5.63,5.63,0,0,0,0,11.26,4.09,4.09,0,0,0,3.38-1.58v1.31H166Zm-8.72,0a3.23,3.23,0,1,1,0,.26Q157.31,118,157.32,117.83Zm-28.26-5.63a5.63,5.63,0,0,0,.16,11.26h0a6.54,6.54,0,0,0,4.47-1.46l-1.13-1.73a5.12,5.12,0,0,1-3.13,1.13,3,3,0,0,1-3.22-2.63h8v-.9c0-3.38-2.09-5.63-5.11-5.63Zm0,2.09a2.67,2.67,0,0,1,2.73,2.61h-5.63a2.77,2.77,0,0,1,2.86-2.61Zm58.68,3.56v-9.71h-2.25v5.63a4.09,4.09,0,0,0-3.38-1.58,5.63,5.63,0,0,0,0,11.26,4.09,4.09,0,0,0,3.38-1.58v1.31h2.25Zm3.91,3.82a1.08,1.08,0,0,1,1,.64,1,1,0,0,1,0,.83,1.08,1.08,0,0,1-.59.56,1.06,1.06,0,0,1-.43.09,1.13,1.13,0,0,1-1-.65,1.06,1.06,0,0,1,0-.83,1.09,1.09,0,0,1,1-.64Zm0,1.9a.8.8,0,0,0,.33-.07.84.84,0,0,0,.26-.18A.81.81,0,0,0,192,122a.81.81,0,0,0-.33-.07.84.84,0,0,0-.33.07.82.82,0,0,0-.27.18.82.82,0,0,0,.63,1.37Zm.07-1.34a.45.45,0,0,1,.29.09.28.28,0,0,1,.1.24.27.27,0,0,1-.08.2.39.39,0,0,1-.24.1l.33.37h-.26l-.3-.37h-.1v.37h-.21v-1Zm-.25.19v.27h.25a.24.24,0,0,0,.14,0,.11.11,0,0,0,0-.1.11.11,0,0,0,0-.1.24.24,0,0,0-.14,0Zm-12.39-4.57a3.23,3.23,0,1,1,0,.26Q179.06,118,179.07,117.85Zm-79.08,0v-5.38H97.65v1.31a4.09,4.09,0,0,0-3.38-1.58,5.63,5.63,0,0,0,0,11.26,4.09,4.09,0,0,0,3.38-1.58v1.31H100Zm-8.72,0a3,3,0,1,1,0,.28q0-.14,0-.28Z"/><g id="_Group_" data-name=" Group "><rect class="cls-4" x="110.76" y="30.44" width="35.47" height="63.75"/><path id="_Path_" data-name=" Path " class="cls-5" d="M113,62.31A40.47,40.47,0,0,1,128.5,30.44a40.54,40.54,0,1,0,0,63.75A40.47,40.47,0,0,1,113,62.31Z"/><path class="cls-6" d="M194.09,62.31A40.54,40.54,0,0,1,128.5,94.18a40.54,40.54,0,0,0,0-63.75A40.54,40.54,0,0,1,194.09,62.3Z"/><path class="cls-6" d="M190.22,87.43V86.12h.53v-.27h-1.34v.27H190v1.31Zm2.6,0V85.85h-.41L191.94,87l-.47-1.13h-.36v1.58h.29V86.24l.44,1h.3l.44-1v1.19Z"/></g></g></g></svg>