<svg xmlns="http://www.w3.org/2000/svg" viewBox="0 0 283 119"><defs><style>.cls-1{fill:#db3f4b;}.cls-2{fill:#f53237;}</style></defs><title>Prancheta 1</title><g id="Camada_2" data-name="Camada 2"><path class="cls-1" d="M33,60.09v51.82S61,114,61,88c0-19.06,0-24.93,0-31.48V33.29S61,56,33,60.09Z"/><path class="cls-2" d="M60.4,27.33A28.52,28.52,0,0,0,37.17,4.1H5V23.77A8,8,0,0,1,5,39.83V84.51H33V60.09C66.51,55.93,60.78,27.36,60.4,27.33Z"/><path class="cls-2" d="M103,21.73c2.27,2.39,3.42,5.58,3.42,9.59s-1.15,7.2-3.42,9.56a11.07,11.07,0,0,1-8.27,3.56A10.23,10.23,0,0,1,86.31,40V51.73a.81.81,0,0,1-.91.91H80.17a.81.81,0,0,1-.91-.91v-32a.81.81,0,0,1,.91-.91h4.9q.67,0,.91.91l.33,2.67A11.34,11.34,0,0,1,95,18.17,10.83,10.83,0,0,1,103,21.73Zm-5.2,15.09a7.4,7.4,0,0,0,2-5.51,7.5,7.5,0,0,0-1.95-5.48A6.57,6.57,0,0,0,93,23.88a6.75,6.75,0,0,0-4.95,2,7.51,7.51,0,0,0-2,5.55,7.08,7.08,0,0,0,2,5.44,6.89,6.89,0,0,0,4.88,1.88A6.73,6.73,0,0,0,97.84,36.82Z"/><path class="cls-2" d="M135.81,18.85a.81.81,0,0,1,.91.91V43a.81.81,0,0,1-.91.91h-4.66q-.67,0-.91-.91l-.37-3.07a10.37,10.37,0,0,1-8.55,4.57A11.07,11.07,0,0,1,113,40.92c-2.27-2.37-3.42-5.55-3.42-9.56s1.15-7.2,3.45-9.59a10.9,10.9,0,0,1,8.11-3.56,11.22,11.22,0,0,1,8.74,4.29l.33-2.74q.14-.91.91-.91ZM128,36.94a7.08,7.08,0,0,0,2-5.44,7.51,7.51,0,0,0-2-5.55,6.75,6.75,0,0,0-4.95-2,6.5,6.5,0,0,0-4.83,2,7.48,7.48,0,0,0-1.95,5.46,7.41,7.41,0,0,0,2,5.48,6.66,6.66,0,0,0,4.9,2A6.89,6.89,0,0,0,128,36.94Z"/><path class="cls-2" d="M161.15,19.85,158,25.13a.91.91,0,0,1-.73.45,12.1,12.1,0,0,0-1.57-.21c-3.4,0-5,2-5.53,6.26V43a.81.81,0,0,1-.91.91h-5.13a.81.81,0,0,1-.91-.91l0-23.23a.81.81,0,0,1,.91-.91H149q.67,0,.91.91l.33,2.84a8.65,8.65,0,0,1,7.31-4.29,16.82,16.82,0,0,1,3.16.3C161.38,18.82,161.55,19.24,161.15,19.85Z"/><path class="cls-2" d="M182.5,41.93a.89.89,0,0,1-.45,1.2,13.82,13.82,0,0,1-6,1.31c-6.16,0-8.62-3.42-8.62-10.2V24.52h-3a.81.81,0,0,1-.91-.91V19.76a.81.81,0,0,1,.91-.91h3V13.27a.81.81,0,0,1,.91-.91h5.18a.81.81,0,0,1,.91.91v5.58h6.42a.81.81,0,0,1,.91.91V23.6a.81.81,0,0,1-.91.91h-6.42V34.88c0,2.93,1.17,3.89,3.54,3.89a6.27,6.27,0,0,0,2.16-.4.9.9,0,0,1,1.22.54Z"/><path class="cls-2" d="M190.45,14.67a3.86,3.86,0,0,1-2.88-1.22,3.93,3.93,0,0,1-1.2-2.88,4,4,0,0,1,1.2-2.88,3.86,3.86,0,0,1,2.88-1.22,3.94,3.94,0,0,1,2.88,1.22,4,4,0,0,1,1.2,2.88,4.12,4.12,0,0,1-4.08,4.1ZM187.8,43.9a.81.81,0,0,1-.91-.91V19.76a.81.81,0,0,1,.91-.91H193a.81.81,0,0,1,.91.91V43a.81.81,0,0,1-.91.91Z"/><path class="cls-2" d="M223.94,18.85a.81.81,0,0,1,.91.91V43a.81.81,0,0,1-.91.91h-4.85q-.77,0-.91-.91l-.33-2.44a11.34,11.34,0,0,1-8.74,3.94c-6,0-9.26-4.22-9.26-12V19.76a.81.81,0,0,1,.91-.91H206a.81.81,0,0,1,.91.91V32.49c0,3.59,1.88,5.7,5.09,5.7s5.6-2.32,5.81-7.2V19.76a.81.81,0,0,1,.91-.91Z"/><path class="cls-1" d="M115.19,62.38c1.76,2.09,2.65,5,2.65,8.84V84a.81.81,0,0,1-.91.91H111.7a.81.81,0,0,1-.91-.91V71.21c0-3.59-1.83-5.65-5-5.65-3.47,0-5.81,2.27-6,7.15V84a.81.81,0,0,1-.91.91H93.6a.81.81,0,0,1-.91-.91V60.76a.81.81,0,0,1,.91-.91h4.9q.67,0,.91.91l.28,2.39a10.68,10.68,0,0,1,8.37-3.89A8.88,8.88,0,0,1,115.19,62.38Z"/><path class="cls-1" d="M147.84,59.8a.81.81,0,0,1,.91.91V83c0,3.75-1.27,6.66-3.82,8.7a15.16,15.16,0,0,1-9.75,3.07,21.2,21.2,0,0,1-9.94-2.34.83.83,0,0,1-.49-1.17L126,88a.74.74,0,0,1,1.2-.47,14.5,14.5,0,0,0,7.15,2,8.8,8.8,0,0,0,5.3-1.48,4.77,4.77,0,0,0,2-4.05V79.58a9.91,9.91,0,0,1-8.16,4.12,11.15,11.15,0,0,1-8.13-3.33A11.85,11.85,0,0,1,122,71.49a12.06,12.06,0,0,1,3.35-8.91,10.92,10.92,0,0,1,16.45.87l.35-2.74q.14-.91.91-.91Zm-8,16.78a6.35,6.35,0,0,0,1.83-4.95,6.89,6.89,0,0,0-1.87-5.11,6.36,6.36,0,0,0-4.64-1.83,6.18,6.18,0,0,0-4.52,1.76,6.76,6.76,0,0,0-1.78,5,6.69,6.69,0,0,0,1.78,5,6.22,6.22,0,0,0,4.62,1.78A6.58,6.58,0,0,0,139.82,76.58Z"/><path class="cls-1" d="M173.17,60.85,170,66.13a.91.91,0,0,1-.73.45,12.1,12.1,0,0,0-1.57-.21c-3.4,0-5,2-5.53,6.26V84a.81.81,0,0,1-.91.91h-5.13a.81.81,0,0,1-.91-.91l0-23.23a.81.81,0,0,1,.91-.91H161q.67,0,.91.91l.33,2.84a8.65,8.65,0,0,1,7.31-4.29,16.82,16.82,0,0,1,3.16.3C173.41,59.82,173.57,60.24,173.17,60.85Z"/><path class="cls-1" d="M195.11,62.82a13.13,13.13,0,0,1,3.45,9.45c0,.45,0,.8,0,1.05a.91.91,0,0,1-1,.87H180.13c.63,4,3.09,6,7.38,6A8.29,8.29,0,0,0,194.24,77a.8.8,0,0,1,1.29,0l2.23,2.16a1,1,0,0,1-.14,1.5,14.29,14.29,0,0,1-20.25,1.22,12.52,12.52,0,0,1-3.7-9.33,13.58,13.58,0,0,1,3.45-9.42,12.73,12.73,0,0,1,18-.23ZM180,69.92h12.52c-.45-3.59-2.7-5.51-6.09-5.51A6,6,0,0,0,180,69.92Z"/><path class="cls-1" d="M206.13,84.31a11.24,11.24,0,0,1-4.2-2.58.87.87,0,0,1-.09-1.29l1.76-2.84c.3-.52.77-.59,1.36-.19a9.3,9.3,0,0,0,3.21,1.76,12,12,0,0,0,3.89.68c2.63,0,4.13-1,4.13-2.65,0-1.15-1.12-1.9-2.13-2.16-.49-.12-1.34-.3-2.53-.52a17.45,17.45,0,0,1-7-2.53,5.82,5.82,0,0,1-2.44-5.06,6.68,6.68,0,0,1,2.72-5.65,11.93,11.93,0,0,1,7.36-2A15,15,0,0,1,221.08,62c.52.3.59.75.19,1.29L219.48,66a.92.92,0,0,1-1.29.28,9.83,9.83,0,0,0-5.72-1.71q-4.08,0-4.08,2.25c0,1,1.1,1.71,2.18,2,.54.14,1.29.3,2.3.49a2.11,2.11,0,0,1,.52.12,18.13,18.13,0,0,1,6.84,2.6,5.79,5.79,0,0,1,2.27,5,7.45,7.45,0,0,1-2.72,6c-1.83,1.52-4.38,2.27-7.69,2.27A16.65,16.65,0,0,1,206.13,84.31Z"/><path class="cls-1" d="M229.87,84.31a11.24,11.24,0,0,1-4.2-2.58.87.87,0,0,1-.09-1.29l1.76-2.84c.3-.52.77-.59,1.36-.19a9.3,9.3,0,0,0,3.21,1.76,12,12,0,0,0,3.89.68c2.63,0,4.13-1,4.13-2.65,0-1.15-1.12-1.9-2.13-2.16-.49-.12-1.34-.3-2.53-.52a17.45,17.45,0,0,1-7-2.53,5.82,5.82,0,0,1-2.44-5.06,6.68,6.68,0,0,1,2.72-5.65,11.93,11.93,0,0,1,7.36-2A15,15,0,0,1,244.82,62c.52.3.59.75.19,1.29L243.23,66a.92.92,0,0,1-1.29.28,9.83,9.83,0,0,0-5.72-1.71q-4.08,0-4.08,2.25c0,1,1.1,1.71,2.18,2,.54.14,1.29.3,2.3.49a2.11,2.11,0,0,1,.52.12,18.13,18.13,0,0,1,6.84,2.6,5.79,5.79,0,0,1,2.27,5,7.45,7.45,0,0,1-2.72,6c-1.83,1.52-4.38,2.27-7.69,2.27A16.65,16.65,0,0,1,229.87,84.31Z"/><path class="cls-1" d="M252.86,81.78a12.9,12.9,0,0,1-3.63-9.47,13.08,13.08,0,1,1,26.16,0,12.57,12.57,0,0,1-13.1,13.12A12.68,12.68,0,0,1,252.86,81.78Zm9.42-2.11a7,7,0,0,0,5-2,7.1,7.1,0,0,0,2.09-5.39A6.94,6.94,0,0,0,267.27,67a7.07,7.07,0,0,0-5-1.95,7.52,7.52,0,0,0-4.95,12.68A6.92,6.92,0,0,0,262.28,79.67Z"/><rect class="cls-1" x="79.21" y="59.85" width="7.05" height="25.05" rx="0.91" ry="0.91"/></g></svg>