<svg id="Camada_1" data-name="Camada 1" xmlns="http://www.w3.org/2000/svg" viewBox="0 0 283 119"><defs><style>.cls-1{fill:#f4f7f0;}.cls-2{fill:#fcfbfc;}</style></defs><title>Prancheta 1</title><path class="cls-1" d="M102,27.66c2.27,2.39,3.42,5.58,3.42,9.59s-1.15,7.2-3.42,9.56a11.07,11.07,0,0,1-8.27,3.56,10.23,10.23,0,0,1-8.46-4.48V57.66a.81.81,0,0,1-.91.91H79.17a.81.81,0,0,1-.91-.91v-32a.81.81,0,0,1,.91-.91h4.9q.67,0,.91.91l.33,2.67A11.34,11.34,0,0,1,94,24.1,10.83,10.83,0,0,1,102,27.66Zm-5.2,15.09a7.4,7.4,0,0,0,2-5.51,7.5,7.5,0,0,0-1.95-5.48A6.57,6.57,0,0,0,92,29.82a6.75,6.75,0,0,0-4.95,2,7.51,7.51,0,0,0-2,5.55,7.08,7.08,0,0,0,2,5.44,6.89,6.89,0,0,0,4.88,1.88A6.73,6.73,0,0,0,96.84,42.76Z"/><path class="cls-1" d="M134.81,24.78a.81.81,0,0,1,.91.91V48.92a.81.81,0,0,1-.91.91h-4.66q-.67,0-.91-.91l-.37-3.07a10.37,10.37,0,0,1-8.55,4.57A11.07,11.07,0,0,1,112,46.86c-2.27-2.37-3.42-5.55-3.42-9.56s1.15-7.2,3.45-9.59a10.9,10.9,0,0,1,8.11-3.56,11.22,11.22,0,0,1,8.74,4.29l.33-2.74q.14-.91.91-.91ZM127,42.87a7.08,7.08,0,0,0,2-5.44,7.51,7.51,0,0,0-2-5.55,6.75,6.75,0,0,0-4.95-2,6.5,6.5,0,0,0-4.83,2,7.48,7.48,0,0,0-1.95,5.46,7.41,7.41,0,0,0,2,5.48,6.66,6.66,0,0,0,4.9,2A6.89,6.89,0,0,0,127,42.87Z"/><path class="cls-1" d="M160.15,25.79,157,31.06a.91.91,0,0,1-.73.45,12.1,12.1,0,0,0-1.57-.21c-3.4,0-5,2-5.53,6.26V48.92a.81.81,0,0,1-.91.91h-5.13a.81.81,0,0,1-.91-.91l0-23.23a.81.81,0,0,1,.91-.91H148q.67,0,.91.91l.33,2.84a8.65,8.65,0,0,1,7.31-4.29,16.82,16.82,0,0,1,3.16.3C160.38,24.76,160.55,25.18,160.15,25.79Z"/><path class="cls-1" d="M181.5,47.87a.89.89,0,0,1-.45,1.2,13.82,13.82,0,0,1-6,1.31c-6.16,0-8.62-3.42-8.62-10.2V30.45h-3a.81.81,0,0,1-.91-.91V25.69a.81.81,0,0,1,.91-.91h3V19.2a.81.81,0,0,1,.91-.91h5.18a.81.81,0,0,1,.91.91v5.58h6.42a.81.81,0,0,1,.91.91v3.84a.81.81,0,0,1-.91.91h-6.42V40.81c0,2.93,1.17,3.89,3.54,3.89a6.27,6.27,0,0,0,2.16-.4.9.9,0,0,1,1.22.54Z"/><path class="cls-1" d="M189.45,20.61a3.86,3.86,0,0,1-2.88-1.22,3.93,3.93,0,0,1-1.2-2.88,4,4,0,0,1,1.2-2.88,3.86,3.86,0,0,1,2.88-1.22,3.94,3.94,0,0,1,2.88,1.22,4,4,0,0,1,1.2,2.88,4.12,4.12,0,0,1-4.08,4.1ZM186.8,49.83a.81.81,0,0,1-.91-.91V25.69a.81.81,0,0,1,.91-.91H192a.81.81,0,0,1,.91.91V48.92a.81.81,0,0,1-.91.91Z"/><path class="cls-1" d="M222.94,24.78a.81.81,0,0,1,.91.91V48.92a.81.81,0,0,1-.91.91h-4.85q-.77,0-.91-.91l-.33-2.44a11.34,11.34,0,0,1-8.74,3.94c-6,0-9.26-4.22-9.26-12V25.69a.81.81,0,0,1,.91-.91H205a.81.81,0,0,1,.91.91V38.42c0,3.59,1.88,5.7,5.09,5.7s5.6-2.32,5.81-7.2V25.69a.81.81,0,0,1,.91-.91Z"/><path class="cls-1" d="M61.54,35.75a26.51,26.51,0,0,0-7.29-18.1A27.7,27.7,0,0,0,34.16,9H13.87A6.07,6.07,0,0,0,7.8,15V77.72a6.07,6.07,0,0,0,6.07,6.07H32v21.59a2.72,2.72,0,0,0,.81,1.89l0,0a2.58,2.58,0,0,0,1.83.75h0A26.91,26.91,0,0,0,61.54,81.19V35.85A.82.82,0,0,0,61.54,35.75Zm-5.23,1.42A21.69,21.69,0,0,1,34.68,57.52h0a2.6,2.6,0,0,0-2.6,2.6V78.59H13.87a.87.87,0,0,1-.87-.87V15a.87.87,0,0,1,.87-.87H34.16a22.48,22.48,0,0,1,16.3,7A21.22,21.22,0,0,1,56.31,37.17ZM37.23,62.59A27,27,0,0,0,56.35,51.72V81.19a21.82,21.82,0,0,1-19.11,21.52Zm-2.51,44.86Z"/><path class="cls-2" d="M114.19,68.31c1.76,2.09,2.65,5,2.65,8.84V89.92a.81.81,0,0,1-.91.91H110.7a.81.81,0,0,1-.91-.91V77.15c0-3.59-1.83-5.65-5-5.65-3.47,0-5.81,2.27-6,7.15V89.92a.81.81,0,0,1-.91.91H92.6a.81.81,0,0,1-.91-.91V66.69a.81.81,0,0,1,.91-.91h4.9q.67,0,.91.91l.28,2.39a10.68,10.68,0,0,1,8.37-3.89A8.88,8.88,0,0,1,114.19,68.31Z"/><path class="cls-2" d="M146.84,65.73a.81.81,0,0,1,.91.91V89c0,3.75-1.27,6.66-3.82,8.7a15.16,15.16,0,0,1-9.75,3.07,21.2,21.2,0,0,1-9.94-2.34.83.83,0,0,1-.49-1.17l1.27-3.3a.74.74,0,0,1,1.2-.47,14.5,14.5,0,0,0,7.15,2,8.8,8.8,0,0,0,5.3-1.48,4.77,4.77,0,0,0,2-4.05V85.51a9.91,9.91,0,0,1-8.16,4.13,11.15,11.15,0,0,1-8.13-3.33A11.85,11.85,0,0,1,121,77.43a12.06,12.06,0,0,1,3.35-8.91,10.92,10.92,0,0,1,16.45.87l.35-2.74q.14-.91.91-.91Zm-8,16.78a6.35,6.35,0,0,0,1.83-4.95,6.89,6.89,0,0,0-1.87-5.11,6.36,6.36,0,0,0-4.64-1.83,6.18,6.18,0,0,0-4.52,1.76,6.76,6.76,0,0,0-1.78,5,6.69,6.69,0,0,0,1.78,5,6.22,6.22,0,0,0,4.62,1.78A6.58,6.58,0,0,0,138.82,82.51Z"/><path class="cls-2" d="M172.17,66.79,169,72.06a.91.91,0,0,1-.73.45,12.1,12.1,0,0,0-1.57-.21c-3.4,0-5,2-5.53,6.26V89.92a.81.81,0,0,1-.91.91h-5.13a.81.81,0,0,1-.91-.91l0-23.23a.81.81,0,0,1,.91-.91H160q.67,0,.91.91l.33,2.84a8.65,8.65,0,0,1,7.31-4.29,16.82,16.82,0,0,1,3.16.3C172.41,65.76,172.57,66.18,172.17,66.79Z"/><path class="cls-2" d="M194.11,68.76a13.13,13.13,0,0,1,3.45,9.45c0,.45,0,.8,0,1.05a.91.91,0,0,1-1,.87H179.13c.63,4,3.09,6,7.38,6a8.29,8.29,0,0,0,6.73-3.21.8.8,0,0,1,1.29,0L196.76,85a1,1,0,0,1-.14,1.5,14.29,14.29,0,0,1-20.25,1.22,12.52,12.52,0,0,1-3.7-9.33A13.58,13.58,0,0,1,176.11,69a12.73,12.73,0,0,1,18-.23ZM179,75.86h12.52c-.45-3.59-2.7-5.51-6.09-5.51A6,6,0,0,0,179,75.86Z"/><path class="cls-2" d="M205.13,90.25a11.24,11.24,0,0,1-4.2-2.58.87.87,0,0,1-.09-1.29l1.76-2.84c.3-.52.77-.59,1.36-.19a9.3,9.3,0,0,0,3.21,1.76,12,12,0,0,0,3.89.68c2.63,0,4.13-1,4.13-2.65,0-1.15-1.12-1.9-2.13-2.16-.49-.12-1.34-.3-2.53-.52a17.45,17.45,0,0,1-7-2.53,5.82,5.82,0,0,1-2.44-5.06,6.68,6.68,0,0,1,2.72-5.65,11.93,11.93,0,0,1,7.36-2,15,15,0,0,1,8.93,2.74c.52.3.59.75.19,1.29L218.48,72a.92.92,0,0,1-1.29.28,9.83,9.83,0,0,0-5.72-1.71q-4.08,0-4.08,2.25c0,1,1.1,1.71,2.18,2,.54.14,1.29.3,2.3.49a2.11,2.11,0,0,1,.52.12,18.13,18.13,0,0,1,6.84,2.6,5.79,5.79,0,0,1,2.27,5,7.46,7.46,0,0,1-2.72,6c-1.83,1.52-4.38,2.27-7.69,2.27A16.65,16.65,0,0,1,205.13,90.25Z"/><path class="cls-2" d="M228.87,90.25a11.24,11.24,0,0,1-4.2-2.58.87.87,0,0,1-.09-1.29l1.76-2.84c.3-.52.77-.59,1.36-.19a9.3,9.3,0,0,0,3.21,1.76,12,12,0,0,0,3.89.68c2.63,0,4.13-1,4.13-2.65,0-1.15-1.12-1.9-2.13-2.16-.49-.12-1.34-.3-2.53-.52a17.45,17.45,0,0,1-7-2.53,5.82,5.82,0,0,1-2.44-5.06,6.68,6.68,0,0,1,2.72-5.65,11.93,11.93,0,0,1,7.36-2,15,15,0,0,1,8.93,2.74c.52.3.59.75.19,1.29L242.23,72a.92.92,0,0,1-1.29.28,9.83,9.83,0,0,0-5.72-1.71q-4.08,0-4.08,2.25c0,1,1.1,1.71,2.18,2,.54.14,1.29.3,2.3.49a2.11,2.11,0,0,1,.52.12A18.13,18.13,0,0,1,243,78a5.79,5.79,0,0,1,2.27,5,7.46,7.46,0,0,1-2.72,6c-1.83,1.52-4.38,2.27-7.69,2.27A16.65,16.65,0,0,1,228.87,90.25Z"/><path class="cls-2" d="M251.86,87.72a12.9,12.9,0,0,1-3.63-9.47,13.08,13.08,0,1,1,26.16,0,12.57,12.57,0,0,1-13.1,13.13A12.68,12.68,0,0,1,251.86,87.72Zm9.42-2.11a7,7,0,0,0,5-2,7.1,7.1,0,0,0,2.09-5.39,6.94,6.94,0,0,0-2.06-5.34,7.07,7.07,0,0,0-5-1.95,7.52,7.52,0,0,0-4.95,12.68A6.92,6.92,0,0,0,261.28,85.61Z"/><rect class="cls-2" x="78.21" y="65.78" width="7.05" height="25.05" rx="0.91" ry="0.91"/></svg>