<svg xmlns="http://www.w3.org/2000/svg" viewBox="0 0 209 56"><defs><style>.cls-1{fill:#141419;}.cls-2{fill:#3c3d4c;}</style></defs><title>Prancheta 1</title><g id="Camada_1" data-name="Camada 1"><path d="M16.66,2.39a13,13,0,0,1,9,3A10.1,10.1,0,0,1,29,13.34a10,10,0,0,1-3.4,7.9,13.11,13.11,0,0,1-9,3h-5V34.8a1.06,1.06,0,0,1-1.2,1.2H3.41a1.06,1.06,0,0,1-1.2-1.2V3.61a1.08,1.08,0,0,1,1.2-1.22Zm0,14.18a3.12,3.12,0,0,0,2.58-1.08,3.54,3.54,0,0,0,.89-2.3,3.3,3.3,0,0,0-.91-2.25,3.24,3.24,0,0,0-2.55-1h-5v6.63Z"/><path d="M58.22,34.62c.38.84,0,1.38-1,1.38H49.48a1.32,1.32,0,0,1-1.38-.91L46.83,32H35.56l-1.34,3.07a1.44,1.44,0,0,1-1.41.91H24.94c-1,0-1.24-.47-.89-1.38L38,3.3a1.44,1.44,0,0,1,1.38-.91h4.22A1.37,1.37,0,0,1,45,3.3ZM41.37,16.52,38.3,25.15h6Z"/><path d="M87.29,34.57c.45.77.09,1.43-.87,1.43H79.56a1.43,1.43,0,0,1-1.38-.87l-5.41-10.9H68.28V34.8a1.06,1.06,0,0,1-1.2,1.2H60a1.06,1.06,0,0,1-1.2-1.2V3.61A1.08,1.08,0,0,1,60,2.39H73.28a13,13,0,0,1,9,3,10.1,10.1,0,0,1,3.42,7.92,9.9,9.9,0,0,1-4.92,9Zm-19-24.63v6.63h5a3.12,3.12,0,0,0,2.58-1.08,3.54,3.54,0,0,0,.89-2.3,3.3,3.3,0,0,0-.91-2.25,3.24,3.24,0,0,0-2.55-1Z"/><path d="M114.16,2.39a1.09,1.09,0,0,1,1.22,1.22V10a1.06,1.06,0,0,1-1.22,1.2H105.3V34.8a1.06,1.06,0,0,1-1.22,1.2H97a1.06,1.06,0,0,1-1.2-1.2V11.18H86.9a1.06,1.06,0,0,1-1.2-1.2V3.61a1.08,1.08,0,0,1,1.2-1.22Z"/><path d="M117.57,36a1.06,1.06,0,0,1-1.2-1.2V3.61a1.08,1.08,0,0,1,1.2-1.22h7.1a1.06,1.06,0,0,1,1.2,1.22V34.8a1.06,1.06,0,0,1-1.2,1.2Z"/><path d="M143.15,36.42q-6.68,0-10.57-4.29t-3.89-11.48v-17a1.08,1.08,0,0,1,1.2-1.22h7.05a1.06,1.06,0,0,1,1.2,1.22v17c0,4.41,1.55,6.33,5,6.33s4.92-1.92,4.92-6.33v-17a1.08,1.08,0,0,1,1.2-1.22h7.05a1.09,1.09,0,0,1,1.22,1.22v17q0,7.21-3.87,11.48T143.15,36.42Z"/><path d="M3.3,38.66a.74.74,0,1,1,.75.74A.75.75,0,0,1,3.3,38.66Zm.45,11.92a.11.11,0,0,1-.12-.12V41.87a.11.11,0,0,1,.12-.12h.6a.11.11,0,0,1,.12.12v8.59a.11.11,0,0,1-.12.12Z"/><path d="M17.85,42.59a4.55,4.55,0,0,1,1,3.14v4.73a.11.11,0,0,1-.12.12h-.59a.12.12,0,0,1-.13-.12V45.73c0-2.25-1.1-3.46-2.93-3.46s-3,1.18-3.33,3.35v4.85a.11.11,0,0,1-.12.12H11a.11.11,0,0,1-.12-.12V41.87a.11.11,0,0,1,.12-.12h.49c.06,0,.1,0,.13.12l.09,1.75a3.73,3.73,0,0,1,3.53-2.11A3.36,3.36,0,0,1,17.85,42.59Z"/><path d="M33.11,41.72a.11.11,0,0,1,.12.12v8.23A3.52,3.52,0,0,1,32,52.93a5.15,5.15,0,0,1-3.36,1,6.45,6.45,0,0,1-3.39-1q-.1-.05-.05-.18l.2-.45a.12.12,0,0,1,.17-.07,5,5,0,0,0,3,1,4.39,4.39,0,0,0,2.76-.85,2.76,2.76,0,0,0,1.06-2.29V48.22a4.45,4.45,0,0,1-6.7.67,4.1,4.1,0,0,1-1.24-3.06,4.21,4.21,0,0,1,1.23-3.08,4,4,0,0,1,3-1.23,4.2,4.2,0,0,1,2.16.58,4.43,4.43,0,0,1,1.56,1.57l.1-1.84c0-.08.06-.12.12-.12Zm-1.76,6.72a3.12,3.12,0,0,0,1-2.43,3.65,3.65,0,0,0-1.07-2.63,3.46,3.46,0,0,0-2.58-1.1,3.39,3.39,0,0,0-2.48,1,3.45,3.45,0,0,0-1,2.53,3.39,3.39,0,0,0,1,2.53,3.52,3.52,0,0,0,2.56,1A3.63,3.63,0,0,0,31.35,48.44Z"/><path d="M44.35,41.74l-.32.61s0,.07-.1.08l-.23,0c-1.86,0-2.94,1.09-3.24,3.26v4.8a.11.11,0,0,1-.12.12h-.58a.11.11,0,0,1-.12-.12V41.87a.11.11,0,0,1,.12-.12h.47a.12.12,0,0,1,.13.12l.1,1.81a3.58,3.58,0,0,1,3-2.11,6.87,6.87,0,0,1,.82,0A.13.13,0,0,1,44.35,41.74Z"/><path d="M56.25,42.82A4.58,4.58,0,0,1,57.5,46.1a2.6,2.6,0,0,1,0,.32.11.11,0,0,1-.12.12H49.54a3.5,3.5,0,0,0,1.15,2.54,3.81,3.81,0,0,0,2.68,1,4,4,0,0,0,3.45-1.88.18.18,0,0,1,.2,0l.33.33a.14.14,0,0,1,0,.18,5,5,0,0,1-1.74,1.54,4.68,4.68,0,0,1-2.31.58A4.34,4.34,0,0,1,50,49.46a4.54,4.54,0,0,1-1.3-3.3A4.63,4.63,0,0,1,50,42.87a4.11,4.11,0,0,1,3.13-1.35A4.16,4.16,0,0,1,56.25,42.82Zm-3.08-.55a3.45,3.45,0,0,0-2.52,1,3.78,3.78,0,0,0-1.13,2.58h7.22a3.66,3.66,0,0,0-1.07-2.59A3.44,3.44,0,0,0,53.16,42.27Z"/><path d="M62.69,49.36a.19.19,0,0,1,0-.21l.25-.3c.08-.11.15-.11.22,0a3.17,3.17,0,0,0,2.89,1.22c1.71,0,2.59-.68,2.59-1.84a1.53,1.53,0,0,0-.44-1.12,1.89,1.89,0,0,0-.58-.33c-.27-.09-.51-.17-.74-.23l-1-.21c-.38-.07-.67-.13-.86-.18a6.07,6.07,0,0,1-.79-.27,2.31,2.31,0,0,1-.74-.41A2,2,0,0,1,62.86,44a2.15,2.15,0,0,1,.9-1.8,3.76,3.76,0,0,1,2.35-.68,4.51,4.51,0,0,1,3.18,1.25.13.13,0,0,1,0,.21l-.25.3c-.07.08-.14.09-.21,0a3.79,3.79,0,0,0-2.68-1,3.24,3.24,0,0,0-1.81.45A1.44,1.44,0,0,0,63.67,44a1.31,1.31,0,0,0,.5,1,1.84,1.84,0,0,0,.6.3,5.7,5.7,0,0,0,.65.21l.77.15c.41.08.74.15,1,.22s.54.18.86.31a2.72,2.72,0,0,1,.75.45,2.2,2.2,0,0,1,.65,1.58,2.28,2.28,0,0,1-.88,1.9,4.75,4.75,0,0,1-5.89-.74Z"/><path d="M74.63,49.36a.19.19,0,0,1,0-.21l.25-.3c.08-.11.15-.11.22,0A3.17,3.17,0,0,0,78,50.06c1.71,0,2.59-.68,2.59-1.84a1.53,1.53,0,0,0-.44-1.12,1.89,1.89,0,0,0-.58-.33c-.27-.09-.51-.17-.74-.23l-1-.21c-.38-.07-.67-.13-.86-.18a6.07,6.07,0,0,1-.79-.27,2.31,2.31,0,0,1-.74-.41A2,2,0,0,1,74.8,44a2.15,2.15,0,0,1,.9-1.8A3.76,3.76,0,0,1,78,41.52a4.51,4.51,0,0,1,3.18,1.25.13.13,0,0,1,0,.21l-.25.3c-.07.08-.14.09-.21,0a3.79,3.79,0,0,0-2.68-1,3.24,3.24,0,0,0-1.81.45A1.44,1.44,0,0,0,75.61,44a1.31,1.31,0,0,0,.5,1,1.84,1.84,0,0,0,.6.3,5.7,5.7,0,0,0,.65.21l.77.15c.41.08.74.15,1,.22s.54.18.86.31a2.72,2.72,0,0,1,.75.45,2.2,2.2,0,0,1,.65,1.58,2.28,2.28,0,0,1-.88,1.9,4.75,4.75,0,0,1-5.89-.74Z"/><path d="M91.27,50.8a4.58,4.58,0,1,1,3.3-1.34A4.47,4.47,0,0,1,91.27,50.8ZM94,48.93a4,4,0,0,0,0-5.55,3.91,3.91,0,0,0-5.46,0,4,4,0,0,0,0,5.56,3.87,3.87,0,0,0,5.46,0Z"/><path d="M102.39,50.48a.8.8,0,0,1,0-1.14.8.8,0,1,1,1.14,1.14A.8.8,0,0,1,102.39,50.48Z"/><path d="M111.34,49.45a4.64,4.64,0,0,1,3.27-7.93,4.35,4.35,0,0,1,3.15,1.32c.07,0,.07.1,0,.17l-.37.32a.12.12,0,0,1-.17,0,3.87,3.87,0,0,0-2.59-1,3.65,3.65,0,0,0-2.71,1.13,3.8,3.8,0,0,0-1.11,2.78,3.73,3.73,0,0,0,1.11,2.75,3.77,3.77,0,0,0,2.8,1.13,3.63,3.63,0,0,0,1.22-.21,4.53,4.53,0,0,0,.78-.33l.6-.43a.17.17,0,0,1,.18,0l.39.32c.07.06.08.11,0,.17a4.82,4.82,0,0,1-6.55-.14Z"/><path d="M127.57,50.8a4.58,4.58,0,1,1,3.3-1.34A4.47,4.47,0,0,1,127.57,50.8Zm2.74-1.87a4,4,0,0,0,0-5.55,3.91,3.91,0,0,0-5.46,0,4,4,0,0,0,0,5.56,3.87,3.87,0,0,0,5.46,0Z"/><path d="M152,42.6a4.56,4.56,0,0,1,1,3.13v4.73c0,.08,0,.12-.13.12h-.59a.12.12,0,0,1-.13-.12V45.73c0-2.25-1.1-3.46-2.93-3.46s-3,1.15-3.3,3.24v4.95a.11.11,0,0,1-.12.12h-.56a.11.11,0,0,1-.12-.12V45.73c0-2.25-1.12-3.46-2.94-3.46s-3,1.18-3.3,3.35v4.85a.11.11,0,0,1-.12.12h-.6a.11.11,0,0,1-.12-.12V41.87a.11.11,0,0,1,.12-.12h.49c.06,0,.1,0,.13.12l.09,1.74a3.68,3.68,0,0,1,3.49-2.09A3.25,3.25,0,0,1,145.71,44a3.82,3.82,0,0,1,3.7-2.47A3.36,3.36,0,0,1,152,42.6Z"/><path class="cls-1" d="M174.95,4.32h0L175,4.2v0l0-.09,0,0,0-.08,0,0,0-.08,0-.05,0-.08,0-.05,0-.08V3.52l0-.08V3.23h6.86a.38.38,0,0,1,.38.38V10h-2.4v.8h2.4V48a.38.38,0,0,1-.38.38h-6.86v-.21l0-.08V48l0-.07,0-.06,0-.07,0-.05,0-.07,0-.05,0-.07,0,0,0-.08,0,0-.07-.11,0,0-.06-.09,0,0,0-.07,0,0,0-.06,0,0,0-.06,0,0-.05-.05,0,0-.05-.05,0,0-.06,0,0,0-.06,0,0,0-.07,0,0,0-.09-.05,0,0-.11-.07,0,0-.08,0,0,0-.07,0-.05,0-.07,0-.05,0-.07,0-.06,0-.07,0h-.06l-.08,0H171.9l-.08,0h-.06l-.07,0-.06,0-.07,0-.05,0-.07,0-.05,0-.07,0,0,0-.08,0,0,0-.11.07,0,0-.09.06,0,0-.07,0,0,0-.06,0,0,0-.06,0,0,0-.05.05,0,0-.05.05,0,0,0,.06,0,0,0,.06,0,0,0,.07,0,0-.06.09v0l-.07.11,0,0,0,.08,0,0,0,.08,0,.05,0,.07,0,.05,0,.07,0,.06,0,.07v.06l0,.08v.21h-6.86a.38.38,0,0,1-.38-.38V10.82h2.4V10h-2.4V3.61a.38.38,0,0,1,.38-.38h6.86v.21l0,.08v.06l0,.07,0,.06,0,.07,0,.05,0,.07,0,0,0,.08,0,0,0,.09v0l.07.12h0l.06.1,0,0,.05.07,0,0,.05.07,0,0,.05.06,0,0,.05.06,0,0,.06.05,0,0,.06.05,0,0,.07.05,0,0,.07.05,0,0,.1.06h0l.12.07h0l.09,0,0,0,.08,0,0,0,.08,0,.05,0,.07,0,.06,0,.07,0h.06l.08,0h1.22l.08,0h.06l.07,0,.06,0,.07,0,.05,0,.08,0,0,0,.08,0,0,0,.09,0h0l.12-.07h0l.1-.06,0,0,.07-.05,0,0,.07-.05,0,0,.06-.05,0,0,.06-.05,0,0,.06-.06,0,0,.05-.06,0,0,.05-.07,0,0,.05-.08,0,0,.07-.1Zm-.38-1.49a2.06,2.06,0,1,1-4.12,0v-.4h-7.63a1.18,1.18,0,0,0-1.17,1.17V48a1.17,1.17,0,0,0,1.17,1.17h7.63v-.4a2.06,2.06,0,0,1,4.12,0v.4h7.63A1.18,1.18,0,0,0,183.37,48V3.61a1.18,1.18,0,0,0-1.17-1.17h-7.63v.4Z"/><polygon class="cls-1" points="175.78 10.82 175.78 10.02 178.59 10.02 178.59 10.82 175.78 10.82 175.78 10.82"/><polygon class="cls-1" points="173.63 10.82 171.4 10.82 170.83 10.82 170.83 10.02 171.4 10.02 173.63 10.02 174.2 10.02 174.2 10.82 173.63 10.82 173.63 10.82"/><polygon class="cls-1" points="166.44 10.82 166.44 10.02 169.24 10.02 169.24 10.82 166.44 10.82 166.44 10.82"/><path class="cls-2" d="M183,52.37l20.26-31.19-2-1.31.43-.67,2,1.31,3.49-5.38a.38.38,0,0,0-.11-.52l-5.75-3.74h0l0,0-.05.06,0,0-.06.05,0,0-.06.05,0,0-.06,0,0,0-.07,0,0,0-.07,0,0,0-.09.05h0l-.12.06h0l-.11.05h0l-.09,0,0,0-.08,0h0l-.08,0h-.05l-.08,0h-1.16l-.08,0h-.05l-.08,0-.06,0-.07,0-.06,0-.07,0-.05,0-.07,0-.05,0-.08,0,0,0-.08,0,0,0-.12-.07-.12-.08,0,0-.07-.06,0,0-.06-.05,0,0-.06-.06,0,0L197,11l0,0-.05-.06,0,0,0-.06,0,0,0-.07,0,0,0-.07,0,0-.05-.09v0l-.06-.12v0l0-.1,0,0,0-.08,0,0,0-.08v0l0-.08V9.71l0-.08V9.18s0-.06,0-.09,0,0,0,0,0-.08,0-.12v0s0-.09,0-.13v0s0-.07,0-.1V8.47l0-.08V8.34l0-.08,0-.06,0-.07,0-.06,0-.07,0-.05,0-.07,0-.05v0l-5.75-3.74a.38.38,0,0,0-.52.11l-3.49,5.38,2,1.31-.43.67-2-1.31-2,3.14V11.89l5.3-8.15a1.17,1.17,0,0,1,1.62-.35l6.4,4.16-.22.33a2.06,2.06,0,0,0,3.45,2.24l.22-.33,6.4,4.16a1.18,1.18,0,0,1,.35,1.62L183.62,52.81a1.17,1.17,0,0,1-1.62.34l-4.69-3h1.46l3.66,2.38a.38.38,0,0,0,.52-.11Z"/><polygon class="cls-2" points="197.52 17.49 197.95 16.82 200.3 18.34 199.87 19.01 197.52 17.49 197.52 17.49"/><polygon class="cls-2" points="196.62 15.95 196.19 16.62 195.71 16.31 193.84 15.1 193.36 14.79 193.8 14.12 194.27 14.43 196.15 15.64 196.62 15.95 196.62 15.95"/><polygon class="cls-2" points="192.47 13.25 192.03 13.92 189.68 12.39 190.12 11.73 192.47 13.25 192.47 13.25"/></g></svg>