<svg xmlns="http://www.w3.org/2000/svg" viewBox="0 0 208 54"><defs><style>.cls-1{fill:#db3f4b;}.cls-2{fill:#f53237;}.cls-3{fill:#f2f2f2;}.cls-4{fill:#d1d1d1;}</style></defs><title>Prancheta 1</title><g id="Camada_3" data-name="Camada 3"><path class="cls-1" d="M183.9,50.42a3.26,3.26,0,0,0,1-.85c4.5-5,5.3-12.37,8.62-18.26,2.23-4,5.56-7.19,8.83-10.36,1.35-1.31,2.82-3,2.4-4.83-.39-1.65-2.12-2.55-3.68-3.24a4.11,4.11,0,0,0-1.75-.48,9.17,9.17,0,0,0-1.7.42,3.88,3.88,0,0,1-4.53-3.51c0-.37,0-.75,0-1.12-.2-1.59-1.93-2.44-3.42-3a.94.94,0,0,0-.63-.09.94.94,0,0,0-.44.46l-4.35,7.35a7.69,7.69,0,0,0-.88,1.83,7.69,7.69,0,0,0-.17,2.14l.06,4.74c.09,7.61.19,15.21.11,22.82a7.69,7.69,0,0,1-.5,3.19,3,3,0,0,1-2.35,1.72C181.27,50.18,182.77,50.93,183.9,50.42Z"/><path class="cls-2" d="M160.8,4.3a1,1,0,0,0-.59.17,1.06,1.06,0,0,0-.23.81A182.43,182.43,0,0,0,161,24c.56,5.33,1.35,10.65,1.25,16a62.62,62.62,0,0,0,0,6.34,1.25,1.25,0,0,0,.22.71,1.18,1.18,0,0,0,.7.32c1.36.27,2.87.51,4-.29a9.33,9.33,0,0,0,1.14-1.1,4.57,4.57,0,0,1,3.09-1.44,3,3,0,0,1,2.81,1.75c.26.6.37,1.39,1,1.64a1.6,1.6,0,0,0,.69.07l3.41-.15a1,1,0,0,0,.62-.17,1,1,0,0,0,.26-.53c.93-3.7.78-7.58.66-11.4q-.48-15.43-.14-30.87a.88.88,0,0,0-.11-.56.8.8,0,0,0-.7-.2l-4.13.21a6.72,6.72,0,0,1-3,2.18,3.52,3.52,0,0,1-3.48-.72c-1.06-1-1.45-1.84-3-1.87C164.41,3.88,162.56,4.2,160.8,4.3Z"/></g><g id="Camada_1" data-name="Camada 1"><path class="cls-3" d="M15.66,1.39a13,13,0,0,1,9,3A10.1,10.1,0,0,1,28,12.34a10,10,0,0,1-3.4,7.9,13.11,13.11,0,0,1-9,3h-5V33.8A1.06,1.06,0,0,1,9.47,35H2.41a1.06,1.06,0,0,1-1.2-1.2V2.61a1.08,1.08,0,0,1,1.2-1.22Zm0,14.18a3.12,3.12,0,0,0,2.58-1.08,3.54,3.54,0,0,0,.89-2.3,3.3,3.3,0,0,0-.91-2.25,3.24,3.24,0,0,0-2.55-1h-5v6.63Z"/><path class="cls-3" d="M57.22,33.62c.38.84,0,1.38-1,1.38H48.48a1.32,1.32,0,0,1-1.38-.91L45.83,31H34.56l-1.34,3.07a1.44,1.44,0,0,1-1.41.91H23.94c-1,0-1.24-.47-.89-1.38L37,2.3a1.44,1.44,0,0,1,1.38-.91h4.22A1.37,1.37,0,0,1,44,2.3ZM40.37,15.52,37.3,24.15h6Z"/><path class="cls-3" d="M86.29,33.57c.45.77.09,1.43-.87,1.43H78.56a1.43,1.43,0,0,1-1.38-.87l-5.41-10.9H67.28V33.8a1.06,1.06,0,0,1-1.2,1.2H59a1.06,1.06,0,0,1-1.2-1.2V2.61A1.08,1.08,0,0,1,59,1.39H72.28a13,13,0,0,1,9,3,10.1,10.1,0,0,1,3.42,7.92,9.9,9.9,0,0,1-4.92,9Zm-19-24.63v6.63h5a3.12,3.12,0,0,0,2.58-1.08,3.54,3.54,0,0,0,.89-2.3,3.3,3.3,0,0,0-.91-2.25,3.24,3.24,0,0,0-2.55-1Z"/><path class="cls-3" d="M113.16,1.39a1.09,1.09,0,0,1,1.22,1.22V9a1.06,1.06,0,0,1-1.22,1.2H104.3V33.8a1.06,1.06,0,0,1-1.22,1.2H96a1.06,1.06,0,0,1-1.2-1.2V10.18H85.9A1.06,1.06,0,0,1,84.71,9V2.61a1.08,1.08,0,0,1,1.2-1.22Z"/><path class="cls-3" d="M116.57,35a1.06,1.06,0,0,1-1.2-1.2V2.61a1.08,1.08,0,0,1,1.2-1.22h7.1a1.06,1.06,0,0,1,1.2,1.22V33.8a1.06,1.06,0,0,1-1.2,1.2Z"/><path class="cls-3" d="M142.15,35.42q-6.68,0-10.57-4.29t-3.89-11.48v-17a1.08,1.08,0,0,1,1.2-1.22h7.05a1.06,1.06,0,0,1,1.2,1.22v17c0,4.41,1.55,6.33,5,6.33s4.92-1.92,4.92-6.33v-17a1.08,1.08,0,0,1,1.2-1.22h7.05a1.09,1.09,0,0,1,1.22,1.22v17q0,7.21-3.87,11.48T142.15,35.42Z"/><path class="cls-3" d="M2.3,37.66a.74.74,0,1,1,.75.74A.75.75,0,0,1,2.3,37.66Zm.45,11.92a.11.11,0,0,1-.12-.12V40.87a.11.11,0,0,1,.12-.12h.6a.11.11,0,0,1,.12.12v8.59a.11.11,0,0,1-.12.12Z"/><path class="cls-3" d="M16.85,41.59a4.55,4.55,0,0,1,1,3.14v4.73a.11.11,0,0,1-.12.12h-.59a.12.12,0,0,1-.13-.12V44.73c0-2.25-1.1-3.46-2.93-3.46s-3,1.18-3.33,3.35v4.85a.11.11,0,0,1-.12.12H10a.11.11,0,0,1-.12-.12V40.87a.11.11,0,0,1,.12-.12h.49c.06,0,.1,0,.13.12l.09,1.75a3.73,3.73,0,0,1,3.53-2.11A3.36,3.36,0,0,1,16.85,41.59Z"/><path class="cls-3" d="M32.11,40.72a.11.11,0,0,1,.12.12v8.23A3.52,3.52,0,0,1,31,51.93a5.15,5.15,0,0,1-3.36,1,6.45,6.45,0,0,1-3.39-1q-.1-.05-.05-.18l.2-.45a.12.12,0,0,1,.17-.07,5,5,0,0,0,3,1,4.39,4.39,0,0,0,2.76-.85,2.76,2.76,0,0,0,1.06-2.29V47.22a4.45,4.45,0,0,1-6.7.67,4.1,4.1,0,0,1-1.24-3.06,4.21,4.21,0,0,1,1.23-3.08,4,4,0,0,1,3-1.23,4.2,4.2,0,0,1,2.16.58,4.43,4.43,0,0,1,1.56,1.57l.1-1.84c0-.08.06-.12.12-.12Zm-1.76,6.72a3.12,3.12,0,0,0,1-2.43,3.65,3.65,0,0,0-1.07-2.63,3.46,3.46,0,0,0-2.58-1.1,3.39,3.39,0,0,0-2.48,1,3.45,3.45,0,0,0-1,2.53,3.39,3.39,0,0,0,1,2.53,3.52,3.52,0,0,0,2.56,1A3.63,3.63,0,0,0,30.35,47.44Z"/><path class="cls-3" d="M43.35,40.74l-.32.61s0,.07-.1.08l-.23,0c-1.86,0-2.94,1.09-3.24,3.26v4.8a.11.11,0,0,1-.12.12h-.58a.11.11,0,0,1-.12-.12V40.87a.11.11,0,0,1,.12-.12h.47a.12.12,0,0,1,.13.12l.1,1.81a3.58,3.58,0,0,1,3-2.11,6.87,6.87,0,0,1,.82,0A.13.13,0,0,1,43.35,40.74Z"/><path class="cls-3" d="M55.25,41.82A4.58,4.58,0,0,1,56.5,45.1a2.6,2.6,0,0,1,0,.32.11.11,0,0,1-.12.12H48.54a3.5,3.5,0,0,0,1.15,2.54,3.81,3.81,0,0,0,2.68,1,4,4,0,0,0,3.45-1.88.18.18,0,0,1,.2,0l.33.33a.14.14,0,0,1,0,.18,5,5,0,0,1-1.74,1.54,4.68,4.68,0,0,1-2.31.58A4.34,4.34,0,0,1,49,48.46a4.54,4.54,0,0,1-1.3-3.3A4.63,4.63,0,0,1,49,41.87a4.11,4.11,0,0,1,3.13-1.35A4.16,4.16,0,0,1,55.25,41.82Zm-3.08-.55a3.45,3.45,0,0,0-2.52,1,3.78,3.78,0,0,0-1.13,2.58h7.22a3.66,3.66,0,0,0-1.07-2.59A3.44,3.44,0,0,0,52.16,41.27Z"/><path class="cls-3" d="M61.69,48.36a.19.19,0,0,1,0-.21l.25-.3c.08-.11.15-.11.22,0a3.17,3.17,0,0,0,2.89,1.22c1.71,0,2.59-.68,2.59-1.84a1.53,1.53,0,0,0-.44-1.12,1.89,1.89,0,0,0-.58-.33c-.27-.09-.51-.17-.74-.23l-1-.21c-.38-.07-.67-.13-.86-.18a6.07,6.07,0,0,1-.79-.27,2.31,2.31,0,0,1-.74-.41A2,2,0,0,1,61.86,43a2.15,2.15,0,0,1,.9-1.8,3.76,3.76,0,0,1,2.35-.68,4.51,4.51,0,0,1,3.18,1.25.13.13,0,0,1,0,.21l-.25.3c-.07.08-.14.09-.21,0a3.79,3.79,0,0,0-2.68-1,3.24,3.24,0,0,0-1.81.45A1.44,1.44,0,0,0,62.67,43a1.31,1.31,0,0,0,.5,1,1.84,1.84,0,0,0,.6.3,5.7,5.7,0,0,0,.65.21l.77.15c.41.08.74.15,1,.22s.54.18.86.31a2.72,2.72,0,0,1,.75.45,2.2,2.2,0,0,1,.65,1.58,2.28,2.28,0,0,1-.88,1.9,4.75,4.75,0,0,1-5.89-.74Z"/><path class="cls-3" d="M73.63,48.36a.19.19,0,0,1,0-.21l.25-.3c.08-.11.15-.11.22,0A3.17,3.17,0,0,0,77,49.06c1.71,0,2.59-.68,2.59-1.84a1.53,1.53,0,0,0-.44-1.12,1.89,1.89,0,0,0-.58-.33c-.27-.09-.51-.17-.74-.23l-1-.21c-.38-.07-.67-.13-.86-.18a6.07,6.07,0,0,1-.79-.27,2.31,2.31,0,0,1-.74-.41A2,2,0,0,1,73.8,43a2.15,2.15,0,0,1,.9-1.8A3.76,3.76,0,0,1,77,40.52a4.51,4.51,0,0,1,3.18,1.25.13.13,0,0,1,0,.21l-.25.3c-.07.08-.14.09-.21,0a3.79,3.79,0,0,0-2.68-1,3.24,3.24,0,0,0-1.81.45A1.44,1.44,0,0,0,74.61,43a1.31,1.31,0,0,0,.5,1,1.84,1.84,0,0,0,.6.3,5.7,5.7,0,0,0,.65.21l.77.15c.41.08.74.15,1,.22s.54.18.86.31a2.72,2.72,0,0,1,.75.45,2.2,2.2,0,0,1,.65,1.58,2.28,2.28,0,0,1-.88,1.9,4.75,4.75,0,0,1-5.89-.74Z"/><path class="cls-3" d="M90.27,49.8a4.58,4.58,0,1,1,3.3-1.34A4.47,4.47,0,0,1,90.27,49.8ZM93,47.93a4,4,0,0,0,0-5.55,3.91,3.91,0,0,0-5.46,0,4,4,0,0,0,0,5.56,3.87,3.87,0,0,0,5.46,0Z"/><path class="cls-3" d="M101.39,49.48a.8.8,0,0,1,0-1.14.8.8,0,1,1,1.14,1.14A.8.8,0,0,1,101.39,49.48Z"/><path class="cls-3" d="M110.34,48.45a4.64,4.64,0,0,1,3.27-7.93,4.35,4.35,0,0,1,3.15,1.32c.07,0,.07.1,0,.17l-.37.32a.12.12,0,0,1-.17,0,3.87,3.87,0,0,0-2.59-1,3.65,3.65,0,0,0-2.71,1.13,3.8,3.8,0,0,0-1.11,2.78,3.73,3.73,0,0,0,1.11,2.75,3.77,3.77,0,0,0,2.8,1.13,3.63,3.63,0,0,0,1.22-.21,4.53,4.53,0,0,0,.78-.33l.6-.43a.17.17,0,0,1,.18,0l.39.32c.07.06.08.11,0,.17a4.82,4.82,0,0,1-6.55-.14Z"/><path class="cls-3" d="M126.57,49.8a4.58,4.58,0,1,1,3.3-1.34A4.47,4.47,0,0,1,126.57,49.8Zm2.74-1.87a4,4,0,0,0,0-5.55,3.91,3.91,0,0,0-5.46,0,4,4,0,0,0,0,5.56,3.87,3.87,0,0,0,5.46,0Z"/><path class="cls-3" d="M151,41.6a4.56,4.56,0,0,1,1,3.13v4.73c0,.08,0,.12-.13.12h-.59a.12.12,0,0,1-.13-.12V44.73c0-2.25-1.1-3.46-2.93-3.46s-3,1.15-3.3,3.24v4.95a.11.11,0,0,1-.12.12h-.56a.11.11,0,0,1-.12-.12V44.73c0-2.25-1.12-3.46-2.94-3.46s-3,1.18-3.3,3.35v4.85a.11.11,0,0,1-.12.12h-.6a.11.11,0,0,1-.12-.12V40.87a.11.11,0,0,1,.12-.12h.49c.06,0,.1,0,.13.12l.09,1.74a3.68,3.68,0,0,1,3.49-2.09A3.25,3.25,0,0,1,144.71,43a3.82,3.82,0,0,1,3.7-2.47A3.36,3.36,0,0,1,151,41.6Z"/><path class="cls-3" d="M173.95,3.32h0L174,3.2v0l0-.09,0,0,0-.08,0,0,0-.08,0-.05,0-.08,0-.05,0-.08V2.52l0-.08V2.23h6.86a.38.38,0,0,1,.38.38V9h-2.4v.8h2.4V47a.38.38,0,0,1-.38.38h-6.86v-.21l0-.08V47l0-.07,0-.06,0-.07,0-.05,0-.07,0-.05,0-.07,0,0,0-.08,0,0-.07-.11,0,0-.06-.09,0,0,0-.07,0,0,0-.06,0,0,0-.06,0,0-.05-.05,0,0-.05-.05,0,0-.06,0,0,0-.06,0,0,0-.07,0,0,0-.09-.05,0,0-.11-.07,0,0-.08,0,0,0-.07,0-.05,0-.07,0-.05,0-.07,0-.06,0-.07,0h-.06l-.08,0H170.9l-.08,0h-.06l-.07,0-.06,0-.07,0-.05,0-.07,0-.05,0-.07,0,0,0-.08,0,0,0-.11.07,0,0-.09.06,0,0-.07,0,0,0-.06,0,0,0-.06,0,0,0-.05.05,0,0-.05.05,0,0,0,.06,0,0,0,.06,0,0,0,.07,0,0-.06.09v0l-.07.11,0,0,0,.08,0,0,0,.08,0,.05,0,.07,0,.05,0,.07,0,.06,0,.07v.06l0,.08v.21h-6.86a.38.38,0,0,1-.38-.38V9.82h2.4V9h-2.4V2.61a.38.38,0,0,1,.38-.38h6.86v.21l0,.08v.06l0,.07,0,.06,0,.07,0,.05,0,.07,0,0,0,.08,0,0,0,.09v0l.07.12h0l.06.1,0,0,.05.07,0,0,.05.07,0,0,.05.06,0,0,.05.06,0,0,.06.05,0,0,.06.05,0,0,.07.05,0,0,.07.05,0,0,.1.06h0l.12.07h0l.09,0,0,0,.08,0,0,0,.08,0,.05,0,.07,0,.06,0,.07,0h.06l.08,0h1.22l.08,0h.06l.07,0,.06,0,.07,0,.05,0,.08,0,0,0,.08,0,0,0,.09,0h0l.12-.07h0l.1-.06,0,0,.07-.05,0,0,.07-.05,0,0,.06-.05,0,0,.06-.05,0,0,.06-.06,0,0,.05-.06,0,0,.05-.07,0,0,.05-.08,0,0,.07-.1Zm-.38-1.49a2.06,2.06,0,1,1-4.12,0v-.4h-7.63a1.18,1.18,0,0,0-1.17,1.17V47a1.17,1.17,0,0,0,1.17,1.17h7.63v-.4a2.06,2.06,0,0,1,4.12,0v.4h7.63A1.18,1.18,0,0,0,182.37,47V2.61a1.18,1.18,0,0,0-1.17-1.17h-7.63v.4Z"/><polygon class="cls-3" points="174.78 9.82 174.78 9.02 177.59 9.02 177.59 9.82 174.78 9.82 174.78 9.82"/><polygon class="cls-3" points="172.63 9.82 170.4 9.82 169.83 9.82 169.83 9.02 170.4 9.02 172.63 9.02 173.2 9.02 173.2 9.82 172.63 9.82 172.63 9.82"/><polygon class="cls-3" points="165.44 9.82 165.44 9.02 168.24 9.02 168.24 9.82 165.44 9.82 165.44 9.82"/><path class="cls-4" d="M182,51.37l20.26-31.19-2-1.31.43-.67,2,1.31,3.49-5.38a.38.38,0,0,0-.11-.52l-5.75-3.74h0l0,0-.05.06,0,0-.06.05,0,0-.06.05,0,0-.06,0,0,0-.07,0,0,0-.07,0,0,0-.09.05h0l-.12.06h0l-.11.05h0l-.09,0,0,0-.08,0h0l-.08,0h-.05l-.08,0h-1.16l-.08,0h-.05l-.08,0-.06,0-.07,0-.06,0-.07,0-.05,0-.07,0-.05,0-.08,0,0,0-.08,0,0,0-.12-.07-.12-.08,0,0-.07-.06,0,0-.06-.05,0,0-.06-.06,0,0L196,10l0,0-.05-.06,0,0,0-.06,0,0,0-.07,0,0,0-.07,0,0-.05-.09v0l-.06-.12v0l0-.1,0,0,0-.08,0,0,0-.08v0l0-.08V8.71l0-.08V8.18s0-.06,0-.09,0,0,0,0,0-.08,0-.12v0s0-.09,0-.13v0s0-.07,0-.1V7.47l0-.08V7.34l0-.08,0-.06,0-.07,0-.06,0-.07,0-.05,0-.07,0-.05v0l-5.75-3.74a.38.38,0,0,0-.52.11l-3.49,5.38,2,1.31-.43.67-2-1.31-2,3.14V10.89l5.3-8.15a1.17,1.17,0,0,1,1.62-.35l6.4,4.16-.22.33a2.06,2.06,0,0,0,3.45,2.24l.22-.33,6.4,4.16a1.18,1.18,0,0,1,.35,1.62L182.62,51.81a1.17,1.17,0,0,1-1.62.34l-4.69-3h1.46l3.66,2.38a.38.38,0,0,0,.52-.11Z"/><polygon class="cls-4" points="196.52 16.49 196.95 15.82 199.3 17.34 198.87 18.01 196.52 16.49 196.52 16.49"/><polygon class="cls-4" points="195.62 14.95 195.19 15.62 194.71 15.31 192.84 14.1 192.36 13.79 192.8 13.12 193.27 13.43 195.15 14.64 195.62 14.95 195.62 14.95"/><polygon class="cls-4" points="191.47 12.25 191.03 12.92 188.68 11.39 189.12 10.73 191.47 12.25 191.47 12.25"/></g></svg>