<svg id="Camada_1" data-name="Camada 1" xmlns="http://www.w3.org/2000/svg" viewBox="0 0 257 145"><defs><style>.cls-1{fill:#1b1464;}.cls-2{fill:#fff;}</style></defs><title>Prancheta 1</title><rect class="cls-1" x="0.78" y="1" width="255" height="142" rx="12" ry="12"/><polygon id="polygon9" class="cls-2" points="112.98 108.56 94.39 108.56 106.02 36.67 124.6 36.67 112.98 108.56"/><path id="path11" class="cls-2" d="M180.36,38.43a45.81,45.81,0,0,0-16.67-3.06c-18.36,0-31.28,9.79-31.36,23.78-.15,10.32,9.25,16.06,16.29,19.5,7.19,3.52,9.64,5.81,9.64,8.95-.07,4.82-5.81,7-11.16,7-7.42,0-11.4-1.14-17.44-3.82l-2.45-1.15-2.6,16.14c4.36,2,12.39,3.75,20.73,3.83,19.5,0,32.2-9.64,32.35-24.55.07-8.18-4.89-14.45-15.6-19.58-6.5-3.29-10.48-5.51-10.48-8.87.08-3.06,3.37-6.19,10.71-6.19a31.58,31.58,0,0,1,13.85,2.75l1.68.76,2.53-15.52Z"/><path id="path13" class="cls-2" d="M205.06,83.09C206.59,79,212.48,63,212.48,63c-.08.15,1.53-4.21,2.45-6.88l1.3,6.19s3.52,17.21,4.28,20.8ZM228,36.67H213.63c-4.43,0-7.8,1.3-9.71,6L176.3,108.56h19.5l3.9-10.78h23.86c.53,2.52,2.22,10.78,2.22,10.78H243L228,36.67h0Z"/><path id="path15" class="cls-2" d="M78.87,36.67l-18.2,49-2-9.94C55.31,64.28,44.75,51.82,33,45.62l16.67,62.86H69.31L98.52,36.67H78.87Z"/><path id="path17" class="cls-2" d="M43.76,36.67H13.86l-.31,1.45c23.33,6,38.78,20.34,45.12,37.63l-6.5-33c-1.07-4.59-4.36-5.89-8.41-6Z"/></svg>