<svg id="Camada_1" data-name="Camada 1" xmlns="http://www.w3.org/2000/svg" viewBox="0 0 257 145"><defs><style>.cls-1{fill:#016fd0;}.cls-2{fill:#fff;}</style></defs><title>Prancheta 1</title><rect class="cls-1" x="0.78" y="1" width="255" height="142" rx="12" ry="12"/><path id="path3082" class="cls-2" d="M50.38,118.63V78.7H92.66l4.54,5.91,4.69-5.91H255.37v37.18a17.72,17.72,0,0,1-8.66,2.75h-85l-5.11-6.3v6.3H139.85V107.89s-2.29,1.5-7.24,1.5H126.9v9.25H101.53l-4.53-6-4.6,6Z"/><path id="path3080" class="cls-2" d="M1,48.6l9.54-22.23H27l5.41,12.45V26.37h20.5l3.22,9,3.12-9h92v4.52a19.85,19.85,0,0,1,12.79-4.52l29.86.1,5.32,12.29V26.37h17.15l4.72,7.06V26.37h17.31V66.3H221.14l-4.52-7.08V66.3h-25.2L188.87,60H182.1l-2.49,6.3H162.51a16.9,16.9,0,0,1-11.21-4.43V66.3H125.53L120.41,60v6.3H24.58L22,60H15.3l-2.51,6.3H1Z"/><path id="path3046" class="cls-1" d="M13.91,31.29,1,61.19H9.42l2.37-6h13.8l2.36,6h8.56L23.66,31.29H13.91Zm4.76,7,4.21,10.46H14.45Z"/><path id="path3048" class="cls-1" d="M37.39,61.19V31.29l11.9,0,6.92,19.28L63,31.29h11.8v29.9H67.3v-22l-7.92,22H52.82l-7.95-22v22Z"/><path id="path3050" class="cls-1" d="M79.89,61.19V31.29h24.39V38H87.44v5.11h16.45v6.3H87.44V54.7h16.84v6.49Z"/><path id="path3052" class="cls-1" d="M108.61,31.29v29.9h7.48V50.57h3.15l9,10.62h9.14l-9.84-11A9.11,9.11,0,0,0,135.7,41c0-6.29-4.94-9.7-10.45-9.7H108.61ZM116.08,38h8.55a3.43,3.43,0,0,1,3.54,3.15,3.38,3.38,0,0,1-3.43,3.15h-8.66V38Z"/><path id="path3054" class="cls-1" d="M146.38,61.19h-7.63V31.29h7.63Z"/><path id="path3056" class="cls-1" d="M164.48,61.19h-1.65c-8,0-12.81-6.28-12.81-14.83,0-8.76,4.79-15.07,14.85-15.07h8.26v7.08h-8.56c-4.09,0-7,3.19-7,8.07,0,5.79,3.3,8.22,8.07,8.22h2Z"/><path id="path3058" class="cls-1" d="M180.75,31.29l-12.86,29.9h8.37l2.37-6h13.8l2.36,6h8.56L190.5,31.29h-9.75Zm4.76,7,4.21,10.46h-8.42l4.22-10.46Z"/><path id="path3060" class="cls-1" d="M204.22,61.19V31.29h9.5l12.14,18.79V31.29h7.48v29.9h-9.2L211.69,41.91V61.19Z"/><path id="path3062" class="cls-1" d="M55.49,113.52V83.62H79.89V90.3H63v5.11H79.49v6.3H63V107H79.89v6.49Z"/><path id="path3064" class="cls-1" d="M175,113.52V83.62h24.39V90.3H182.58v5.11h16.37v6.3H182.58V107h16.84v6.49Z"/><path id="path3066" class="cls-1" d="M80.83,113.52,92.71,98.75,80.55,83.61H90L97.21,93l7.27-9.36h9l-12,15,11.9,15H104l-7-9.21-6.86,9.21Z"/><path id="path3068" class="cls-1" d="M114.31,83.62v29.9H122v-9.44h7.87c6.66,0,11.71-3.53,11.71-10.4,0-5.69-4-10.06-10.73-10.06H114.31ZM122,90.38h8.29A3.38,3.38,0,0,1,134,93.83a3.45,3.45,0,0,1-3.71,3.44H122V90.38Z"/><path id="path3072" class="cls-1" d="M144.81,83.62v29.9h7.48V102.89h3.15l9,10.62h9.14l-9.84-11a9.11,9.11,0,0,0,8.2-9.18c0-6.29-4.94-9.7-10.45-9.7H144.81Zm7.48,6.69h8.55a3.43,3.43,0,0,1,3.54,3.15,3.38,3.38,0,0,1-3.43,3.15h-8.66Z"/><path id="path3074" class="cls-1" d="M202.88,113.52V107h15c2.21,0,3.17-1.2,3.17-2.51s-1-2.53-3.17-2.53h-6.76c-5.88,0-9.15-3.58-9.15-9,0-4.79,3-9.42,11.73-9.42h14.56l-3.15,6.73H212.48c-2.41,0-3.15,1.26-3.15,2.47a2.61,2.61,0,0,0,2.75,2.61h7.08c6.55,0,9.39,3.72,9.39,8.58,0,5.23-3.17,9.52-9.75,9.52Z"/><path id="path3076" class="cls-1" d="M230.32,113.52V107h15c2.21,0,3.17-1.2,3.17-2.51s-1-2.53-3.17-2.53h-6.76c-5.88,0-9.15-3.58-9.15-9,0-4.79,3-9.42,11.73-9.42h14.56l-3.15,6.73H239.92c-2.41,0-3.15,1.26-3.15,2.47a2.61,2.61,0,0,0,2.75,2.61h7.08c6.55,0,9.39,3.72,9.39,8.58,0,5.23-3.17,9.52-9.75,9.52Z"/></svg>