<svg id="Camada_1" data-name="Camada 1" xmlns="http://www.w3.org/2000/svg" viewBox="0 0 257 145"><defs><style>.cls-1{fill:#ccc;}.cls-2{fill:#0079be;}.cls-3{fill:#fff;}</style></defs><title>Prancheta 1</title><rect class="cls-1" x="0.78" y="1" width="255" height="142" rx="12" ry="12"/><path class="cls-2" d="M138.2,117.62c24.47.12,46.8-20,46.8-44.37,0-26.7-22.33-45.16-46.8-45.15H117.14C92.38,28.08,72,46.55,72,73.24c0,24.42,20.38,44.49,45.14,44.37Z"/><path class="cls-3" d="M117.24,31.79a41,41,0,1,0,41,41A41,41,0,0,0,117.24,31.79Zm-26,41h0a26,26,0,0,1,16.67-24.24V97A26,26,0,0,1,91.27,72.78ZM126.53,97h0V48.53a26,26,0,0,1,0,48.49Z"/></svg>