<svg id="Camada_1" data-name="Camada 1" xmlns="http://www.w3.org/2000/svg" viewBox="0 0 257 145"><defs><style>.cls-1{fill:#f4f4f4;}.cls-2{fill:#d27800;}.cls-2,.cls-4,.cls-5{fill-rule:evenodd;}.cls-3,.cls-5{fill:#fff;}.cls-4{fill:#fcea00;}</style></defs><title>Prancheta 1</title><rect class="cls-1" x="0.78" y="1" width="255" height="142" rx="12" ry="12"/><path class="cls-2" d="M62.42,28.75l96.89-23a26.51,26.51,0,0,1,31.83,19.6l23,96.89a26.37,26.37,0,0,1-3.72,20.72H62.4L42.82,60.58a26.51,26.51,0,0,1,19.6-31.83Z"/><polygon class="cls-3" points="62.22 68.36 62.22 109.76 71.61 109.76 71.61 92.44 87.03 92.44 87.03 109.76 96.36 109.76 96.36 68.36 87.03 68.36 87.03 84.27 71.61 84.27 71.61 68.36 62.22 68.36 62.22 68.36"/><path class="cls-3" d="M177.22,97.72a22.18,22.18,0,0,0,.31-3.69c0-7.43-3.69-15-13.39-15-10.44,0-15.17,8.41-15.17,16,0,9.4,5.84,15.29,16,15.29a29.65,29.65,0,0,0,10.87-1.84l-1.23-6.33a26.45,26.45,0,0,1-8.29,1.23c-4.36,0-8.17-1.84-8.48-5.71Zm-19.41-6.39c.25-2.52,1.84-6.08,5.77-6.08,4.3,0,5.28,3.81,5.28,6.08Z"/><path class="cls-3" d="M180.52,109.76h9.34V94.53a11,11,0,0,1,.18-2.09c.61-2.89,2.95-4.73,6.39-4.73a13.38,13.38,0,0,1,2.52.25V79.17a9.62,9.62,0,0,0-2-.12,8.82,8.82,0,0,0-8.11,6.2h-.25l-.31-5.53h-8c.12,2.58.25,5.47.25,9.89v20.15Z"/><path class="cls-4" d="M105.86,66.7a4.8,4.8,0,1,1-4.8,4.8,4.8,4.8,0,0,1,4.8-4.8Z"/><path class="cls-5" d="M125.58,102.76h4.69c4.7,0,6.83-3,6.83-6.15s-.23-10.25-6-10.25c-6.68,0-5.6,8.82-5.57,13.44,0,1,.06,2,.09,3ZM101.06,79.68h9.6V96.61c0,3.14,1.74,6.15,5.6,6.15,0-7.62,0-15.47-.26-23.08h8q.26,2.2.48,4.41c3.79-7.58,15.73-5.91,19.75.49,4.15,6.61,5.56,25.52-14,25.52h-4.55c0,3.84.05,7.69.05,11.53h-9.6c0-3.69,0-7.56.05-11.53-10.37,0-15.16-6.62-15.16-13.49V79.68Z"/></svg>