<svg id="Camada_1" data-name="Camada 1" xmlns="http://www.w3.org/2000/svg" viewBox="0 0 257 145"><defs><style>.cls-1{fill:#232323;}.cls-2{fill:#ffcb05;}.cls-3{fill:#00a4e0;}.cls-4{fill:#ef4123;}.cls-5{fill:#f4f4f4;}</style></defs><title>Prancheta 1</title><rect class="cls-1" x="0.78" y="1" width="255" height="142" rx="12" ry="12"/><path class="cls-2" d="M52.16,48.77A25.05,25.05,0,0,1,84.6,67.51L101.75,64A42.54,42.54,0,0,0,46.61,32.19Z"/><path class="cls-3" d="M31.92,104.34l11.6-13.11a25,25,0,0,1,0-37.45L31.92,40.66a42.52,42.52,0,0,0,0,63.69"/><path class="cls-4" d="M84.6,77.51a25,25,0,0,1-24.5,20,24.68,24.68,0,0,1-7.94-1.29l-5.55,16.61A42.58,42.58,0,0,0,101.75,81Z"/><path class="cls-5" d="M116.74,91.78A30.32,30.32,0,0,1,115,88.34a26.06,26.06,0,0,1,13-33.9,26.11,26.11,0,0,1,24,1.74c4.76,2.73,8.14,6.95,10.7,12.92.32.77.61,1.58.9,2.28Zm15.63-27.21c-5.56,2.39-8.43,7.6-7.83,13.71l23.53-10.14C144,63.39,138.77,61.82,132.37,64.57Zm18.64,22a0,0,0,0,0,0,0l-.49-.33a13.84,13.84,0,0,1-6.36,5.33c-5.26,2.29-10.14,1.7-13.64-1.38l-.32.49a0,0,0,0,0,0,0l-6,8.94a25.88,25.88,0,0,0,4.74,2.6,25.89,25.89,0,0,0,31.15-9.57Z"/><path class="cls-5" d="M179.9,41.29V91l7.73,3.13-4.38,10.24-8.53-3.55a9.65,9.65,0,0,1-4.2-3.53,11.08,11.08,0,0,1-1.64-6.15V41.29Z"/><path class="cls-5" d="M199.9,78.31a14,14,0,0,1,4.83-10.6l-7.93-8.84a25.95,25.95,0,0,0,0,38.85l7.91-8.84A14,14,0,0,1,199.9,78.31Z"/><path class="cls-5" d="M214,92.4a14.14,14.14,0,0,1-4.46-.73l-3.79,11.25a26,26,0,0,0,33.68-19.37l-11.63-2.38A14.07,14.07,0,0,1,214,92.4Z"/><path class="cls-5" d="M214,52.37a26.17,26.17,0,0,0-8.23,1.32l3.75,11.26a14.08,14.08,0,0,1,18.25,10.57l11.63-2.35A26,26,0,0,0,214,52.37Z"/></svg>