<svg width="20" height="20" viewBox="0 0 20 20" fill="none" xmlns="http://www.w3.org/2000/svg">
<g clip-path="url(#clip0)">
<path d="M1.17269 20H18.8273C19.4739 20 20 19.4739 20 18.8273V2.73494C20 2.08835 19.4739 1.56225 18.8273 1.56225H18.2008V1.17269C18.2008 0.526104 17.6747 0 17.0281 0C16.3815 0 15.8554 0.526104 15.8554 1.17269V1.56225H13.51V1.17269C13.51 0.526104 12.9839 0 12.3373 0C11.6908 0 11.1647 0.526104 11.1647 1.17269V1.56225H8.81928V1.17269C8.81928 0.526104 8.29317 0 7.64659 0C7 0 6.4739 0.526104 6.4739 1.17269V1.56225H4.12851V1.17269C4.14056 0.526104 3.61446 0 2.96787 0C2.32129 0 1.79518 0.526104 1.79518 1.17269V1.56225H1.17269C0.526104 1.56225 0 2.08835 0 2.73494V18.8273C0 19.4739 0.526104 20 1.17269 20ZM18.8273 19.2169H1.17269C0.955823 19.2169 0.783132 19.0402 0.783132 18.8273V5.70281H19.2209V18.8273C19.2169 19.0442 19.0442 19.2169 18.8273 19.2169ZM16.6426 1.17269C16.6426 0.955823 16.8193 0.783132 17.0321 0.783132C17.245 0.783132 17.4217 0.959839 17.4217 1.17269V1.56225H16.6386V1.17269H16.6426ZM11.9518 1.17269C11.9518 0.955823 12.1285 0.783132 12.3414 0.783132C12.5542 0.783132 12.7309 0.959839 12.7309 1.17269V1.56225H11.9478V1.17269H11.9518ZM7.26506 1.17269C7.26506 0.955823 7.44177 0.783132 7.65462 0.783132C7.86747 0.783132 8.04418 0.959839 8.04418 1.17269V1.56225H7.26104V1.17269H7.26506ZM2.57831 1.17269C2.57831 0.955823 2.75502 0.783132 2.96787 0.783132C3.18072 0.783132 3.35743 0.959839 3.35743 1.17269V1.56225H2.57831V1.17269ZM1.17269 2.34538H1.7992V2.85141C1.7992 3.49799 2.3253 4.0241 2.97189 4.0241C3.18875 4.0241 3.36145 3.84739 3.36145 3.63454C3.36145 3.42169 3.18474 3.24498 2.97189 3.24498C2.75502 3.24498 2.58233 3.06827 2.58233 2.85542V2.34538H6.48996V2.85141C6.48996 3.49799 7.01606 4.0241 7.66265 4.0241C7.87952 4.0241 8.05221 3.84739 8.05221 3.63454C8.05221 3.42169 7.8755 3.24498 7.66265 3.24498C7.44578 3.24498 7.27309 3.06827 7.27309 2.85542V2.34538H11.1807V2.85141C11.1807 3.49799 11.7068 4.0241 12.3534 4.0241C12.5703 4.0241 12.743 3.84739 12.743 3.63454C12.743 3.42169 12.5663 3.24498 12.3534 3.24498C12.1365 3.24498 11.9639 3.06827 11.9639 2.85542V2.34538H15.8715V2.85141C15.8715 3.49799 16.3976 4.0241 17.0442 4.0241C17.261 4.0241 17.4337 3.84739 17.4337 3.63454C17.4337 3.42169 17.257 3.24498 17.0442 3.24498C16.8273 3.24498 16.6546 3.06827 16.6546 2.85542V2.34538H18.8434C19.0602 2.34538 19.2329 2.52209 19.2329 2.73494V4.92369H0.783132V2.73494C0.783132 2.51807 0.955823 2.34538 1.17269 2.34538Z" fill="white"/>
<path d="M13.2852 8.00803L9.02011 13.5341L6.0683 11.257C5.5663 10.8675 4.8434 10.9598 4.45786 11.4659C4.0683 11.9679 4.16067 12.6908 4.6667 13.0763L8.52614 16.0562C8.77915 16.249 9.08437 16.3253 9.37352 16.2851C9.6667 16.249 9.94381 16.1004 10.1366 15.8474L15.1044 9.41365C15.494 8.91165 15.4016 8.18876 14.8956 7.80322C14.3936 7.41366 13.6707 7.50603 13.2852 8.00803Z" fill="white"/>
</g>
<defs>
<clipPath id="clip0">
<rect width="20" height="20" fill="white"/>
</clipPath>
</defs>
</svg>
