<svg width="19" height="20" viewBox="0 0 19 20" fill="none" xmlns="http://www.w3.org/2000/svg">
<g clip-path="url(#clip0)">
<path d="M18.4658 3.5C18.3885 3.41668 18.3113 3.33332 18.1568 3.33332H3.47682L3.0905 1.16668C3.0905 1 2.85871 0.833359 2.70417 0.833359H0.386289C0.154537 0.83332 0 1 0 1.25C0 1.5 0.154537 1.66668 0.386326 1.66668H2.39517L4.24947 11.8334C4.48126 13.1667 5.6402 14.1667 6.87639 14.1667H15.7616C15.9934 14.1667 16.1479 14 16.1479 13.75C16.1479 13.5 15.9934 13.3333 15.7616 13.3333H6.95364C6.33553 13.3333 5.71745 13 5.40838 12.4167L16.6887 10.75C16.8433 10.75 16.9978 10.5833 16.9978 10.4167L18.543 3.75C18.543 3.75 18.543 3.58332 18.4658 3.5ZM16.3024 10L5.02205 11.5833L3.63132 4.08332H17.6159L16.3024 10Z" fill="white"/>
<path d="M6.56733 15C5.48567 15 4.63577 15.9167 4.63577 17.0833C4.63577 18.25 5.48567 19.1666 6.56733 19.1666C7.64902 19.1666 8.49888 18.25 8.49888 17.0833C8.49892 15.9167 7.64902 15 6.56733 15ZM6.56733 18.3333C5.94921 18.3333 5.40839 17.75 5.40839 17.0833C5.40839 16.4167 5.94921 15.8333 6.56733 15.8333C7.18544 15.8333 7.72627 16.4167 7.72627 17.0833C7.72627 17.75 7.18544 18.3333 6.56733 18.3333Z" fill="white"/>
<path d="M14.2936 15C13.2119 15 12.3621 15.9167 12.3621 17.0833C12.3621 18.25 13.212 19.1666 14.2936 19.1666C15.3753 19.1666 16.2252 18.25 16.2252 17.0833C16.2252 15.9167 15.3753 15 14.2936 15ZM14.2936 18.3333C13.6755 18.3333 13.1347 17.75 13.1347 17.0833C13.1347 16.4167 13.6755 15.8333 14.2936 15.8333C14.9117 15.8333 15.4526 16.4167 15.4526 17.0833C15.4526 17.75 14.9117 18.3333 14.2936 18.3333Z" fill="white"/>
</g>
<defs>
<clipPath id="clip0">
<rect width="18.543" height="20" fill="white"/>
</clipPath>
</defs>
</svg>
