<svg width="16" height="16" viewBox="0 0 16 16" fill="none" xmlns="http://www.w3.org/2000/svg">
<path d="M11.1343 6.3125H9.25928C8.9999 6.3125 8.79053 6.52187 8.79053 6.78125V15.5312C8.79053 15.7906 8.9999 16 9.25928 16H11.1343C11.3937 16 11.603 15.7906 11.603 15.5312V6.78125C11.603 6.52187 11.3937 6.3125 11.1343 6.3125ZM10.6655 15.0625H9.72803V7.25H10.6655V15.0625Z" fill="white"/>
<path d="M6.74072 8.8125H4.86572C4.60635 8.8125 4.39697 9.02187 4.39697 9.28125V15.5312C4.39697 15.7906 4.60635 16 4.86572 16H6.74072C7.0001 16 7.20947 15.7906 7.20947 15.5312V9.28125C7.20947 9.02187 6.99697 8.8125 6.74072 8.8125ZM6.27197 15.0625H5.33447V9.75H6.27197V15.0625Z" fill="white"/>
<path d="M1.40625 11.625H2.34375C2.60313 11.625 2.8125 11.4156 2.8125 11.1562C2.8125 10.8969 2.60313 10.6875 2.34375 10.6875H1.875V10.5312C1.875 10.2719 1.66563 10.0625 1.40625 10.0625C1.14687 10.0625 0.9375 10.2719 0.9375 10.5312V10.7688C0.390625 10.9625 0 11.4812 0 12.0938C0 12.8687 0.63125 13.5 1.40625 13.5C1.66563 13.5 1.875 13.7094 1.875 13.9688C1.875 14.2281 1.66563 14.4375 1.40625 14.4375H0.46875C0.209375 14.4375 0 14.6469 0 14.9062C0 15.1656 0.209375 15.375 0.46875 15.375H0.9375V15.5312C0.9375 15.7906 1.14687 16 1.40625 16C1.66563 16 1.875 15.7906 1.875 15.5312V15.2937C2.42188 15.1 2.8125 14.5781 2.8125 13.9688C2.8125 13.1938 2.18125 12.5625 1.40625 12.5625C1.14687 12.5625 0.9375 12.3531 0.9375 12.0938C0.9375 11.8344 1.14687 11.625 1.40625 11.625Z" fill="white"/>
<path d="M15.5312 3.8125H13.6562C13.3969 3.8125 13.1875 4.02187 13.1875 4.28125V15.5312C13.1875 15.7906 13.3969 16 13.6562 16H15.5312C15.7906 16 16 15.7906 16 15.5312V4.28125C16 4.02187 15.7906 3.8125 15.5312 3.8125ZM15.0625 15.0625H14.125V4.75H15.0625V15.0625Z" fill="white"/>
<path d="M0.46875 7.81514C2.43125 7.81514 4.275 7.05264 5.6625 5.66514C6.82187 4.50577 7.54688 3.02452 7.75 1.42139L8.91562 2.39327C9.11562 2.55889 9.40937 2.53077 9.575 2.33389C9.74062 2.13702 9.7125 1.84014 9.51562 1.67452L7.64062 0.112018C7.6375 0.108893 7.63437 0.105768 7.63125 0.105768C7.62187 0.0995178 7.61562 0.0932678 7.60625 0.0870178C7.60312 0.0838928 7.59688 0.0807678 7.59375 0.0776428C7.5875 0.0745178 7.57813 0.0682678 7.57188 0.0651428C7.56563 0.0620178 7.5625 0.0588928 7.55625 0.0557678C7.55 0.0526428 7.54063 0.0495178 7.53438 0.0463928C7.52813 0.0432678 7.52188 0.0401428 7.51562 0.0401428C7.50937 0.0370178 7.5 0.0338928 7.49375 0.0307678C7.4875 0.0276428 7.48125 0.0276428 7.47813 0.0245178C7.46875 0.0213928 7.45938 0.0182678 7.44688 0.0182678C7.44375 0.0182678 7.44062 0.0151428 7.43437 0.0151428C7.42187 0.0120178 7.40625 0.00889282 7.39375 0.00889282C7.39063 0.00889282 7.38437 0.00889282 7.38125 0.00889282C7.37187 0.00889282 7.35937 0.00889282 7.35 0.00576782C7.34687 0.00576782 7.34688 0.00576782 7.34375 0.00576782C7.34062 0.00576782 7.3375 0.00576782 7.3375 0.00576782C7.32813 0.00576782 7.31563 0.00576782 7.30625 0.00889282C7.30313 0.00889282 7.29687 0.00889282 7.29375 0.00889282C7.28125 0.00889282 7.27188 0.0120178 7.25938 0.0151428C7.25625 0.0151428 7.25313 0.0151428 7.25 0.0151428C7.2375 0.0182678 7.22187 0.0213928 7.20937 0.0245178C7.20312 0.0276428 7.2 0.0276428 7.19375 0.0307678C7.18437 0.0338928 7.17812 0.0370178 7.16875 0.0401428C7.1625 0.0432678 7.15625 0.0463928 7.15 0.0463928C7.14375 0.0495178 7.13438 0.0526428 7.12813 0.0557678C7.12188 0.0588928 7.11563 0.0620178 7.1125 0.0651428C7.10625 0.0682678 7.1 0.0745178 7.09375 0.0776428C7.0875 0.0807678 7.08438 0.0838928 7.07812 0.0870178C7.075 0.0870178 7.075 0.0901428 7.07188 0.0901428L4.88438 1.65264C4.675 1.80264 4.625 2.09639 4.775 2.30577C4.86563 2.43389 5.00938 2.50264 5.15625 2.50264C5.25 2.50264 5.34687 2.47452 5.42812 2.41514L6.80312 1.43389C6.60312 2.78077 5.97812 4.02452 5 5.00264C3.79062 6.21202 2.18125 6.87764 0.46875 6.87764C0.209375 6.87764 0 7.08702 0 7.34639C0 7.60577 0.209375 7.81514 0.46875 7.81514Z" fill="white"/>
</svg>
