<svg width="29" height="20" viewBox="0 0 29 20" fill="none" xmlns="http://www.w3.org/2000/svg">
<path d="M25.7907 0H2.48518C1.11005 0 0 1.12778 0 2.5V17.5C0 18.8833 1.12109 20 2.48518 20H25.7907C27.1548 20 28.2759 18.8889 28.2759 17.5V2.5C28.2759 1.12778 27.1658 0 25.7907 0ZM25.4428 1.66667C24.9347 2.17222 16.1979 10.9167 15.8941 11.2222C15.4247 11.6944 14.8006 11.9556 14.1379 11.9556C13.4752 11.9556 12.8512 11.6944 12.3817 11.2222C12.1774 11.0167 3.53448 2.36667 2.83311 1.66667H25.4428ZM1.65679 17.1611V2.83889L8.81412 10.0056L1.65679 17.1611ZM2.83311 18.3333L9.99044 11.1778L11.2109 12.3944C11.9952 13.1833 13.0334 13.6167 14.1379 13.6167C15.2425 13.6167 16.2862 13.1833 17.0649 12.4L18.2854 11.1778L25.4428 18.3333H2.83311ZM26.6191 17.1611L19.4617 10.0056L26.6191 2.83889V17.1611Z" fill="white"/>
</svg>
