<svg width="40" height="40" viewBox="0 0 40 40" fill="none" xmlns="http://www.w3.org/2000/svg">
<path d="M20.0001 0C8.972 0 0 8.97205 0 20.0001C0 31.0282 8.972 40.0002 20.0001 40.0002C31.0282 40.0002 40.0002 31.0282 40.0002 20.0001C40.0002 8.97205 31.028 0 20.0001 0ZM20.0001 36.5716C10.8628 36.5716 3.42862 29.1374 3.42862 20.0001C3.42862 10.8628 10.8628 3.42862 20.0001 3.42862C29.1374 3.42862 36.5716 10.8628 36.5716 20.0001C36.5716 29.1374 29.1372 36.5716 20.0001 36.5716Z" fill="white"/>
<path d="M27.7388 12.2623C27.0692 11.5926 25.9833 11.5926 25.3148 12.2623L20.0001 17.5777L14.6853 12.2623C14.0156 11.5926 12.9309 11.5926 12.2613 12.2623C11.5916 12.9319 11.5916 14.0166 12.2613 14.6863L17.576 20.0015L12.261 25.317C11.5914 25.9866 11.5914 27.0713 12.261 27.741C12.5957 28.0757 13.0345 28.2433 13.4732 28.2433C13.9119 28.2433 14.351 28.0759 14.6853 27.741L20.0001 22.4258L25.3148 27.741C25.6495 28.0757 26.0882 28.2433 26.5269 28.2433C26.9657 28.2433 27.4041 28.0759 27.7391 27.741C28.4087 27.0713 28.4087 25.9866 27.7391 25.317L22.4241 20.0017L27.7388 14.6865C28.4085 14.0169 28.4085 12.9319 27.7388 12.2623Z" fill="white"/>
</svg>
