<svg width="34" height="36" viewBox="0 0 34 36" fill="none" xmlns="http://www.w3.org/2000/svg">
<path d="M32.3344 18L29.0306 21.5634C25.8034 25.0442 21.4257 27 16.8614 27H16.5161C11.9517 27 7.57408 25.0442 4.34637 21.5634L1.04305 18L4.34689 14.4366C7.57408 10.9558 11.9517 9 16.5161 9H16.8614C21.4257 9 25.8034 10.9558 29.0311 14.4366L32.3344 18Z" fill="#C7E2FC"/>
<path d="M28.4559 13.8465C25.2928 10.7359 21.1603 9 16.8614 9H16.5161C11.9517 9 7.57408 10.9558 4.34637 14.4366L1.04305 18L4.09761 21.2946C6.01316 21.7114 8.05284 21.9375 10.1697 21.9375C18.3013 21.9375 25.2991 18.6176 28.4559 13.8465Z" fill="#EBF7FE"/>
<path d="M25.5546 17.4375C25.5546 14.3685 24.2086 11.6443 22.1246 9.89438C20.4385 9.30994 18.6653 9 16.8614 9H16.5161C14.7122 9 12.939 9.30994 11.2529 9.89438C9.1689 11.6443 7.82285 14.3685 7.82285 17.4375C7.82285 22.7188 11.7922 27 16.6887 27C21.5853 27 25.5546 22.7188 25.5546 17.4375Z" fill="#8892A0"/>
<path d="M16.6887 23.0625C19.281 23.0625 21.3824 20.7959 21.3824 18C21.3824 15.2041 19.281 12.9375 16.6887 12.9375C14.0965 12.9375 11.995 15.2041 11.995 18C11.995 20.7959 14.0965 23.0625 16.6887 23.0625Z" fill="#4D5D7A"/>
<path d="M16.0462 15.2741C16.1239 15.0745 16.1672 14.8551 16.1672 14.625C16.1672 13.986 15.834 13.4365 15.3479 13.1501C14.4368 13.4426 13.641 14.0243 13.0542 14.7983C13.1356 15.6476 13.7932 16.3125 14.6026 16.3125C14.6026 16.9341 15.0694 17.4375 15.6457 17.4375C16.222 17.4375 16.6887 16.9341 16.6887 16.3125C16.6887 15.8445 16.4233 15.4435 16.0462 15.2741Z" fill="#EBF7FE"/>
</svg>
