<svg width="13" height="25" viewBox="0 0 13 25" fill="none" xmlns="http://www.w3.org/2000/svg">
<path d="M12.487 0H9.36524C5.86889 0 3.59625 2.32258 3.59625 5.91884V8.641H0.49948C0.224766 8.641 0 8.86576 0 9.14048V13.0864C0 13.3611 0.224766 13.5858 0.49948 13.5858H3.62123V23.5505C3.62123 23.8252 3.84599 24.0499 4.12071 24.0499H8.21644C8.49116 24.0499 8.71592 23.8252 8.71592 23.5505V13.5609H12.3871C12.6618 13.5609 12.8866 13.3361 12.8866 13.0614V9.11551C12.8866 8.99063 12.8366 8.86576 12.7367 8.76587C12.6368 8.66597 12.512 8.61603 12.3871 8.61603H8.69095V6.31842C8.69095 5.21956 8.96566 4.64516 10.3892 4.64516H12.487C12.7617 4.64516 12.9865 4.4204 12.9865 4.14568V0.49948C12.9865 0.224766 12.7617 0 12.487 0Z" fill="white"/>
</svg>