<svg width="16" height="16" viewBox="0 0 16 16" fill="none" xmlns="http://www.w3.org/2000/svg">
<path d="M11.6719 5.11902C11.3384 4.75499 10.82 4.26364 10.5995 5.37308C10.5245 5.7503 10.3493 6.04108 10.1991 6.27521C10.0373 5.45608 9.55035 4.60824 9.09154 4.03658C8.91985 3.82271 8.31067 2.97249 8.19364 1.55011C8.17617 1.33783 7.92401 1.23814 7.76629 1.38133C6.25904 2.74958 5.43173 4.63139 5.40101 6.74993C5.40101 6.74993 4.77339 6.22089 4.43242 5.23671C4.3406 4.97167 3.98529 4.92111 3.83114 5.15546C3.80154 5.20046 3.7741 5.24552 3.74935 5.28927C2.58645 7.34552 2.02704 9.84255 2.5442 12.1657C3.40889 16.0562 9.1287 17.1439 12.1568 14.6986C15.1194 12.3062 14.1777 7.85346 11.6719 5.11902Z" fill="#ED694A"/>
<path d="M3.3491 12.4099C2.83795 10.062 3.37901 7.54062 4.5146 5.45219C4.48588 5.3829 4.45826 5.31125 4.43245 5.23675C4.34063 4.97172 3.98532 4.92115 3.83117 5.1555C3.80157 5.2005 3.77417 5.24556 3.74942 5.28931C2.58651 7.34556 2.0271 9.84259 2.54426 12.1657C2.93867 13.9403 4.34329 15.1313 6.04176 15.6704C4.71676 15.0285 3.67913 13.9282 3.3491 12.4099Z" fill="#D8553A"/>
<path d="M6.20987 6.71092C6.27265 4.7882 6.96809 3.06414 8.21277 1.7397C8.20421 1.66676 8.19786 1.60154 8.19377 1.55204C8.17593 1.33795 7.93299 1.23058 7.77596 1.37251C6.32018 2.6887 5.43288 4.55148 5.40103 6.74986L5.6735 6.96145C5.80769 7.06567 5.9895 7.06114 6.11765 6.96567C6.19412 6.90086 6.20509 6.80304 6.20987 6.71092Z" fill="#D8553A"/>
<path d="M10.7576 7.96307C10.5113 7.69419 10.1284 7.33126 9.96552 8.15073C9.91015 8.42932 9.78068 8.64413 9.66983 8.81707C9.5503 8.21204 9.19062 7.58579 8.85174 7.16357C8.72493 7.0056 8.27499 6.37763 8.18852 5.32698C8.17562 5.17016 7.9894 5.09657 7.8729 5.20232C6.75962 6.21291 6.14853 7.60291 6.12587 9.16766C6.12587 9.16766 5.66228 8.77691 5.41047 8.04998C5.34265 7.85423 5.08018 7.81688 4.96634 7.98998C4.9445 8.02319 4.92422 8.05651 4.90594 8.08882C4.04697 9.6076 3.63378 11.4519 4.01575 13.1679C4.65444 16.0415 8.87918 16.8449 11.1158 15.0388C13.304 13.2717 12.6085 9.98282 10.7576 7.96307Z" fill="#F4A32C"/>
<path d="M4.81231 13.3933C4.47412 11.7159 4.82441 9.91607 5.56706 8.41731C5.51047 8.3065 5.45684 8.184 5.41041 8.05C5.34259 7.85425 5.08012 7.81688 4.96628 7.98997C4.94444 8.02319 4.92416 8.0565 4.90587 8.08884C4.04694 9.60763 3.63378 11.452 4.01569 13.1679C4.31275 14.5044 5.38559 15.3928 6.67322 15.7794C5.75837 15.3206 5.03806 14.5145 4.81231 13.3933Z" fill="#E89528"/>
<path d="M9.92296 10.5595C9.75627 10.3775 9.49702 10.1318 9.38677 10.6865C9.3493 10.8752 9.26165 11.0205 9.18658 11.1376C9.10565 10.728 8.86221 10.3041 8.63277 10.0183C8.54696 9.91134 8.24236 9.48625 8.1838 8.77503C8.17505 8.66887 8.04902 8.61903 7.97015 8.69066C7.21652 9.37478 6.80286 10.3157 6.78752 11.3749C6.78752 11.3749 6.47367 11.1104 6.30324 10.6183C6.25733 10.4858 6.07967 10.4606 6.00261 10.5777C5.9878 10.6002 5.97411 10.6227 5.9617 10.6446C5.38026 11.6727 5.10055 12.9212 5.35911 14.0828C5.79145 16.0281 8.65137 16.572 10.1654 15.3493C10.6839 14.9306 11.0053 14.3407 11.0705 13.6881C11.1689 12.6996 10.7885 11.504 9.92296 10.5595Z" fill="#F4D44E"/>
<path d="M9.1484 12.969C9.05552 12.8675 8.91112 12.7307 8.84968 13.0397C8.8288 13.1448 8.77999 13.2258 8.73815 13.291C8.69305 13.0628 8.55743 12.8266 8.42962 12.6674C8.3818 12.6078 8.21208 12.371 8.17946 11.9748C8.17458 11.9156 8.10433 11.8879 8.06043 11.9277C7.64058 12.3089 7.41008 12.8331 7.40155 13.4232C7.40155 13.4232 7.22671 13.2759 7.13174 13.0017C7.10614 12.9279 7.00718 12.9138 6.96427 12.9791C6.95602 12.9916 6.94839 13.0042 6.94152 13.0164C6.61758 13.5892 6.46174 14.2847 6.6058 14.9319C6.93386 16.4079 9.62287 16.3631 9.78781 14.7119C9.84256 14.1613 9.63062 13.4951 9.1484 12.969Z" fill="#EAE9E8"/>
<path d="M7.23014 15.2248C7.08608 14.6459 7.24192 14.0237 7.56586 13.5113C7.57273 13.5004 7.58039 13.4892 7.58861 13.478C7.63155 13.4195 7.73052 13.4321 7.75608 13.4982C7.85105 13.7434 8.02589 13.8753 8.02589 13.8753C8.03292 13.4415 8.19005 13.0478 8.47864 12.732C8.41411 12.6426 8.21667 12.4271 8.17945 11.9748C8.17458 11.9156 8.10433 11.8879 8.06042 11.9278C7.64058 12.3089 7.41008 12.8331 7.40155 13.4233C7.40155 13.4233 7.2267 13.2759 7.13174 13.0018C7.10617 12.9279 7.00717 12.9138 6.96427 12.9791C6.95602 12.9917 6.94839 13.0042 6.94152 13.0164C6.61758 13.5892 6.46174 14.2848 6.6058 14.932C6.73911 15.5318 7.2868 15.8923 7.8923 15.9793C7.56567 15.8189 7.31464 15.5649 7.23014 15.2248Z" fill="#F7E7A1"/>
<path d="M5.76868 2.12641C6.44446 1.57675 6.44296 0.548406 5.76868 0C5.09289 0.549625 5.09436 1.578 5.76868 2.12641Z" fill="#D8553A"/>
<path d="M13.8685 6.53791C14.5443 5.98825 14.5428 4.95991 13.8685 4.4115C13.5596 4.66269 13.1942 5.9895 13.8685 6.53791Z" fill="#D8553A"/>
<path d="M1.89952 6.95645C2.38655 6.56029 2.38549 5.8192 1.89952 5.42392C1.67693 5.60495 1.41355 6.5612 1.89952 6.95645Z" fill="#D8553A"/>
<path d="M10.3347 3.65894C10.8217 3.26278 10.8206 2.52169 10.3347 2.1264C9.84762 2.52253 9.84871 3.26369 10.3347 3.65894Z" fill="#D8553A"/>
<path d="M6.74723 8.91637C6.85907 7.596 7.36329 6.42197 8.20992 5.52694C8.20136 5.46207 8.19414 5.39547 8.18851 5.32701C8.17561 5.17019 7.98939 5.0966 7.87289 5.20235C6.9907 6.00316 6.42451 7.04241 6.21595 8.21787L6.21564 8.21778C6.20017 8.30497 6.18098 8.43197 6.16886 8.53175C6.16889 8.53184 6.16892 8.5319 6.16898 8.532C6.14364 8.74025 6.12895 8.95225 6.12582 9.16771C6.14939 9.17231 6.68276 9.44646 6.74723 8.91637Z" fill="#E89528"/>
<path d="M6.13845 14.3588C5.90861 13.2736 6.10436 12.1164 6.55911 11.1138C6.47101 10.9902 6.37461 10.8243 6.30326 10.6183C6.25733 10.4858 6.0797 10.4605 6.00261 10.5777C5.98783 10.6001 5.97408 10.6227 5.9617 10.6446C5.38026 11.6727 5.10055 12.9212 5.35911 14.0828C5.56161 14.9938 6.29651 15.5974 7.17623 15.8562C6.66417 15.5163 6.27683 15.0131 6.13845 14.3588Z" fill="#E8C842"/>
<path d="M7.61723 10.9007C7.69342 10.3562 7.91614 9.75625 8.26673 9.25465C8.22855 9.11303 8.19851 8.953 8.18386 8.77503C8.17511 8.66887 8.04904 8.61903 7.9702 8.69066C7.50063 9.11694 7.1636 9.64312 6.97213 10.2353L6.97163 10.2352C6.9415 10.3282 6.89891 10.4823 6.8731 10.604C6.87332 10.6039 6.87354 10.6039 6.87375 10.6038C6.82088 10.8521 6.79147 11.1097 6.78763 11.3749C7.20926 11.4275 7.55804 11.3231 7.61723 10.9007Z" fill="#E8C842"/>
</svg>
