<svg width="33" height="28" viewBox="0 0 33 28" fill="none" xmlns="http://www.w3.org/2000/svg">
<g filter="url(#filter0_d)">
<path d="M16.4061 22C16.0551 22 15.7185 21.8858 15.454 21.6751C14.4585 20.8804 13.5015 20.1339 12.6552 19.4753L12.6503 19.4709C10.1689 17.5434 8.02894 15.8749 6.53816 14.2327C4.86946 12.3974 4.09521 10.6586 4.09521 8.75741C4.09521 6.90889 4.7877 5.20527 6.04765 3.95829C7.32202 2.69374 9.07248 2 10.972 2C12.3955 2 13.6939 2.40834 14.8384 3.22064C15.4155 3.62898 15.9397 4.12953 16.4013 4.7135C16.863 4.12953 17.3872 3.62898 17.9642 3.22064C19.1184 2.40834 20.4168 2 21.8403 2C23.7398 2 25.4903 2.69374 26.7646 3.95829C28.0246 5.20527 28.7171 6.90889 28.7171 8.75741C28.7171 10.6586 27.9428 12.3974 26.2741 14.2327C24.7833 15.8749 22.6434 17.5434 20.1619 19.4709C19.3156 20.1295 18.3538 20.876 17.3583 21.6751C17.0938 21.8858 16.7572 22 16.4061 22ZM10.972 3.31723C9.48125 3.31723 8.10588 3.86169 7.11043 4.84962C6.09574 5.8551 5.5379 7.24259 5.5379 8.75741C5.5379 10.3557 6.18711 11.787 7.64903 13.3941C9.05806 14.9484 11.1596 16.5818 13.5881 18.4698L13.5929 18.4742C14.4441 19.1372 15.4059 19.8836 16.4061 20.6828C17.416 19.8793 18.3778 19.1328 19.229 18.4698C21.6575 16.5774 23.7542 14.9484 25.1681 13.3941C26.6252 11.787 27.2792 10.3557 27.2792 8.75741C27.2792 7.24259 26.7214 5.8551 25.7067 4.84962C24.7064 3.86169 23.331 3.31723 21.8403 3.31723C20.7438 3.31723 19.7387 3.63337 18.8539 4.26125C18.0652 4.81888 17.5122 5.5258 17.19 6.01756C17.0217 6.27223 16.7332 6.42151 16.4061 6.42151C16.0791 6.42151 15.7906 6.26784 15.6223 6.01756C15.3001 5.5258 14.7471 4.81888 13.9584 4.26125C13.0735 3.63337 12.0685 3.31723 10.972 3.31723Z" fill="white"/>
</g>
<defs>
<filter id="filter0_d" x="0.0952148" y="0" width="32.6219" height="28" filterUnits="userSpaceOnUse" color-interpolation-filters="sRGB">
<feFlood flood-opacity="0" result="BackgroundImageFix"/>
<feColorMatrix in="SourceAlpha" type="matrix" values="0 0 0 0 0 0 0 0 0 0 0 0 0 0 0 0 0 0 127 0"/>
<feOffset dy="2"/>
<feGaussianBlur stdDeviation="2"/>
<feColorMatrix type="matrix" values="0 0 0 0 0 0 0 0 0 0 0 0 0 0 0 0 0 0 0.25 0"/>
<feBlend mode="normal" in2="BackgroundImageFix" result="effect1_dropShadow"/>
<feBlend mode="normal" in="SourceGraphic" in2="effect1_dropShadow" result="shape"/>
</filter>
</defs>
</svg>