<svg width="24" height="24" viewBox="0 0 24 24" fill="none" xmlns="http://www.w3.org/2000/svg">
<path d="M17.3617 0H6.62411C2.96454 0 0 2.96454 0 6.62411V17.3759C0 21.0213 2.96454 24 6.62411 24H17.3759C21.0213 24 24 21.0355 24 17.3759V6.62411C23.9858 2.96454 21.0071 0 17.3617 0ZM21.8582 17.3617C21.8582 19.844 19.844 21.8582 17.3617 21.8582H6.62411C4.14184 21.8582 2.12766 19.844 2.12766 17.3617V6.62411C2.12766 4.14184 4.14184 2.12766 6.62411 2.12766H17.3759C19.8582 2.12766 21.8723 4.14184 21.8723 6.62411L21.8582 17.3617Z" fill="white"/>
<path d="M11.9858 5.81555C8.58151 5.81555 5.81555 8.58151 5.81555 11.9858C5.81555 15.39 8.58151 18.1702 11.9999 18.1702C15.4184 18.1702 18.1843 15.4042 18.1843 11.9858C18.1702 8.58151 15.4042 5.81555 11.9858 5.81555ZM11.9858 16.0425C9.75881 16.0425 7.92903 14.2269 7.92903 11.9858C7.94321 9.75881 9.75881 7.94321 11.9858 7.94321C14.2127 7.94321 16.0425 9.75881 16.0425 11.9999C16.0425 14.2269 14.2269 16.0425 11.9858 16.0425Z" fill="white"/>
<path d="M18.4255 4.01416C18.0142 4.01416 17.617 4.18437 17.3191 4.46806C17.0213 4.75175 16.8652 5.1631 16.8652 5.57444C16.8652 5.98579 17.0354 6.38295 17.3191 6.68083C17.6028 6.96451 18.0142 7.13473 18.4255 7.13473C18.8369 7.13473 19.234 6.96451 19.5319 6.68083C19.8298 6.39714 19.9858 5.98579 19.9858 5.57444C19.9858 5.1631 19.8156 4.76593 19.5319 4.46806C19.2482 4.17019 18.8369 4.01416 18.4255 4.01416Z" fill="white"/>
</svg>