<svg width="17" height="20" viewBox="0 0 17 20" fill="none" xmlns="http://www.w3.org/2000/svg">
<path d="M4.91507 4.25796H11.0833C11.4002 4.25796 11.6546 4.00355 11.6546 3.68666C11.6546 3.36976 11.4002 3.11536 11.0833 3.11536H4.91507C4.59818 3.11536 4.34377 3.36976 4.34377 3.68666C4.34377 4.00355 4.59818 4.25796 4.91507 4.25796Z" fill="url(#paint0_linear)"/>
<path d="M3.57162 6.54324H12.4268C12.7437 6.54324 12.9981 6.28883 12.9981 5.97194C12.9981 5.65504 12.7437 5.40063 12.4268 5.40063H3.57162C3.25473 5.40063 3.00032 5.65504 3.00032 5.97194C3.00032 6.28883 3.25473 6.54324 3.57162 6.54324Z" fill="url(#paint1_linear)"/>
<path d="M12.4268 7.68579H9.42746C9.11056 7.68579 8.85616 7.9402 8.85616 8.25709C8.85616 8.57399 9.11056 8.82839 9.42746 8.82839H12.4268C12.7437 8.82839 12.9981 8.57399 12.9981 8.25709C12.9981 7.9402 12.7437 7.68579 12.4268 7.68579Z" fill="url(#paint2_linear)"/>
<path d="M3.57162 8.82839H7.54395C7.86084 8.82839 8.11525 8.57399 8.11525 8.25709C8.11525 7.9402 7.86084 7.68579 7.54395 7.68579H3.57162C3.25473 7.68579 3.00032 7.9402 3.00032 8.25709C3.00032 8.57399 3.25473 8.82839 3.57162 8.82839Z" fill="url(#paint3_linear)"/>
<path d="M3.57162 11.1135H12.4268C12.7437 11.1135 12.9981 10.8591 12.9981 10.5422C12.9981 10.2254 12.7437 9.97095 12.4268 9.97095H3.57162C3.25473 9.97095 3.00032 10.2254 3.00032 10.5422C3.00032 10.8591 3.25473 11.1135 3.57162 11.1135Z" fill="url(#paint4_linear)"/>
<path d="M3.57162 15.684H8.54373C8.86062 15.684 9.11503 15.4296 9.11503 15.1127C9.11503 14.7958 8.86062 14.5414 8.54373 14.5414H3.57162C3.25473 14.5414 3.00032 14.7958 3.00032 15.1127C3.00032 15.4296 3.25473 15.684 3.57162 15.684Z" fill="url(#paint5_linear)"/>
<path d="M3.57162 13.3988H12.4268C12.7437 13.3988 12.9981 13.1444 12.9981 12.8275C12.9981 12.5106 12.7437 12.2562 12.4268 12.2562H3.57162C3.25473 12.2562 3.00032 12.5106 3.00032 12.8275C3.00032 13.1444 3.25473 13.3988 3.57162 13.3988Z" fill="url(#paint6_linear)"/>
<path d="M15.9974 3.40103H16.0019L16.0108 2.25842H15.9974V0.571301C15.9974 0.254408 15.743 0 15.4261 0H0.572293C0.255399 0 0.000991842 0.254408 0.000991842 0.571301V1.25418V2.25842V3.40103V4.25798V19.1386C0.000991842 19.1877 -0.00793474 19.4867 0.0277716 19.5938C0.121501 19.8973 0.438394 20.0625 0.741898 19.9732L2.42902 19.4555L4.11614 19.9732C4.22773 20.0089 4.34377 20.0089 4.45089 19.9732L6.13801 19.4555L7.82514 19.9732C7.93672 20.0089 8.05277 20.0089 8.15988 19.9732L9.84701 19.4555L11.5341 19.9732C11.6457 20.0089 11.7618 20.0089 11.8689 19.9732L13.556 19.4555L15.2431 19.9732C15.3011 19.9911 15.3547 20 15.4127 20C15.6582 20 15.8814 19.8438 15.9573 19.5983C15.9885 19.4912 15.984 19.1921 15.984 19.143V3.40103H15.9974ZM14.8548 18.6521L13.739 18.3084C13.6274 18.2727 13.5114 18.2727 13.4042 18.3084L11.7171 18.8262L10.03 18.3084C9.91842 18.2727 9.80237 18.2727 9.69526 18.3084L8.00813 18.8262L6.32101 18.3084C6.20943 18.2727 6.09338 18.2727 5.98626 18.3084L4.28575 18.8262L2.59863 18.3084C2.48704 18.2727 2.371 18.2727 2.26388 18.3084L1.14806 18.6521V1.1426H14.8593V18.6521H14.8548Z" fill="url(#paint7_linear)"/>
<defs>
<linearGradient id="paint0_linear" x1="3.58748" y1="3.11536" x2="11.6108" y2="4.51012" gradientUnits="userSpaceOnUse">
<stop stop-color="#C72328"/>
<stop offset="1" stop-color="#DD2476"/>
</linearGradient>
<linearGradient id="paint1_linear" x1="1.96607" y1="5.40063" x2="12.6651" y2="7.94409" gradientUnits="userSpaceOnUse">
<stop stop-color="#C72328"/>
<stop offset="1" stop-color="#DD2476"/>
</linearGradient>
<linearGradient id="paint2_linear" x1="8.42768" y1="7.68579" x2="13.0656" y2="8.14257" gradientUnits="userSpaceOnUse">
<stop stop-color="#C72328"/>
<stop offset="1" stop-color="#DD2476"/>
</linearGradient>
<linearGradient id="paint3_linear" x1="2.47119" y1="7.68579" x2="8.16992" y2="8.37889" gradientUnits="userSpaceOnUse">
<stop stop-color="#C72328"/>
<stop offset="1" stop-color="#DD2476"/>
</linearGradient>
<linearGradient id="paint4_linear" x1="1.96607" y1="9.97095" x2="12.6651" y2="12.5144" gradientUnits="userSpaceOnUse">
<stop stop-color="#C72328"/>
<stop offset="1" stop-color="#DD2476"/>
</linearGradient>
<linearGradient id="paint5_linear" x1="2.36776" y1="14.5414" x2="9.13803" y2="15.5258" gradientUnits="userSpaceOnUse">
<stop stop-color="#C72328"/>
<stop offset="1" stop-color="#DD2476"/>
</linearGradient>
<linearGradient id="paint6_linear" x1="1.96607" y1="12.2562" x2="12.6651" y2="14.7997" gradientUnits="userSpaceOnUse">
<stop stop-color="#C72328"/>
<stop offset="1" stop-color="#DD2476"/>
</linearGradient>
<linearGradient id="paint7_linear" x1="-1.65629" y1="-1.2651e-05" x2="16.4372" y2="0.393519" gradientUnits="userSpaceOnUse">
<stop stop-color="#C72328"/>
<stop offset="1" stop-color="#DD2476"/>
</linearGradient>
</defs>
</svg>
