<svg width="20" height="20" viewBox="0 0 20 20" fill="none" xmlns="http://www.w3.org/2000/svg">
<path d="M4.08226 4.03769C5.67885 2.44109 7.80166 1.56179 10.0596 1.56179C12.3175 1.56179 14.4403 2.44109 16.0369 4.03769L16.4113 4.4121H13.8465C13.4152 4.4121 13.0656 4.76171 13.0656 5.193C13.0656 5.62429 13.4152 5.9739 13.8465 5.9739L16.6473 5.97386C17.2668 5.96639 17.8479 5.71936 18.2835 5.27827C18.7175 4.8387 18.9582 4.25593 18.9613 3.63722V0.780897C18.9613 0.349609 18.6117 0 18.1804 0C17.7491 0 17.3995 0.349609 17.3995 0.780897V3.1916L17.1413 2.93335C15.2497 1.04176 12.7347 0 10.0596 0C7.38448 0 4.86944 1.04176 2.97784 2.93335C1.7539 4.1573 0.864802 5.68124 0.40656 7.34049C0.291756 7.7562 0.53574 8.18627 0.951403 8.30108C1.02093 8.3203 1.09093 8.32948 1.15976 8.32948C1.50222 8.32952 1.81644 8.10248 1.91203 7.75627C2.29851 6.35686 3.04894 5.07101 4.08226 4.03769ZM15.0095 16.845C15.1999 16.7034 15.3866 16.5518 15.5645 16.3946C15.8876 16.1089 16.3811 16.1394 16.6667 16.4625C16.9523 16.7856 16.9219 17.2791 16.5988 17.5647C16.3882 17.7509 16.1672 17.9303 15.9418 18.098C15.8018 18.2022 15.6383 18.2525 15.4762 18.2525C15.2378 18.2525 15.0024 18.1436 14.8491 17.9377C14.5917 17.5916 14.6634 17.1024 15.0095 16.845ZM19.0979 11.6314C18.6681 11.5953 18.3489 11.2178 18.385 10.788C18.4047 10.5521 18.4148 10.3117 18.4148 10.0736C18.4148 9.64229 18.7644 9.29268 19.1957 9.29268C19.627 9.29268 19.9766 9.64229 19.9766 10.0736C19.9766 10.3551 19.9647 10.6394 19.9413 10.9184C19.9071 11.326 19.5658 11.6342 19.164 11.6342C19.1421 11.6342 19.12 11.6333 19.0979 11.6314ZM17.6716 13.5407C17.8491 13.1477 18.3117 12.9729 18.7047 13.1504C19.0977 13.3279 19.2725 13.7905 19.095 14.1835C18.9793 14.4397 18.851 14.6942 18.7138 14.94C18.5708 15.1961 18.3051 15.3404 18.0312 15.3404C17.9024 15.3404 17.7718 15.3084 17.6513 15.2412C17.2747 15.031 17.1398 14.5553 17.3501 14.1787C17.4659 13.9714 17.574 13.7567 17.6716 13.5407ZM11.7839 18.3144C12.0155 18.264 12.2478 18.2029 12.4742 18.133C12.8863 18.0057 13.3235 18.2364 13.4509 18.6486C13.5782 19.0606 13.3474 19.4979 12.9353 19.6252C12.6666 19.7082 12.391 19.7806 12.1162 19.8405C12.0602 19.8527 12.0044 19.8586 11.9493 19.8586C11.5901 19.8586 11.2666 19.609 11.1871 19.2436C11.0953 18.8222 11.3625 18.4061 11.7839 18.3144ZM0.733825 10.1412C1.16398 10.1024 1.5432 10.4187 1.58226 10.8482C1.60378 11.0846 1.63562 11.3228 1.67699 11.5562C1.75222 11.9808 1.46894 12.3861 1.04429 12.4613C0.998199 12.4695 0.95238 12.4735 0.907145 12.4735C0.535545 12.4735 0.206209 12.2072 0.139139 11.8286C0.0901543 11.5521 0.0523813 11.2699 0.0268735 10.9897C-0.012228 10.5602 0.304334 10.1803 0.733825 10.1412ZM1.57644 13.9368C1.95148 13.7238 2.42812 13.8554 2.64105 14.2304C2.75804 14.4365 2.88538 14.6403 3.01956 14.8361C3.26339 15.1918 3.17273 15.6778 2.81699 15.9217C2.68202 16.0142 2.52831 16.0585 2.37617 16.0585C2.12734 16.0585 1.88269 15.9398 1.73136 15.7191C1.57234 15.4871 1.42144 15.2456 1.28277 15.0013C1.06988 14.6263 1.20136 14.1497 1.57644 13.9368ZM4.99995 16.88C5.19147 17.0204 5.39124 17.1543 5.59354 17.2778C5.96171 17.5025 6.07792 17.9831 5.85323 18.3512C5.70604 18.5923 5.44917 18.7254 5.18597 18.7254C5.04729 18.7254 4.90686 18.6884 4.77987 18.6109C4.54003 18.4645 4.30335 18.3059 4.07644 18.1395C3.72866 17.8845 3.65343 17.3958 3.90843 17.048C4.16347 16.7003 4.65206 16.6249 4.99995 16.88ZM8.23639 18.3268C8.46799 18.3756 8.70498 18.4149 8.94072 18.4439C9.36881 18.4966 9.67318 18.8862 9.62053 19.3143C9.57189 19.71 9.23522 20 8.84647 20C8.81471 20 8.78252 19.998 8.75022 19.9941C8.47069 19.9597 8.18967 19.913 7.91494 19.8553C7.49287 19.7665 7.22272 19.3524 7.31147 18.9304C7.40026 18.5082 7.81444 18.2381 8.23639 18.3268Z" fill="url(#paint0_linear)"/>
<defs>
<linearGradient id="paint0_linear" x1="22.0407" y1="-1.2651e-05" x2="-0.501931" y2="0.611006" gradientUnits="userSpaceOnUse">
<stop stop-color="#023CB1"/>
<stop offset="1" stop-color="#1CB7F4"/>
</linearGradient>
</defs>
</svg>