<svg width="16" height="20" viewBox="0 0 16 20" fill="none" xmlns="http://www.w3.org/2000/svg">
<path d="M13.8449 7.60408H13.1102V5.53878C13.1102 2.48571 10.6286 0 7.57551 0C4.52245 0 2.04082 2.48571 2.04082 5.53469V7.6H1.3102C0.587755 7.6 0 8.18775 0 8.9102V18.6898C0 19.4122 0.587755 20 1.3102 20H13.849C14.5714 20 15.1592 19.4122 15.1592 18.6898V8.9102C15.1551 8.19184 14.5673 7.60408 13.8449 7.60408ZM3.70612 5.53469C3.70612 3.4 5.44082 1.66531 7.57551 1.66531C9.7102 1.66531 11.4449 3.4 11.4449 5.53469V7.59592H3.70612V5.53469ZM13.4857 18.3347H1.66531V9.26939H13.4898V18.3347H13.4857Z" fill="white"/>
<path d="M7.57545 17.0898C8.03668 17.0898 8.4081 16.7184 8.4081 16.2571V14.1102C8.4081 13.649 8.03668 13.2776 7.57545 13.2776C7.11423 13.2776 6.7428 13.649 6.7428 14.1102V16.2571C6.7428 16.7143 7.11423 17.0898 7.57545 17.0898Z" fill="white"/>
</svg>
