<svg width="16" height="16" viewBox="0 0 16 16" fill="none" xmlns="http://www.w3.org/2000/svg">
<g clip-path="url(#clip0)">
<path d="M11.4231 4.09211C11.137 3.80605 10.6764 3.80605 10.3952 4.09211C10.1092 4.37817 10.1092 4.83878 10.3952 5.11999L12.548 7.27272H3.63645C3.23403 7.27272 2.90918 7.59756 2.90918 7.99999C2.90918 8.40241 3.23403 8.72726 3.63645 8.72726H12.548L10.3952 10.88C10.1092 11.166 10.1092 11.6267 10.3952 11.9079C10.5358 12.0485 10.7249 12.1212 10.9092 12.1212C11.0934 12.1212 11.2825 12.0485 11.4231 11.9079L14.817 8.51393C15.1031 8.22787 15.1031 7.76726 14.817 7.48605L11.4231 4.09211Z" fill="white"/>
<path d="M7.0303 16C7.43273 16 7.75757 15.6752 7.75757 15.2727C7.75757 14.8703 7.43273 14.5455 7.0303 14.5455H1.45455V1.45455H7.0303C7.43273 1.45455 7.75757 1.1297 7.75757 0.727273C7.75757 0.324848 7.43273 0 7.0303 0H0.727273C0.324848 0 0 0.324848 0 0.727273V15.2727C0 15.6752 0.324848 16 0.727273 16H7.0303Z" fill="white"/>
</g>
<defs>
<clipPath id="clip0">
<rect width="15.0303" height="16" fill="white"/>
</clipPath>
</defs>
</svg>
