<svg width="48" height="48" viewBox="0 0 48 48" fill="none" xmlns="http://www.w3.org/2000/svg">
<g clip-path="url(#clip0)" filter="url(#filter0_d)">
<path d="M24.0001 0C12.972 0 4 8.97205 4 20.0001C4 31.0282 12.972 40.0002 24.0001 40.0002C35.0282 40.0002 44.0002 31.0282 44.0002 20.0001C44.0002 8.97205 35.028 0 24.0001 0ZM24.0001 36.5716C14.8628 36.5716 7.42862 29.1374 7.42862 20.0001C7.42862 10.8628 14.8628 3.42862 24.0001 3.42862C33.1374 3.42862 40.5716 10.8628 40.5716 20.0001C40.5716 29.1374 33.1372 36.5716 24.0001 36.5716Z" fill="white" fill-opacity="0.75"/>
<path d="M31.7388 12.2623C31.0692 11.5926 29.9833 11.5926 29.3148 12.2623L24.0001 17.5777L18.6853 12.2623C18.0156 11.5926 16.9309 11.5926 16.2613 12.2623C15.5916 12.9319 15.5916 14.0166 16.2613 14.6863L21.576 20.0015L16.261 25.317C15.5914 25.9866 15.5914 27.0713 16.261 27.741C16.5957 28.0757 17.0345 28.2433 17.4732 28.2433C17.9119 28.2433 18.351 28.0759 18.6853 27.741L24.0001 22.4258L29.3148 27.741C29.6495 28.0757 30.0882 28.2433 30.5269 28.2433C30.9657 28.2433 31.4041 28.0759 31.7391 27.741C32.4087 27.0713 32.4087 25.9866 31.7391 25.317L26.4241 20.0017L31.7388 14.6865C32.4085 14.0169 32.4085 12.9319 31.7388 12.2623Z" fill="white" fill-opacity="0.75"/>
</g>
<defs>
<filter id="filter0_d" x="0" y="0" width="48" height="48" filterUnits="userSpaceOnUse" color-interpolation-filters="sRGB">
<feFlood flood-opacity="0" result="BackgroundImageFix"/>
<feColorMatrix in="SourceAlpha" type="matrix" values="0 0 0 0 0 0 0 0 0 0 0 0 0 0 0 0 0 0 127 0"/>
<feOffset dy="4"/>
<feGaussianBlur stdDeviation="2"/>
<feColorMatrix type="matrix" values="0 0 0 0 0 0 0 0 0 0 0 0 0 0 0 0 0 0 0.25 0"/>
<feBlend mode="normal" in2="BackgroundImageFix" result="effect1_dropShadow"/>
<feBlend mode="normal" in="SourceGraphic" in2="effect1_dropShadow" result="shape"/>
</filter>
<clipPath id="clip0">
<rect width="40" height="40" fill="white" transform="translate(4)"/>
</clipPath>
</defs>
</svg>
