<svg width="16" height="16" viewBox="0 0 16 16" fill="none" xmlns="http://www.w3.org/2000/svg">
<path d="M5.36563 8.51877L3.49063 7.58126C3.25938 7.46563 2.97813 7.55939 2.86251 7.79064C2.74688 8.02189 2.84064 8.30314 3.07189 8.41877L4.94689 9.35627C5.17814 9.4719 5.45938 9.37815 5.57501 9.1469C5.69063 8.91565 5.59688 8.63439 5.36563 8.51877Z" fill="url(#paint0_linear)"/>
<path d="M10.325 7.79064C10.2094 7.55939 9.92815 7.46563 9.6969 7.58126L7.82189 8.51877C7.59063 8.63439 7.49688 8.91565 7.61251 9.1469C7.72814 9.37815 8.00939 9.4719 8.24064 9.35627L10.1156 8.41877C10.3469 8.30314 10.4406 8.02189 10.325 7.79064Z" fill="url(#paint1_linear)"/>
<path d="M15.5312 10.3438H14.9812C14.3125 10.3438 13.6781 10.1031 13.1812 9.66562C13.1844 9.57812 13.1875 9.49375 13.1875 9.40625V6.59375C13.1875 2.96563 10.2219 0 6.59375 0C2.96563 0 0 2.96563 0 6.59375V9.40625C0 13.0344 2.96563 16 6.59375 16C7.96875 16 9.28125 15.5781 10.3875 14.7906C11.0781 15.5531 12.0656 16 13.1094 16H13.6562C13.9156 16 14.125 15.7906 14.125 15.5312V13.6562C14.125 13.3969 13.9156 13.1875 13.6562 13.1875H13.1062C12.7656 13.1875 12.4281 13.125 12.1125 13C12.275 12.7531 12.4188 12.4969 12.5469 12.2312C13.2312 12.8406 14.1062 13.1844 14.9812 13.1844H15.5312C15.7906 13.1844 16 12.975 16 12.7156V10.8094C16 10.5531 15.7906 10.3438 15.5312 10.3438ZM6.59375 0.9375C9.60313 0.9375 12.0719 3.3 12.2406 6.26875C10.8313 5.1125 8.41875 4.71875 6.59375 4.71875C4.74688 4.71875 2.34687 5.12188 0.946875 6.26875C1.11562 3.3 3.58437 0.9375 6.59375 0.9375ZM13.1875 14.125V15.0625C12.3188 15.0625 11.625 14.7437 11.1125 14.1969C11.2469 14.0687 11.375 13.9406 11.5281 13.7688C12.0875 14.0344 12.6125 14.125 13.1875 14.125ZM6.59375 15.0625C3.58437 15.0625 1.11562 12.7 0.946875 9.73125C2.35625 10.8875 4.76875 11.2812 6.59375 11.2812C8.44062 11.2812 10.8406 10.8781 12.2406 9.73125C12.0719 12.7 9.60313 15.0625 6.59375 15.0625ZM6.59375 10.3438C3.25938 10.3438 0.9375 9.10938 0.9375 8C0.9375 6.89062 3.25938 5.65625 6.59375 5.65625C9.92812 5.65625 12.25 6.89062 12.25 8C12.25 9.10938 9.92812 10.3438 6.59375 10.3438ZM15.0625 12.25C14.2469 12.25 13.5719 11.9406 13.05 11.4187L12.9156 11.2844C12.9687 11.1031 13.0156 10.9219 13.0531 10.7344C13.6969 11.1344 14.3531 11.2812 15.0625 11.2812V12.25Z" fill="url(#paint2_linear)"/>
<defs>
<linearGradient id="paint0_linear" x1="2.52214" y1="7.53174" x2="5.69565" y2="7.66109" gradientUnits="userSpaceOnUse">
<stop stop-color="#C72328"/>
<stop offset="1" stop-color="#DD2476"/>
</linearGradient>
<linearGradient id="paint1_linear" x1="7.27214" y1="7.53174" x2="10.4457" y2="7.66109" gradientUnits="userSpaceOnUse">
<stop stop-color="#C72328"/>
<stop offset="1" stop-color="#DD2476"/>
</linearGradient>
<linearGradient id="paint2_linear" x1="-1.65517" y1="-1.01208e-05" x2="16.4214" y2="0.491111" gradientUnits="userSpaceOnUse">
<stop stop-color="#C72328"/>
<stop offset="1" stop-color="#DD2476"/>
</linearGradient>
</defs>
</svg>
