<svg width="20" height="20" viewBox="0 0 20 20" fill="none" xmlns="http://www.w3.org/2000/svg">
<path d="M19.6464 2.22306L17.7789 0.355534C17.5484 0.125023 17.2436 0 16.9194 0C16.5951 0 16.2903 0.125023 16.0598 0.355534L14.4267 1.98864L1.27197 15.1434C1.26415 15.1512 1.25634 15.1629 1.24853 15.1707C1.24462 15.1746 1.24462 15.1746 1.24071 15.1785C1.2329 15.1864 1.22508 15.1981 1.22118 15.2059C1.21727 15.2098 1.21727 15.2137 1.21336 15.2176C1.20946 15.2254 1.20555 15.2332 1.20164 15.2372C1.19774 15.245 1.19383 15.2528 1.18992 15.2567C1.18602 15.2606 1.18602 15.2645 1.18211 15.2684C1.1782 15.2801 1.17039 15.2879 1.16648 15.2997C1.16648 15.3036 1.16257 15.3075 1.16257 15.3114C1.15867 15.3231 1.15476 15.3348 1.15085 15.3465C1.15085 15.3465 1.15085 15.3465 1.15085 15.3505L0.326484 18.2807L0.0178335 19.3785C-0.0290501 19.5465 0.0178335 19.7302 0.142856 19.8552C0.154577 19.8669 0.166298 19.8786 0.178019 19.8864C0.263972 19.9568 0.373367 19.9958 0.486669 19.9958C0.529646 19.9958 0.576529 19.988 0.619506 19.9763L4.64758 18.8472H4.65149C4.65931 18.8433 4.66712 18.8433 4.67493 18.8394C4.68275 18.8355 4.69056 18.8355 4.69837 18.8316C4.70619 18.8276 4.7101 18.8276 4.71791 18.8237C4.72572 18.8198 4.73354 18.8159 4.74135 18.812C4.74526 18.8081 4.74916 18.8081 4.75307 18.8042C4.76089 18.8003 4.77261 18.7925 4.78042 18.7886C4.78433 18.7847 4.78823 18.7847 4.78823 18.7808C4.79996 18.773 4.80777 18.7651 4.81558 18.7612C4.81949 18.7573 4.8234 18.7573 4.8234 18.7534C4.83121 18.7456 4.83903 18.7378 4.85075 18.73L18.0055 5.57523L19.6386 3.94212C20.1192 3.46938 20.1192 2.6958 19.6464 2.22306ZM1.72518 18.6636L1.33839 18.2768L1.85801 16.4171L3.58489 18.1439L1.72518 18.6636ZM4.51475 17.6985L3.75289 16.9367L3.06526 16.2491L2.30341 15.4872L14.7705 3.02008L15.5324 3.78194L16.22 4.46956L16.9819 5.23142L4.51475 17.6985ZM18.9588 3.2545L17.6695 4.5438L16.5638 3.43813L15.4581 2.33246L16.7474 1.04316C16.81 0.980647 16.8803 0.972834 16.9194 0.972834C16.9584 0.972834 17.0287 0.980647 17.0913 1.04316L18.9588 2.91069C19.0526 3.00445 19.0526 3.16073 18.9588 3.2545Z" fill="url(#paint0_linear)"/>
<defs>
<linearGradient id="paint0_linear" x1="-2.06897" y1="-1.26484e-05" x2="20.5267" y2="0.614016" gradientUnits="userSpaceOnUse">
<stop stop-color="#C72328"/>
<stop offset="1" stop-color="#DD2476"/>
</linearGradient>
</defs>
</svg>
