<svg width="51" height="51" viewBox="0 0 51 51" fill="none" xmlns="http://www.w3.org/2000/svg">
<path d="M50.0945 5.66777L45.3332 0.906445C44.7455 0.31875 43.9686 0 43.1418 0C42.315 0 41.5381 0.31875 40.9504 0.906445L36.7867 5.07012L3.24824 38.6086C3.22832 38.6285 3.20839 38.6584 3.18847 38.6783C3.17851 38.6883 3.17851 38.6883 3.16855 38.6982C3.14863 38.7182 3.12871 38.748 3.11875 38.768C3.10879 38.7779 3.10879 38.7879 3.09882 38.7979C3.08886 38.8178 3.0789 38.8377 3.06894 38.8477C3.05898 38.8676 3.04902 38.8875 3.03906 38.8975C3.0291 38.9074 3.0291 38.9174 3.01914 38.9273C3.00918 38.9572 2.98925 38.9771 2.97929 39.007C2.97929 39.017 2.96933 39.027 2.96933 39.0369C2.95937 39.0668 2.94941 39.0967 2.93945 39.1266C2.93945 39.1266 2.93945 39.1266 2.93945 39.1365L0.837691 46.6072L0.0507771 49.4062C-0.0687541 49.8346 0.0507771 50.3027 0.369527 50.6215C0.39941 50.6514 0.429293 50.6812 0.459176 50.7012C0.678316 50.8805 0.957223 50.9801 1.24609 50.9801C1.35566 50.9801 1.47519 50.9602 1.58476 50.9303L11.8545 48.0516H11.8644C11.8844 48.0416 11.9043 48.0416 11.9242 48.0316C11.9441 48.0217 11.9641 48.0217 11.984 48.0117C12.0039 48.0018 12.0139 48.0018 12.0338 47.9918C12.0537 47.9818 12.0736 47.9719 12.0936 47.9619C12.1035 47.952 12.1135 47.952 12.1234 47.942C12.1434 47.932 12.1732 47.9121 12.1932 47.9021C12.2031 47.8922 12.2131 47.8922 12.2131 47.8822C12.243 47.8623 12.2629 47.8424 12.2828 47.8324C12.2928 47.8225 12.3027 47.8225 12.3027 47.8125C12.3227 47.7926 12.3426 47.7727 12.3725 47.7527L45.9109 14.2143L50.0746 10.0506C51.2998 8.84531 51.2998 6.87305 50.0945 5.66777ZM4.40371 47.5834L3.41757 46.5973L4.74238 41.8559L9.14511 46.2586L4.40371 47.5834ZM11.5158 45.123L9.57343 43.1807L7.82031 41.4275L5.87793 39.4852L37.6633 7.6998L39.6057 9.64219L41.3588 11.3953L43.3012 13.3377L11.5158 45.123ZM48.3414 8.29746L45.0543 11.5846L42.2354 8.76562L39.4164 5.94668L42.7035 2.65957C42.8629 2.5002 43.0422 2.48027 43.1418 2.48027C43.2414 2.48027 43.4207 2.5002 43.5801 2.65957L48.3414 7.4209C48.5805 7.65996 48.5805 8.0584 48.3414 8.29746Z" fill="white"/>
</svg>
