<svg width="15" height="20" viewBox="0 0 15 20" fill="none" xmlns="http://www.w3.org/2000/svg">
<circle cx="7.49999" cy="7.5" r="2" stroke="white"/>
<path d="M7.69983 0C11.7271 0 15 3.15173 15 7.02988C15 8.33822 14.6228 9.61922 13.909 10.7284L8.1135 19.7227C8.004 19.8946 7.80527 20 7.59844 20H7.59438C7.38349 20 7.18476 19.8906 7.07526 19.7149L1.4298 10.6346C0.756557 9.54892 0.399661 8.30307 0.399661 7.03378C0.399661 3.15173 3.67257 0 7.69983 0ZM2.4721 10.0293L7.60655 18.2855L12.8748 10.1074C13.467 9.18571 13.7914 8.11951 13.7914 7.02988C13.7914 3.80004 11.0538 1.16384 7.69983 1.16384C4.34581 1.16384 1.6123 3.80004 1.6123 7.02988C1.6123 8.08826 1.91242 9.12712 2.4721 10.0293Z" fill="white"/>
</svg>
