<svg width="21" height="25" viewBox="0 0 21 25" fill="none" xmlns="http://www.w3.org/2000/svg">
<g filter="url(#filter0_d)">
<path d="M10.6508 2C13.8732 2 16.4921 4.52187 16.4921 7.625C16.4921 8.67187 16.1903 9.69687 15.6191 10.5844L10.9818 17.7812C10.8942 17.9187 10.7352 18.0031 10.5697 18.0031H10.5664C10.3977 18.0031 10.2387 17.9156 10.1511 17.775L5.63381 10.5094C5.09512 9.64062 4.80954 8.64375 4.80954 7.62812C4.80954 4.52187 7.42838 2 10.6508 2ZM6.46782 10.025L10.5762 16.6312L14.7916 10.0875C15.2654 9.34999 15.525 8.49687 15.525 7.625C15.525 5.04062 13.3346 2.93125 10.6508 2.93125C7.96707 2.93125 5.77984 5.04062 5.77984 7.625C5.77984 8.47187 6.01998 9.30312 6.46782 10.025Z" fill="white"/>
</g>
<defs>
<filter id="filter0_d" x="0.80954" y="0" width="19.6825" height="24.0031" filterUnits="userSpaceOnUse" color-interpolation-filters="sRGB">
<feFlood flood-opacity="0" result="BackgroundImageFix"/>
<feColorMatrix in="SourceAlpha" type="matrix" values="0 0 0 0 0 0 0 0 0 0 0 0 0 0 0 0 0 0 127 0"/>
<feOffset dy="2"/>
<feGaussianBlur stdDeviation="2"/>
<feColorMatrix type="matrix" values="0 0 0 0 0 0 0 0 0 0 0 0 0 0 0 0 0 0 0.25 0"/>
<feBlend mode="normal" in2="BackgroundImageFix" result="effect1_dropShadow"/>
<feBlend mode="normal" in="SourceGraphic" in2="effect1_dropShadow" result="shape"/>
</filter>
</defs>
</svg>