<svg width="44" height="48" viewBox="0 0 44 48" fill="none" xmlns="http://www.w3.org/2000/svg">
<g clip-path="url(#clip0)" filter="url(#filter0_d)">
<path d="M25.6546 18.7274C25.3082 18.3814 24.7469 18.3814 24.4007 18.7274L22.7362 20.392C22.5067 20.3069 22.2588 20.2602 22.0001 20.2602C21.7412 20.2602 21.493 20.307 21.2634 20.3923L17.8421 16.9708C17.4959 16.6248 16.9346 16.6248 16.5885 16.9708C16.2423 17.317 16.2423 17.8783 16.5885 18.2246L20.0101 21.6463C19.9251 21.8756 19.8784 22.1235 19.8784 22.382C19.8784 23.552 20.8302 24.5038 22.0002 24.5038C23.1702 24.5038 24.122 23.552 24.122 22.382C24.122 22.1233 24.0753 21.8752 23.9901 21.6456L25.6547 19.9811C26.0008 19.6349 26.0008 19.0736 25.6546 18.7274ZM22.0001 22.9081C21.7099 22.9081 21.4739 22.672 21.4739 22.3819C21.4739 22.0918 21.71 21.8557 22.0001 21.8557C22.2902 21.8557 22.5262 22.0918 22.5262 22.3819C22.5262 22.672 22.2901 22.9081 22.0001 22.9081Z" fill="white" fill-opacity="0.75"/>
<path d="M32.4655 8.94209L33.4699 7.50772L37.4965 10.3272C37.6465 10.4324 37.8243 10.4876 38.0049 10.4876C38.0562 10.4876 38.1076 10.4832 38.1588 10.4742C38.3904 10.4334 38.5962 10.3023 38.731 10.1097C40.7633 7.20725 40.0554 3.1925 37.153 1.16009C34.2506 -0.872484 30.2357 -0.164362 28.2036 2.73805C27.9228 3.13906 28.0203 3.69179 28.4213 3.97257L32.0177 6.49085L31.0131 7.92561C28.3968 6.28858 25.3073 5.34062 22.0001 5.34062C18.693 5.34062 15.6035 6.28858 12.9872 7.92561L11.9825 6.49085L15.5789 3.97257C15.9799 3.69172 16.0774 3.13906 15.7966 2.73805C13.7644 -0.16444 9.74964 -0.872328 6.84715 1.16001C3.94474 3.19226 3.23677 7.20701 5.26903 10.1095C5.40387 10.3022 5.60973 10.4333 5.84121 10.474C5.89239 10.4832 5.94387 10.4875 5.99512 10.4875C6.17574 10.4875 6.35363 10.4322 6.50355 10.3271L10.5302 7.50756L11.5346 8.94193C7.53519 12.0634 4.95864 16.9272 4.95864 22.382C4.95864 28.314 8.00581 33.5468 12.6164 36.5999L11.2125 38.6049C10.9317 39.0059 11.0292 39.5587 11.4302 39.8395C11.5849 39.9479 11.7622 39.9999 11.9378 39.9999C12.2172 39.9999 12.4923 39.8681 12.6647 39.6218L14.148 37.5035C16.4993 38.7293 19.1699 39.4237 22 39.4237C24.8297 39.4237 27.5001 38.7295 29.8512 37.5039L31.3342 39.6219C31.5066 39.8681 31.7817 40.0001 32.061 40.0001C32.2366 40.0001 32.414 39.9481 32.5687 39.8396C32.9697 39.5588 33.0671 39.0061 32.7863 38.6051L31.3828 36.6006C35.9938 33.5476 39.0413 28.3145 39.0413 22.3823C39.0416 16.9272 36.4651 12.0634 32.4655 8.94209ZM30.2337 3.07742C31.8031 1.55985 34.2828 1.31462 36.1362 2.61219C37.9897 3.91007 38.6073 6.32421 37.718 8.31787L30.2337 3.07742ZM6.28238 8.31795C5.39301 6.32428 6.01059 3.91007 7.8641 2.61227C8.67464 2.04477 9.60471 1.77235 10.5264 1.77235C11.712 1.77235 12.8836 2.22352 13.7666 3.0775L6.28238 8.31795ZM22.0001 37.6506C13.5809 37.6506 6.73152 30.8012 6.73152 22.382C6.73152 13.9628 13.5809 7.1135 22.0001 7.1135C30.4193 7.1135 37.2687 13.9629 37.2687 22.382C37.2687 30.8011 30.4192 37.6506 22.0001 37.6506Z" fill="white" fill-opacity="0.75"/>
<path d="M22 9.84924C15.0894 9.84924 9.46716 15.4715 9.46716 22.3821C9.46716 29.2927 15.0894 34.9149 22 34.9149C28.9106 34.9149 34.5328 29.2927 34.5328 22.3821C34.5328 15.4715 28.9106 9.84924 22 9.84924ZM30.3312 29.4596L29.7322 28.8607C29.3861 28.5146 28.8247 28.5146 28.4786 28.8607C28.1325 29.2069 28.1325 29.7682 28.4786 30.1143L29.0776 30.7133C27.3798 32.1578 25.237 33.0938 22.8865 33.2832V32.4307C22.8865 31.9412 22.4896 31.5442 22 31.5442C21.5104 31.5442 21.1135 31.9412 21.1135 32.4307V33.2832C18.7629 33.0938 16.6202 32.1578 14.9224 30.7133L15.5214 30.1143C15.8675 29.7681 15.8675 29.2068 15.5214 28.8607C15.1752 28.5146 14.6139 28.5146 14.2676 28.8607L13.6686 29.4597C12.2242 27.762 11.2882 25.6192 11.0987 23.2686H11.9512C12.4408 23.2686 12.8377 22.8717 12.8377 22.3821C12.8377 21.8925 12.4408 21.4956 11.9512 21.4956H11.0987C11.2882 19.145 12.2242 17.0023 13.6686 15.3045L14.2676 15.9034C14.4407 16.0765 14.6676 16.163 14.8944 16.163C15.1212 16.163 15.3482 16.0764 15.5212 15.9034C15.8674 15.5573 15.8674 14.9959 15.5212 14.6497L14.9222 14.0507C16.6199 12.6063 18.7628 11.6703 21.1134 11.4808V12.3334C21.1134 12.8229 21.5102 13.2199 21.9998 13.2199C22.4895 13.2199 22.8863 12.8229 22.8863 12.3334V11.4808C25.2369 11.6703 27.3797 12.6063 29.0774 14.0507L28.4785 14.6497C28.1323 14.9959 28.1323 15.5572 28.4785 15.9034C28.6516 16.0765 28.8785 16.163 29.1053 16.163C29.3321 16.163 29.559 16.0764 29.7321 15.9034L30.3311 15.3045C31.7755 17.0023 32.7114 19.145 32.9009 21.4956H32.0484C31.5588 21.4956 31.1619 21.8925 31.1619 22.3821C31.1619 22.8717 31.5589 23.2686 32.0485 23.2686H32.901C32.7117 25.6192 31.7757 27.7619 30.3312 29.4596Z" fill="white" fill-opacity="0.75"/>
</g>
<defs>
<filter id="filter0_d" x="-2" y="0" width="48" height="48" filterUnits="userSpaceOnUse" color-interpolation-filters="sRGB">
<feFlood flood-opacity="0" result="BackgroundImageFix"/>
<feColorMatrix in="SourceAlpha" type="matrix" values="0 0 0 0 0 0 0 0 0 0 0 0 0 0 0 0 0 0 127 0"/>
<feOffset dy="4"/>
<feGaussianBlur stdDeviation="2"/>
<feColorMatrix type="matrix" values="0 0 0 0 0 0 0 0 0 0 0 0 0 0 0 0 0 0 0.25 0"/>
<feBlend mode="normal" in2="BackgroundImageFix" result="effect1_dropShadow"/>
<feBlend mode="normal" in="SourceGraphic" in2="effect1_dropShadow" result="shape"/>
</filter>
<clipPath id="clip0">
<rect width="40" height="40" fill="white" transform="translate(2)"/>
</clipPath>
</defs>
</svg>
