<svg width="22" height="22" viewBox="0 0 22 22" fill="none" xmlns="http://www.w3.org/2000/svg">
<path d="M16.5002 8.25016C16.5002 3.69413 12.8063 0 8.25016 0C3.69413 0 0 3.69413 0 8.25016C0 12.8062 3.69413 16.5001 8.25016 16.5001C12.8063 16.5001 16.5002 12.8062 16.5002 8.25016ZM8.25016 14.4375C4.8381 14.4375 2.0626 11.6623 2.0626 8.25021C2.0626 4.83815 4.8381 2.06264 8.25016 2.06264C11.6621 2.06264 14.4379 4.83815 14.4379 8.25021C14.4379 11.6623 11.6621 14.4375 8.25016 14.4375Z" fill="url(#paint0_linear)"/>
<path d="M21.3956 18.4796L16.3484 13.432C15.5964 14.6016 14.6011 15.5963 13.4315 16.3484L18.4791 21.396C19.285 22.2017 20.5915 22.2017 21.3956 21.396C22.2014 20.5917 22.2014 19.2852 21.3956 18.4796Z" fill="url(#paint1_linear)"/>
<defs>
<linearGradient id="paint0_linear" x1="-2.27586" y1="-1.39163e-05" x2="22.5793" y2="0.675268" gradientUnits="userSpaceOnUse">
<stop stop-color="#C72328"/>
<stop offset="1" stop-color="#DD2476"/>
</linearGradient>
<linearGradient id="paint1_linear" x1="-2.27586" y1="-1.39163e-05" x2="22.5793" y2="0.675268" gradientUnits="userSpaceOnUse">
<stop stop-color="#C72328"/>
<stop offset="1" stop-color="#DD2476"/>
</linearGradient>
</defs>
</svg>
