<svg width="16" height="16" viewBox="0 0 16 16" fill="none" xmlns="http://www.w3.org/2000/svg">
<g clip-path="url(#clip0)">
<path d="M15.1811 6.32045L14.0581 6.12993C13.9411 5.75225 13.7907 5.38793 13.6069 5.04032L14.2686 4.11448C14.5494 3.72008 14.506 3.18195 14.1617 2.84103L13.1657 1.845C12.9785 1.65782 12.7311 1.55421 12.4671 1.55421C12.2599 1.55421 12.0627 1.61771 11.8956 1.73804L10.9664 2.39983C10.6054 2.20932 10.2277 2.05222 9.83664 1.93524L9.64947 0.825569C9.56925 0.347608 9.15814 0 8.67349 0H7.26635C6.7817 0 6.37059 0.347608 6.29037 0.825569L6.09651 1.96198C5.72216 2.07896 5.35784 2.23271 5.01024 2.41989L4.09108 1.75809C3.92396 1.63777 3.72342 1.57426 3.51619 1.57426C3.25214 1.57426 3.00146 1.67788 2.81763 1.86505L1.81826 2.86108C1.47733 3.20201 1.43054 3.74013 1.7113 4.13453L2.37978 5.07374C2.19595 5.42469 2.04888 5.78901 1.93524 6.1667L0.825569 6.35388C0.347608 6.43409 0 6.84521 0 7.32985V8.737C0 9.22164 0.347608 9.63276 0.825569 9.71297L1.96198 9.90683C2.07896 10.2812 2.23271 10.6455 2.41989 10.9931L1.76144 11.9089C1.48068 12.3033 1.52413 12.8414 1.86839 13.1824L2.86442 14.1784C3.0516 14.3656 3.29893 14.4692 3.56298 14.4692C3.77021 14.4692 3.96741 14.4057 4.13453 14.2854L5.07374 13.6169C5.41132 13.794 5.76561 13.9377 6.12993 14.0514L6.31711 15.1744C6.39733 15.6524 6.80844 16 7.29309 16H8.70357C9.18822 16 9.59933 15.6524 9.67955 15.1744L9.87006 14.0514C10.2478 13.9344 10.6121 13.784 10.9597 13.6002L11.8855 14.262C12.0526 14.3823 12.2532 14.4458 12.4604 14.4458C12.7245 14.4458 12.9718 14.3422 13.159 14.155L14.155 13.159C14.4959 12.818 14.5427 12.2799 14.262 11.8855L13.6002 10.9563C13.784 10.6054 13.9377 10.2411 14.0514 9.86672L15.1744 9.67955C15.6524 9.59933 16 9.18822 16 8.70357V7.29643C16.0067 6.81178 15.6591 6.40067 15.1811 6.32045ZM15.1042 8.70357C15.1042 8.74702 15.0742 8.78379 15.0307 8.79047L13.6269 9.02444C13.4498 9.05452 13.3094 9.18488 13.2659 9.35534C13.1389 9.84667 12.9451 10.3179 12.6844 10.7558C12.5941 10.9095 12.6008 11.1001 12.7044 11.2471L13.53 12.4103C13.5534 12.4437 13.55 12.4938 13.5199 12.5239L12.5239 13.5199C12.5005 13.5433 12.4771 13.5467 12.4604 13.5467C12.4404 13.5467 12.4236 13.54 12.4103 13.53L11.2505 12.7044C11.1067 12.6008 10.9129 12.5941 10.7591 12.6844C10.3213 12.9451 9.85001 13.1389 9.35868 13.2659C9.18488 13.3094 9.05452 13.4531 9.02778 13.6269L8.79047 15.0307C8.78379 15.0742 8.74702 15.1042 8.70357 15.1042H7.29643C7.25298 15.1042 7.21621 15.0742 7.20953 15.0307L6.97556 13.6269C6.94548 13.4498 6.81512 13.3094 6.64466 13.2659C6.1667 13.1423 5.70545 12.9517 5.27428 12.7044C5.20409 12.6643 5.12388 12.6442 5.047 12.6442C4.95676 12.6442 4.86317 12.671 4.7863 12.7278L3.61646 13.5601C3.59975 13.5701 3.58304 13.5768 3.56633 13.5768C3.55296 13.5768 3.52622 13.5734 3.50282 13.55L2.50679 12.554C2.47671 12.5239 2.47337 12.4771 2.49676 12.4404L3.31899 11.2872C3.4226 11.1402 3.42929 10.9463 3.33904 10.7926C3.07834 10.3581 2.87779 9.88678 2.75078 9.39545C2.70399 9.22498 2.56361 9.09463 2.38981 9.06455L0.975977 8.8239C0.932526 8.81721 0.902444 8.78045 0.902444 8.737V7.32985C0.902444 7.2864 0.932526 7.24963 0.975977 7.24295L2.36975 7.00898C2.5469 6.9789 2.69062 6.84855 2.73407 6.67474C2.85774 6.18341 3.04826 5.70879 3.30562 5.27094C3.39586 5.11719 3.38584 4.92668 3.28222 4.78295L2.44997 3.61312C2.42657 3.57969 2.42991 3.52956 2.46 3.49948L3.45603 2.50345C3.47942 2.48005 3.50282 2.47671 3.51953 2.47671C3.53959 2.47671 3.5563 2.48339 3.56967 2.49342L4.72279 3.31565C4.86986 3.41926 5.06371 3.42595 5.21746 3.3357C5.65197 3.07499 6.12325 2.87445 6.61458 2.74744C6.78504 2.70065 6.9154 2.56027 6.94548 2.38646L7.18613 0.972634C7.19281 0.929183 7.22958 0.899102 7.27303 0.899102H8.68018C8.72363 0.899102 8.76039 0.929183 8.76708 0.972634L9.00104 2.36641C9.03113 2.54356 9.16148 2.68728 9.33528 2.73073C9.83998 2.85774 10.3213 3.05494 10.7692 3.31899C10.9229 3.40923 11.1134 3.40255 11.2605 3.29893L12.4136 2.47002C12.4303 2.46 12.447 2.45331 12.4638 2.45331C12.4771 2.45331 12.5039 2.45665 12.5273 2.48005L13.5233 3.47608C13.5534 3.50616 13.5567 3.55296 13.5333 3.58972L12.7078 4.74953C12.6041 4.89325 12.5975 5.08711 12.6877 5.24086C12.9484 5.67871 13.1423 6.14999 13.2693 6.64132C13.3127 6.81512 13.4564 6.94548 13.6302 6.97222L15.034 7.20953C15.0775 7.21621 15.1076 7.25298 15.1076 7.29643L15.1042 8.70357Z" fill="url(#paint0_linear)"/>
<path d="M8.00151 4.54564C6.09635 4.54564 4.54883 6.09316 4.54883 7.99832C4.54883 9.90348 6.09635 11.451 8.00151 11.451C9.90667 11.451 11.4542 9.90348 11.4542 7.99832C11.4542 6.09316 9.90667 4.54564 8.00151 4.54564ZM8.00151 10.5486C6.59437 10.5486 5.45127 9.40547 5.45127 7.99832C5.45127 6.59118 6.59437 5.44808 8.00151 5.44808C9.40866 5.44808 10.5518 6.59118 10.5518 7.99832C10.5518 9.40547 9.40866 10.5486 8.00151 10.5486Z" fill="url(#paint1_linear)"/>
</g>
<defs>
<linearGradient id="paint0_linear" x1="-1.65518" y1="-1.01208e-05" x2="16.4215" y2="0.491117" gradientUnits="userSpaceOnUse">
<stop stop-color="#C72328"/>
<stop offset="1" stop-color="#DD2476"/>
</linearGradient>
<linearGradient id="paint1_linear" x1="3.83448" y1="4.54563" x2="11.6361" y2="4.7576" gradientUnits="userSpaceOnUse">
<stop stop-color="#C72328"/>
<stop offset="1" stop-color="#DD2476"/>
</linearGradient>
<clipPath id="clip0">
<rect width="16" height="16" fill="white"/>
</clipPath>
</defs>
</svg>
