<svg width="10" height="10" viewBox="0 0 10 10" fill="none" xmlns="http://www.w3.org/2000/svg">
<path d="M9.46475 0H5.72646C5.58388 0 5.44911 0.0566406 5.34755 0.15625L0.156128 5.34766C-0.0528566 5.55664 -0.0528566 5.89648 0.156128 6.10547L3.89442 9.84375C3.99598 9.94531 4.13075 10 4.27333 10C4.41591 10 4.55067 9.94336 4.65224 9.84375L9.84366 4.65234C9.94522 4.55078 9.99991 4.41602 9.99991 4.27344V0.535156C9.99991 0.240234 9.75967 0 9.46475 0ZM8.88076 2.09766C8.7499 2.22852 8.57608 2.30078 8.39053 2.30078C8.20498 2.30078 8.03115 2.22852 7.90029 2.09766C7.76943 1.9668 7.69717 1.79297 7.69717 1.60742C7.69717 1.42188 7.76943 1.24805 7.90029 1.11719C8.16982 0.847656 8.60928 0.847656 8.87881 1.11719C9.1503 1.38867 9.1503 1.82812 8.88076 2.09766Z" fill="url(#paint0_linear)"/>
<defs>
<linearGradient id="paint0_linear" x1="-1.03515" y1="-6.3255e-06" x2="10.2633" y2="0.306976" gradientUnits="userSpaceOnUse">
<stop stop-color="#023CB1"/>
<stop offset="1" stop-color="#1CB7F4"/>
</linearGradient>
</defs>
</svg>
