<svg width="41" height="39" viewBox="0 0 41 39" fill="none" xmlns="http://www.w3.org/2000/svg">
<g filter="url(#filter0_d)">
<path d="M28.637 7.10983L24.9355 3.73019C24.7657 3.57516 24.5111 3.59054 24.3245 3.72993L23.5102 4.47337L20.7259 2.58171C20.5392 2.44216 20.2846 2.48854 20.132 2.65893L16.214 7.47642L16.1971 7.4919L4.78251 21.6036C4.78251 21.6036 4.57899 21.8824 4.8167 22.0995L8.50124 25.4636C8.67103 25.6186 8.9256 25.6033 9.09525 25.4794C9.84164 24.7979 11.0296 24.7984 11.7767 25.4805C12.5238 26.1626 12.5244 27.2473 11.778 27.9288C11.6084 28.0837 11.6255 28.3162 11.7613 28.4712L15.4458 31.8353C15.6156 31.9903 15.8702 31.975 16.0568 31.8356L35.5649 14.0239C35.7345 13.869 35.7174 13.6365 35.5646 13.466L31.897 10.1174C31.7272 9.96236 31.4727 9.97774 31.303 10.1016C30.5566 10.7831 29.3686 10.7826 28.6215 10.1005C27.8744 9.41836 27.8739 8.33366 28.6203 7.65217C28.7899 7.49729 28.7728 7.26485 28.637 7.10983ZM16.6387 8.26688L16.6472 8.27463C16.8041 8.06163 16.9737 7.85251 17.1518 7.65114L17.1476 7.64727L20.5736 3.4339L22.9335 5.03097L8.83679 17.9019L16.6387 8.26688ZM27.7716 7.37289C26.8896 8.4882 27.145 10.0534 28.3673 10.8597C29.3181 11.5419 30.6079 11.5424 31.5919 10.892L34.7162 13.7446L30.3226 17.7561L30.3056 17.7406L29.6949 18.2982L29.7119 18.3137L15.8018 31.0142L12.6776 28.1617C13.5595 27.0463 13.3042 25.4812 12.0818 24.6749C11.1141 24.0391 9.8073 24.0231 8.85724 24.6735L5.73302 21.8209L18.286 10.3595C18.2903 10.3556 18.2903 10.3556 18.2945 10.3518C18.3115 10.3285 18.3369 10.3053 18.3581 10.2859L18.3539 10.282L20.2623 8.5396L20.2538 8.53185L24.6473 4.52034L27.7716 7.37289V7.37289Z" fill="white"/>
<path d="M28.8408 6.96089L28.8318 6.95059L28.8216 6.94126L25.1201 3.56162C24.8334 3.29989 24.4236 3.34792 24.1592 3.54541L24.1491 3.55294L24.1399 3.56136L23.4851 4.15916L20.8861 2.39338C20.5668 2.15918 20.1539 2.25799 19.9299 2.50799L19.9297 2.50782L19.9224 2.51681L16.0159 7.32023L16.0124 7.32334L15.9986 7.33594L15.987 7.35028L4.57248 21.462L4.57224 21.4618L4.56524 21.4714L4.78251 21.6036C4.56524 21.4714 4.56517 21.4715 4.56511 21.4716L4.56497 21.4718L4.56469 21.4722L4.56407 21.473L4.56259 21.4751L4.5588 21.4805C4.55592 21.4848 4.55234 21.4901 4.54824 21.4966C4.54007 21.5095 4.52968 21.527 4.51859 21.5483C4.49679 21.5902 4.47031 21.6508 4.45442 21.7235C4.42167 21.8733 4.43401 22.0872 4.63208 22.268L8.31662 25.6322C8.59805 25.8891 9.00543 25.8502 9.25833 25.6655L9.26964 25.6573L9.27987 25.6479C9.92414 25.0597 10.9468 25.0599 11.5921 25.6491C12.2374 26.2383 12.2376 27.172 11.5934 27.7603C11.3118 28.0173 11.3552 28.3894 11.5574 28.6201L11.5665 28.6304L11.5767 28.6397L15.2612 32.0039C15.5479 32.2656 15.9577 32.2176 16.2221 32.0201L16.2322 32.0126L16.2414 32.0041L35.7495 14.1924C36.0363 13.9306 35.9829 13.5563 35.7666 13.3151L35.7584 13.3059L35.7492 13.2975L32.0817 9.94882C31.8002 9.69186 31.3928 9.73078 31.1399 9.91547L31.1286 9.92373L31.1184 9.93307C30.4741 10.5213 29.4514 10.5211 28.8061 9.93192C28.1609 9.34274 28.1606 8.40898 28.8049 7.82074C29.0864 7.56367 29.043 7.19162 28.8408 6.96089ZM17.5024 7.63415L17.4915 7.62418L20.6277 3.76726L22.5348 5.05787L11.1298 15.4711L16.6685 8.63116L16.6869 8.64798L16.8639 8.40766C17.0163 8.20067 17.1814 7.99713 17.3549 7.80091L17.5024 7.63415ZM8.88813 24.3646L6.10226 21.8209L18.4707 10.5281L18.4707 10.528L18.4707 10.528L18.4707 10.528L18.4708 10.528L18.4708 10.528L18.4708 10.5279L18.4708 10.5279L18.4709 10.5279L18.4709 10.5279L18.4709 10.5278L18.4709 10.5278L18.4709 10.5278L18.471 10.5278L18.471 10.5278L18.471 10.5277L18.471 10.5277L18.4711 10.5277L18.4711 10.5277L18.4711 10.5277L18.4711 10.5276L18.4712 10.5276L18.4712 10.5276L18.4712 10.5276L18.4712 10.5275L18.4712 10.5275L18.4713 10.5275L18.4713 10.5275L18.4713 10.5275L18.4713 10.5274L18.4714 10.5274L18.4714 10.5274L18.4714 10.5274L18.4714 10.5274L18.4714 10.5273L18.4715 10.5273L18.4715 10.5273L18.4715 10.5273L18.4715 10.5273L18.4716 10.5272L18.4716 10.5272L18.4716 10.5272L18.4716 10.5272L18.4716 10.5272L18.4717 10.5271L18.4717 10.5271L18.4717 10.5271L18.4717 10.5271L18.4717 10.5271L18.4718 10.5271L18.4718 10.527L18.4718 10.527L18.4718 10.527L18.4718 10.527L18.4719 10.527L18.4719 10.5269L18.4719 10.5269L18.4719 10.5269L18.4719 10.5269L18.472 10.5269L18.472 10.5269L18.472 10.5268L18.472 10.5268L18.472 10.5268L18.4721 10.5268L18.4721 10.5268L18.4721 10.5267L18.4721 10.5267L18.4721 10.5267L18.4722 10.5267L18.4722 10.5267L18.4722 10.5267L18.4722 10.5266L18.4722 10.5266L18.4723 10.5266L18.4723 10.5266L18.4723 10.5266L18.4723 10.5266L18.4723 10.5265L18.4723 10.5265L18.4724 10.5265L18.4724 10.5265L18.4724 10.5265L18.4724 10.5265L18.4724 10.5264L18.4725 10.5264L18.4725 10.5264L18.4725 10.5264L18.4725 10.5264L18.4725 10.5264L18.4725 10.5263L18.4726 10.5263L18.4726 10.5263L18.4726 10.5263L18.4726 10.5263L18.4726 10.5263L18.4726 10.5262L18.4727 10.5262L18.4727 10.5262L18.4727 10.5262L18.4727 10.5262L18.4727 10.5262L18.4728 10.5262L18.4728 10.5261L18.4728 10.5261L18.4728 10.5261L18.4728 10.5261L18.4728 10.5261L18.4729 10.5261L18.4729 10.526L18.4729 10.526L18.4729 10.526L18.4729 10.526L18.4729 10.526L18.4729 10.526L18.473 10.526L18.473 10.5259L18.473 10.5259L18.473 10.5259L18.473 10.5259L18.473 10.5259L18.4731 10.5259L18.4731 10.5259L18.4731 10.5258L18.4731 10.5258L18.4731 10.5258L18.4731 10.5258L18.4732 10.5258L18.4732 10.5258L18.4732 10.5258L18.4732 10.5257L18.4732 10.5257L18.4732 10.5257L18.4732 10.5257L18.4733 10.5257L18.4733 10.5257L18.4733 10.5257L18.4733 10.5256L18.4733 10.5256L18.4733 10.5256L18.4734 10.5256L18.4734 10.5256L18.4734 10.5256L18.4734 10.5256L18.4734 10.5255L18.4734 10.5255L18.4734 10.5255L18.4735 10.5255L18.4735 10.5255L18.4735 10.5255L18.4735 10.5255L18.4735 10.5255L18.4735 10.5254L18.4735 10.5254L18.4736 10.5254L18.4736 10.5254L18.4736 10.5254L18.4736 10.5254L18.4736 10.5254L18.4736 10.5253L18.4736 10.5253L18.4737 10.5253L18.4737 10.5253L18.4737 10.5253L18.4737 10.5253L18.4737 10.5253L18.4737 10.5253L18.4737 10.5252L18.4738 10.5252L18.4738 10.5252L18.4738 10.5252L18.4738 10.5252L18.4738 10.5252L18.4738 10.5252L18.4738 10.5252L18.4739 10.5251L18.4739 10.5251L18.4739 10.5251L18.4739 10.5251L18.4739 10.5251L18.4739 10.5251L18.4739 10.5251L18.474 10.5251L18.474 10.525L18.474 10.525L18.474 10.525L18.474 10.525L18.474 10.525L18.474 10.525L18.474 10.525L18.4741 10.525L18.4741 10.5249L18.4741 10.5249L18.4741 10.5249L18.4741 10.5249L18.4741 10.5249L18.4741 10.5249L18.4741 10.5249L18.4742 10.5249L18.4742 10.5249L18.4742 10.5248L18.4742 10.5248L18.4742 10.5248L18.4742 10.5248L18.4742 10.5248L18.4743 10.5248L18.4743 10.5248L18.4743 10.5248L18.4743 10.5247L18.4743 10.5247L18.4743 10.5247L18.4743 10.5247L18.4743 10.5247L18.4744 10.5247L18.4744 10.5247L18.4744 10.5247L18.4744 10.5247L18.4744 10.5246L18.4744 10.5246L18.4744 10.5246L18.4744 10.5246L18.4745 10.5246L18.4745 10.5246L18.4745 10.5246L18.4745 10.5246L18.4745 10.5245L18.4745 10.5245L18.4745 10.5245L18.4745 10.5245L18.4746 10.5245L18.4746 10.5245L18.4746 10.5245L18.4746 10.5245L18.4746 10.5245L18.4746 10.5244L18.4746 10.5244L18.4746 10.5244L18.4747 10.5244L18.4747 10.5244L18.4747 10.5244L18.4747 10.5244L18.4747 10.5244L18.4747 10.5244L18.4747 10.5243L18.4747 10.5243L18.4748 10.5243L18.4748 10.5243L18.4748 10.5243L18.4748 10.5243L18.4748 10.5243L18.4748 10.5243L18.4748 10.5243L18.4748 10.5242L18.4749 10.5242L18.4749 10.5242L18.4749 10.5242L18.4749 10.5242L18.4749 10.5242L18.4749 10.5242L18.4749 10.5242L18.4749 10.5241L18.475 10.5241L18.475 10.5241L18.475 10.5241L18.475 10.5241L18.475 10.5241L18.475 10.5241L18.475 10.5241L18.475 10.5241L18.4751 10.524L18.4751 10.524L18.4751 10.524L18.4751 10.524L18.4751 10.524L18.4751 10.524L18.4751 10.524L18.4751 10.524L18.4752 10.524L18.4752 10.5239L18.4752 10.5239L18.4752 10.5239L18.4752 10.5239L18.4752 10.5239L18.4752 10.5239L18.4752 10.5239L18.4753 10.5239L18.4753 10.5239L18.4753 10.5238L18.4753 10.5238L18.4753 10.5238L18.4753 10.5238L18.4753 10.5238L18.4753 10.5238L18.4754 10.5238L18.4754 10.5238L18.4754 10.5237L18.4754 10.5237L18.4754 10.5237L18.4754 10.5237L18.4754 10.5237L18.4754 10.5237L18.4755 10.5237L18.4755 10.5237L18.4755 10.5237L18.4755 10.5236L18.4755 10.5236L18.4755 10.5236L18.4755 10.5236L18.4756 10.5236L18.4756 10.5236L18.4756 10.5236L18.4756 10.5236L18.4756 10.5236L18.4756 10.5235L18.4756 10.5235L18.4756 10.5235L18.4757 10.5235L18.4757 10.5235L18.4757 10.5235L18.4757 10.5235L18.4757 10.5235L18.4757 10.5234L18.4757 10.5234L18.4757 10.5234L18.4758 10.5234L18.4758 10.5234L18.4758 10.5234L18.4758 10.5234L18.4758 10.5234L18.4758 10.5233L18.4758 10.5233L18.4759 10.5233L18.4759 10.5233L18.4759 10.5233L18.4759 10.5233L18.4759 10.5233L18.4759 10.5233L18.4759 10.5232L18.4759 10.5232L18.476 10.5232L18.476 10.5232L18.476 10.5232L18.476 10.5232L18.476 10.5232L18.476 10.5232L18.476 10.5231L18.4761 10.5231L18.4761 10.5231L18.4761 10.5231L18.4761 10.5231L18.4761 10.5231L18.4761 10.5231L18.4761 10.5231L18.4762 10.523L18.4762 10.523L18.4762 10.523L18.4762 10.523L18.4762 10.523L18.4762 10.523L18.4762 10.523L18.4763 10.5229L18.4763 10.5229L18.4763 10.5229L18.4763 10.5229L18.4763 10.5229L18.4763 10.5229L18.4763 10.5229L18.4764 10.5229L18.4764 10.5228L18.4764 10.5228L18.4764 10.5228L18.4764 10.5228L18.4764 10.5228L18.4765 10.5228L18.4765 10.5228L18.4765 10.5227L18.4765 10.5227L18.4765 10.5227L18.4765 10.5227L18.4765 10.5227L18.4766 10.5227L18.4766 10.5227L18.4766 10.5227L18.4766 10.5226L18.4766 10.5226L18.4766 10.5226L18.4766 10.5226L18.4767 10.5226L18.4767 10.5226L18.4767 10.5226L18.4767 10.5225L18.4767 10.5225L18.4767 10.5225L18.4768 10.5225L18.4768 10.5225L18.4768 10.5225L18.4768 10.5224L18.4768 10.5224L18.4768 10.5224L18.4769 10.5224L18.4769 10.5224L18.4769 10.5224L18.4769 10.5224L18.4769 10.5223L18.4769 10.5223L18.477 10.5223L18.477 10.5223L18.477 10.5223L18.477 10.5223L18.477 10.5223L18.477 10.5222L18.4771 10.5222L18.4771 10.5222L18.4771 10.5222L18.4771 10.5222L18.4771 10.5222L18.4771 10.5221L18.4772 10.5221L18.4772 10.5221L18.4772 10.5221L18.4772 10.5221L18.4772 10.5221L18.4772 10.522L18.4773 10.522L18.4773 10.522L18.4773 10.522L18.4773 10.522L18.4773 10.522L18.4774 10.522L18.4774 10.5219L18.4774 10.5219L18.4774 10.5219L18.4774 10.5219L18.4774 10.5219L18.4775 10.5219L18.4775 10.5218L18.4775 10.5218L18.4775 10.5218L18.4775 10.5218L18.4776 10.5218L18.4776 10.5217L18.4776 10.5217L18.4776 10.5217L18.4776 10.5217L18.4777 10.5217L18.4777 10.5217L18.4777 10.5216L18.4777 10.5216L18.4777 10.5216L18.4777 10.5216L18.4778 10.5216L18.4778 10.5216L18.4778 10.5215L18.4778 10.5215L18.4778 10.5215L18.4779 10.5215L18.4779 10.5215L18.4779 10.5214L18.4779 10.5214L18.4779 10.5214L18.478 10.5214L18.478 10.5214L18.478 10.5214L18.478 10.5213L18.478 10.5213L18.4781 10.5213L18.4781 10.5213L18.4781 10.5213L18.4781 10.5212L18.4782 10.5212L18.4782 10.5212L18.4782 10.5212L18.4782 10.5212L18.4782 10.5211L18.4783 10.5211L18.4783 10.5211L18.4783 10.5211L18.4783 10.5211L18.4783 10.521L18.4784 10.521L18.4784 10.521L18.4784 10.521L18.4784 10.521L18.4785 10.5209L18.4785 10.5209L18.4785 10.5209L18.4785 10.5209L18.4785 10.5209L18.4786 10.5208L18.4786 10.5208L18.4786 10.5208L18.4786 10.5208L18.4787 10.5208L18.4787 10.5207L18.4787 10.5207L18.4787 10.5207L18.4788 10.5207L18.4788 10.5207L18.4788 10.5206L18.4788 10.5206L18.4788 10.5206L18.4789 10.5206L18.4789 10.5205L18.4789 10.5205L18.4789 10.5205L18.479 10.5205L18.479 10.5205L18.479 10.5204L18.479 10.5204L18.4791 10.5204L18.4791 10.5204L18.4791 10.5203L18.4791 10.5203L18.4974 10.5036L18.511 10.485C18.5115 10.4845 18.5134 10.4823 18.5175 10.4781C18.524 10.4716 18.5315 10.4647 18.5427 10.4545L18.7274 10.2859L18.7231 10.282L20.4469 8.70817L20.6315 8.5396L20.623 8.53185L24.6473 4.85748L27.4356 7.40327C26.624 8.60618 26.9329 10.2045 28.2102 11.0501C29.1968 11.7555 30.5125 11.7923 31.559 11.1991L34.3469 13.7446L30.3226 17.419L30.3056 17.4035L30.121 17.572L29.5103 18.1296L29.3257 18.2982L29.3427 18.3137L15.8018 30.6771L13.0136 28.1313C13.826 26.927 13.5156 25.3265 12.2347 24.4816L12.2343 24.4814C11.2407 23.8286 9.91315 23.7714 8.88813 24.3646Z" stroke="white" stroke-opacity="0.4" stroke-width="0.5"/>
</g>
<defs>
<filter id="filter0_d" x="0.179581" y="0.0214844" width="40.0286" height="38.4014" filterUnits="userSpaceOnUse" color-interpolation-filters="sRGB">
<feFlood flood-opacity="0" result="BackgroundImageFix"/>
<feColorMatrix in="SourceAlpha" type="matrix" values="0 0 0 0 0 0 0 0 0 0 0 0 0 0 0 0 0 0 127 0"/>
<feOffset dy="2"/>
<feGaussianBlur stdDeviation="2"/>
<feColorMatrix type="matrix" values="0 0 0 0 0 0 0 0 0 0 0 0 0 0 0 0 0 0 0.25 0"/>
<feBlend mode="normal" in2="BackgroundImageFix" result="effect1_dropShadow"/>
<feBlend mode="normal" in="SourceGraphic" in2="effect1_dropShadow" result="shape"/>
</filter>
</defs>
</svg>
