<svg width="21" height="21" viewBox="0 0 21 21" fill="none" xmlns="http://www.w3.org/2000/svg">
<path d="M16.0736 4.75992L13.9938 2.68013C13.8984 2.58473 13.7554 2.5942 13.6505 2.67997L13.193 3.13748L11.6286 1.97338C11.5237 1.88751 11.3807 1.91605 11.2949 2.0209L9.0935 4.98551L9.08397 4.99504L2.67044 13.6792C2.67044 13.6792 2.55609 13.8507 2.68965 13.9843L4.75989 16.0546C4.8553 16.15 4.99833 16.1405 5.09365 16.0642C5.51303 15.6449 6.18054 15.6452 6.60031 16.0649C7.02008 16.4847 7.02039 17.1522 6.60101 17.5716C6.5057 17.6669 6.5153 17.81 6.59164 17.9054L8.66188 19.9756C8.75728 20.071 8.90031 20.0615 9.00516 19.9758L19.9662 9.01471C20.0615 8.91939 20.0519 8.77635 19.9661 8.67142L17.9054 6.61072C17.8099 6.51532 17.6669 6.52479 17.5716 6.60103C17.1522 7.02041 16.4847 7.02009 16.0649 6.60032C15.6452 6.18055 15.6449 5.51304 16.0642 5.09366C16.1595 4.99835 16.1499 4.85531 16.0736 4.75992ZM9.33213 5.47194L9.3369 5.47671C9.42504 5.34564 9.52034 5.21695 9.62041 5.09303L9.61802 5.09065L11.543 2.49781L12.869 3.48062L4.94843 11.4012L9.33213 5.47194ZM15.5874 4.9218C15.0918 5.60814 15.2353 6.57133 15.9221 7.06751C16.4563 7.48734 17.181 7.48768 17.7339 7.08743L19.4893 8.84284L17.0207 11.3115L17.0112 11.3019L16.6681 11.645L16.6776 11.6546L8.86189 19.4703L7.10648 17.7149C7.60202 17.0285 7.45853 16.0654 6.77172 15.5692C6.228 15.1779 5.49374 15.1681 4.95992 15.5683L3.20451 13.8129L10.2577 6.75971C10.2601 6.75733 10.2601 6.75733 10.2625 6.75495C10.272 6.74065 10.2863 6.72635 10.2982 6.71443L10.2958 6.71205L11.3681 5.63977L11.3633 5.635L13.8319 3.16638L15.5874 4.9218V4.9218Z" fill="white" fill-opacity="0.75"/>
<path d="M16.1907 4.6662L16.1855 4.65972L16.1797 4.65385L14.0999 2.57407C13.9374 2.41153 13.7051 2.44153 13.5556 2.56387L13.5498 2.56861L13.5445 2.57391L13.1786 2.93977L11.7206 1.85486C11.5395 1.70945 11.3055 1.77098 11.1788 1.92592L11.1787 1.92582L11.1745 1.93147L8.97964 4.88723L8.97791 4.88897L8.96997 4.8969L8.96331 4.90592L2.54978 13.59L2.54964 13.5899L2.54562 13.596L2.67044 13.6792C2.54562 13.596 2.54558 13.596 2.54554 13.5961L2.54546 13.5962L2.5453 13.5964L2.54494 13.597L2.5441 13.5983L2.54194 13.6017L2.53595 13.6117C2.53133 13.6197 2.52544 13.6305 2.51917 13.6437C2.50684 13.6696 2.49185 13.7072 2.48286 13.7523C2.46432 13.8452 2.47129 13.9781 2.58359 14.0904L4.65383 16.1606C4.81337 16.3202 5.04419 16.2959 5.18734 16.1814L5.19384 16.1762L5.19972 16.1703C5.56042 15.8096 6.13296 15.8097 6.49424 16.171C6.85553 16.5323 6.85566 17.1048 6.49495 17.4655C6.33534 17.6252 6.36006 17.856 6.47451 17.9991L6.4797 18.0056L6.48557 18.0114L8.55581 20.0817C8.71835 20.2442 8.95059 20.2142 9.10014 20.0919L9.10594 20.0871L9.11123 20.0818L20.0723 9.12077C20.2349 8.95816 20.2044 8.72586 20.0821 8.57642L20.0774 8.57064L20.0721 8.56535L18.0114 6.50465C17.8519 6.34511 17.6211 6.36939 17.4779 6.48389L17.4714 6.48908L17.4655 6.49496C17.1048 6.85567 16.5323 6.85554 16.171 6.49426C15.8097 6.13297 15.8096 5.56044 16.1703 5.19973C16.3299 5.04012 16.3052 4.80924 16.1907 4.6662ZM9.82184 5.08234L9.81563 5.07612L11.5741 2.70756L12.6399 3.49754L6.26577 9.87169L9.34921 5.70116L9.35968 5.71163L9.46137 5.56042C9.54697 5.43312 9.63966 5.30794 9.73711 5.18727L9.82184 5.08234ZM4.97774 15.374L3.41664 13.8129L10.3638 6.86578L10.3638 6.86576L10.3638 6.86575L10.3638 6.86574L10.3638 6.86572L10.3638 6.86571L10.3639 6.86569L10.3639 6.86568L10.3639 6.86567L10.3639 6.86565L10.3639 6.86564L10.3639 6.86563L10.3639 6.86561L10.3639 6.8656L10.364 6.86559L10.364 6.86557L10.364 6.86556L10.364 6.86555L10.364 6.86553L10.364 6.86552L10.364 6.86551L10.364 6.8655L10.3641 6.86548L10.3641 6.86547L10.3641 6.86546L10.3641 6.86544L10.3641 6.86543L10.3641 6.86542L10.3641 6.86541L10.3642 6.86539L10.3642 6.86538L10.3642 6.86537L10.3642 6.86536L10.3642 6.86535L10.3642 6.86533L10.3642 6.86532L10.3642 6.86531L10.3642 6.8653L10.3643 6.86528L10.3643 6.86527L10.3643 6.86526L10.3643 6.86525L10.3643 6.86524L10.3643 6.86523L10.3643 6.86521L10.3643 6.8652L10.3644 6.86519L10.3644 6.86518L10.3644 6.86517L10.3644 6.86515L10.3644 6.86514L10.3644 6.86513L10.3644 6.86512L10.3644 6.86511L10.3644 6.8651L10.3645 6.86509L10.3645 6.86507L10.3645 6.86506L10.3645 6.86505L10.3645 6.86504L10.3645 6.86503L10.3645 6.86502L10.3645 6.86501L10.3645 6.865L10.3646 6.86499L10.3646 6.86498L10.3646 6.86496L10.3646 6.86495L10.3646 6.86494L10.3646 6.86493L10.3646 6.86492L10.3646 6.86491L10.3646 6.8649L10.3647 6.86489L10.3647 6.86488L10.3647 6.86487L10.3647 6.86486L10.3647 6.86485L10.3647 6.86484L10.3647 6.86483L10.3647 6.86482L10.3647 6.86481L10.3647 6.8648L10.3648 6.86479L10.3648 6.86478L10.3648 6.86477L10.3648 6.86476L10.3648 6.86475L10.3648 6.86474L10.3648 6.86473L10.3648 6.86472L10.3648 6.86471L10.3648 6.8647L10.3649 6.86469L10.3649 6.86468L10.3649 6.86467L10.3649 6.86466L10.3649 6.86465L10.3649 6.86464L10.3649 6.86463L10.3649 6.86462L10.3649 6.86461L10.3649 6.8646L10.365 6.86459L10.365 6.86458L10.365 6.86457L10.365 6.86456L10.365 6.86455L10.365 6.86454L10.365 6.86453L10.365 6.86452L10.365 6.86451L10.365 6.86451L10.365 6.8645L10.3651 6.86449L10.3651 6.86448L10.3651 6.86447L10.3651 6.86446L10.3651 6.86445L10.3651 6.86444L10.3651 6.86443L10.3651 6.86442L10.3651 6.86442L10.3651 6.86441L10.3651 6.8644L10.3652 6.86439L10.3652 6.86438L10.3652 6.86437L10.3652 6.86436L10.3652 6.86435L10.3652 6.86435L10.3652 6.86434L10.3652 6.86433L10.3652 6.86432L10.3652 6.86431L10.3652 6.8643L10.3653 6.86429L10.3653 6.86429L10.3653 6.86428L10.3653 6.86427L10.3653 6.86426L10.3653 6.86425L10.3653 6.86424L10.3653 6.86423L10.3653 6.86423L10.3653 6.86422L10.3653 6.86421L10.3653 6.8642L10.3654 6.86419L10.3654 6.86419L10.3654 6.86418L10.3654 6.86417L10.3654 6.86416L10.3654 6.86415L10.3654 6.86414L10.3654 6.86414L10.3654 6.86413L10.3654 6.86412L10.3654 6.86411L10.3654 6.8641L10.3654 6.8641L10.3655 6.86409L10.3655 6.86408L10.3655 6.86407L10.3655 6.86406L10.3655 6.86406L10.3655 6.86405L10.3655 6.86404L10.3655 6.86403L10.3655 6.86403L10.3655 6.86402L10.3655 6.86401L10.3655 6.864L10.3656 6.86399L10.3656 6.86399L10.3656 6.86398L10.3656 6.86397L10.3656 6.86396L10.3656 6.86396L10.3656 6.86395L10.3656 6.86394L10.3656 6.86393L10.3656 6.86393L10.3656 6.86392L10.3656 6.86391L10.3656 6.8639L10.3657 6.8639L10.3657 6.86389L10.3657 6.86388L10.3657 6.86387L10.3657 6.86387L10.3657 6.86386L10.3657 6.86385L10.3657 6.86384L10.3657 6.86384L10.3657 6.86383L10.3657 6.86382L10.3657 6.86381L10.3657 6.86381L10.3657 6.8638L10.3658 6.86379L10.3658 6.86378L10.3658 6.86378L10.3658 6.86377L10.3658 6.86376L10.3658 6.86375L10.3658 6.86375L10.3658 6.86374L10.3658 6.86373L10.3658 6.86373L10.3658 6.86372L10.3658 6.86371L10.3658 6.86371L10.3658 6.8637L10.3659 6.86369L10.3659 6.86368L10.3659 6.86368L10.3659 6.86367L10.3659 6.86366L10.3659 6.86365L10.3659 6.86365L10.3659 6.86364L10.3659 6.86363L10.3659 6.86363L10.3659 6.86362L10.3659 6.86361L10.3659 6.86361L10.3659 6.8636L10.366 6.86359L10.366 6.86358L10.366 6.86358L10.366 6.86357L10.366 6.86356L10.366 6.86356L10.366 6.86355L10.366 6.86354L10.366 6.86353L10.366 6.86353L10.366 6.86352L10.366 6.86351L10.366 6.86351L10.366 6.8635L10.3661 6.86349L10.3661 6.86349L10.3661 6.86348L10.3661 6.86347L10.3661 6.86346L10.3661 6.86346L10.3661 6.86345L10.3661 6.86344L10.3661 6.86344L10.3661 6.86343L10.3661 6.86342L10.3661 6.86342L10.3661 6.86341L10.3661 6.8634L10.3662 6.86339L10.3662 6.86339L10.3662 6.86338L10.3662 6.86337L10.3662 6.86337L10.3662 6.86336L10.3662 6.86335L10.3662 6.86335L10.3662 6.86334L10.3662 6.86333L10.3662 6.86332L10.3662 6.86332L10.3662 6.86331L10.3662 6.8633L10.3662 6.8633L10.3663 6.86329L10.3663 6.86328L10.3663 6.86328L10.3663 6.86327L10.3663 6.86326L10.3663 6.86325L10.3663 6.86325L10.3663 6.86324L10.3663 6.86323L10.3663 6.86323L10.3663 6.86322L10.3663 6.86321L10.3663 6.86321L10.3663 6.8632L10.3664 6.86319L10.3664 6.86318L10.3664 6.86318L10.3664 6.86317L10.3664 6.86316L10.3664 6.86316L10.3664 6.86315L10.3664 6.86314L10.3664 6.86313L10.3664 6.86313L10.3664 6.86312L10.3664 6.86311L10.3664 6.86311L10.3664 6.8631L10.3665 6.86309L10.3665 6.86308L10.3665 6.86308L10.3665 6.86307L10.3665 6.86306L10.3665 6.86306L10.3665 6.86305L10.3665 6.86304L10.3665 6.86303L10.3665 6.86303L10.3665 6.86302L10.3665 6.86301L10.3665 6.863L10.3665 6.863L10.3666 6.86299L10.3666 6.86298L10.3666 6.86298L10.3666 6.86297L10.3666 6.86296L10.3666 6.86295L10.3666 6.86295L10.3666 6.86294L10.3666 6.86293L10.3666 6.86292L10.3666 6.86292L10.3666 6.86291L10.3666 6.8629L10.3667 6.86289L10.3667 6.86289L10.3667 6.86288L10.3667 6.86287L10.3667 6.86286L10.3667 6.86286L10.3667 6.86285L10.3667 6.86284L10.3667 6.86283L10.3667 6.86283L10.3667 6.86282L10.3667 6.86281L10.3667 6.8628L10.3668 6.86279L10.3668 6.86279L10.3668 6.86278L10.3668 6.86277L10.3668 6.86276L10.3668 6.86276L10.3668 6.86275L10.3668 6.86274L10.3668 6.86273L10.3668 6.86272L10.3668 6.86272L10.3668 6.86271L10.3668 6.8627L10.3669 6.86269L10.3669 6.86268L10.3669 6.86268L10.3669 6.86267L10.3669 6.86266L10.3669 6.86265L10.3669 6.86264L10.3669 6.86264L10.3669 6.86263L10.3669 6.86262L10.3669 6.86261L10.3669 6.8626L10.367 6.8626L10.367 6.86259L10.367 6.86258L10.367 6.86257L10.367 6.86256L10.367 6.86255L10.367 6.86255L10.367 6.86254L10.367 6.86253L10.367 6.86252L10.367 6.86251L10.367 6.8625L10.3671 6.8625L10.3671 6.86249L10.3671 6.86248L10.3671 6.86247L10.3671 6.86246L10.3671 6.86245L10.3671 6.86244L10.3671 6.86244L10.3671 6.86243L10.3671 6.86242L10.3671 6.86241L10.3671 6.8624L10.3672 6.86239L10.3672 6.86238L10.3672 6.86237L10.3672 6.86236L10.3672 6.86236L10.3672 6.86235L10.3672 6.86234L10.3672 6.86233L10.3672 6.86232L10.3672 6.86231L10.3672 6.8623L10.3673 6.86229L10.3673 6.86228L10.3673 6.86227L10.3673 6.86226L10.3673 6.86226L10.3673 6.86225L10.3673 6.86224L10.3673 6.86223L10.3673 6.86222L10.3673 6.86221L10.3673 6.8622L10.3674 6.86219L10.3674 6.86218L10.3674 6.86217L10.3674 6.86216L10.3674 6.86215L10.3674 6.86214L10.3674 6.86213L10.3674 6.86212L10.3674 6.86211L10.3674 6.8621L10.3675 6.86209L10.3675 6.86208L10.3675 6.86207L10.3675 6.86206L10.3675 6.86205L10.3675 6.86204L10.3675 6.86203L10.3675 6.86202L10.3675 6.86201L10.3675 6.862L10.3676 6.86199L10.3676 6.86198L10.3676 6.86197L10.3676 6.86196L10.3676 6.86195L10.3676 6.86194L10.3676 6.86193L10.3676 6.86192L10.3676 6.86191L10.3676 6.8619L10.3677 6.86189L10.3677 6.86188L10.3677 6.86187L10.3677 6.86186L10.3677 6.86185L10.3677 6.86184L10.3677 6.86182L10.3677 6.86181L10.3677 6.8618L10.3678 6.86179L10.3678 6.86178L10.3678 6.86177L10.3678 6.86176L10.3678 6.86175L10.3678 6.86174L10.3678 6.86173L10.3678 6.86171L10.3678 6.8617L10.3679 6.86169L10.3679 6.86168L10.3679 6.86167L10.3679 6.86166L10.3679 6.86165L10.3679 6.86163L10.3679 6.86162L10.3679 6.86161L10.3679 6.8616L10.368 6.86159L10.368 6.86158L10.368 6.86156L10.368 6.86155L10.368 6.86154L10.368 6.86153L10.368 6.86152L10.368 6.8615L10.3681 6.86149L10.3681 6.86148L10.3681 6.86147L10.3681 6.86146L10.3681 6.86144L10.3681 6.86143L10.3681 6.86142L10.3681 6.86141L10.3682 6.86139L10.3682 6.86138L10.3682 6.86137L10.3682 6.86136L10.3682 6.86134L10.3682 6.86133L10.3682 6.86132L10.3682 6.86131L10.3683 6.86129L10.3683 6.86128L10.3683 6.86127L10.3683 6.86125L10.3683 6.86124L10.3683 6.86123L10.3683 6.86121L10.3683 6.8612L10.3684 6.86119L10.3684 6.86117L10.3684 6.86116L10.3684 6.86115L10.3684 6.86114L10.3684 6.86112L10.3684 6.86111L10.3685 6.86109L10.3685 6.86108L10.3685 6.86107L10.3685 6.86105L10.3685 6.86104L10.3685 6.86103L10.3685 6.86101L10.379 6.8505L10.3868 6.83887C10.3871 6.83853 10.3881 6.83725 10.3902 6.83493C10.3938 6.831 10.398 6.8268 10.4043 6.8205L10.5103 6.71444L10.508 6.71205L11.4742 5.74584L11.5802 5.63977L11.5755 5.635L13.8319 3.37852L15.3944 4.94098C14.9393 5.68239 15.1135 6.6664 15.8318 7.18732C16.3866 7.62172 17.1262 7.64484 17.715 7.28059L19.2772 8.84284L17.0207 11.0993L17.0112 11.0898L16.9051 11.1959L16.562 11.539L16.4559 11.645L16.4655 11.6546L8.86189 19.2582L7.29943 17.6957C7.7551 16.9534 7.57997 15.968 6.85956 15.4476L6.85933 15.4474C6.30074 15.0455 5.55455 15.0097 4.97774 15.374Z" stroke="white" stroke-opacity="0.75" stroke-width="0.3"/>
</svg>
