<svg width="30" height="24" viewBox="0 0 30 24" fill="none" xmlns="http://www.w3.org/2000/svg">
<path d="M29.5366 2.83829C28.4505 3.321 27.2824 3.64441 26.0563 3.79405C27.3065 3.04586 28.2671 1.85358 28.7208 0.444087C27.5479 1.13918 26.2494 1.64119 24.8689 1.91633C23.7635 0.733709 22.1899 0 20.4473 0C17.1022 0 14.3846 2.71279 14.3846 6.05792C14.3846 6.53097 14.4377 6.99437 14.5438 7.43846C9.50925 7.18745 5.04425 4.77393 2.05149 1.10539C1.53017 2.00322 1.23572 3.04103 1.23572 4.15125C1.23572 6.25583 2.30732 8.10941 3.9292 9.19549C2.93484 9.16171 2.00322 8.89139 1.18262 8.43282V8.51006C1.18262 11.4449 3.27273 13.897 6.04344 14.4521C5.53661 14.5873 5.0008 14.6645 4.4457 14.6645C4.05471 14.6645 3.6782 14.6259 3.30652 14.5535C4.07884 16.9622 6.31376 18.7144 8.96862 18.7627C6.89783 20.3894 4.28158 21.3548 1.44328 21.3548C0.955752 21.3548 0.473049 21.3258 0 21.2727C2.68383 22.996 5.86484 24 9.28721 24C20.4328 24 26.5294 14.7659 26.5294 6.75784L26.5101 5.97104C27.6975 5.12148 28.7257 4.05471 29.5366 2.83829Z" fill="white"/>
</svg>
