<svg width="16" height="16" viewBox="0 0 16 16" fill="none" xmlns="http://www.w3.org/2000/svg">
<path d="M13.6569 10.3431C12.7855 9.47184 11.7484 8.8268 10.6169 8.43632C11.8288 7.60159 12.625 6.20462 12.625 4.625C12.625 2.07478 10.5502 0 8 0C5.44978 0 3.375 2.07478 3.375 4.625C3.375 6.20462 4.17122 7.60159 5.38318 8.43632C4.25162 8.8268 3.2145 9.47184 2.34316 10.3431C0.83216 11.8542 0 13.8631 0 16H1.25C1.25 12.278 4.27803 9.25 8 9.25C11.722 9.25 14.75 12.278 14.75 16H16C16 13.8631 15.1678 11.8542 13.6569 10.3431ZM8 8C6.13903 8 4.625 6.486 4.625 4.625C4.625 2.764 6.13903 1.25 8 1.25C9.86096 1.25 11.375 2.764 11.375 4.625C11.375 6.486 9.86096 8 8 8Z" fill="url(#paint0_linear)"/>
<defs>
<linearGradient id="paint0_linear" x1="-1.65517" y1="-1.01208e-05" x2="16.4214" y2="0.491111" gradientUnits="userSpaceOnUse">
<stop stop-color="#C72328"/>
<stop offset="1" stop-color="#DD2476"/>
</linearGradient>
</defs>
</svg>
