<svg width="20" height="20" viewBox="0 0 20 20" fill="none" xmlns="http://www.w3.org/2000/svg">
<g clip-path="url(#clip0)">
<path d="M-0.106059 9.86048L-0.212139 9.96655L-0.106066 10.0726L2.64326 12.8219C4.68071 14.8594 7.35724 15.8784 10.0334 15.8784C12.7096 15.8784 15.3858 14.8597 17.4236 12.8219L20.1064 10.1392L20.2125 10.0331L20.1064 9.92703L17.3567 7.17806C13.2816 3.10292 6.65184 3.10292 2.57671 7.17805C2.57671 7.17805 2.57671 7.17805 2.5767 7.17806L-0.106059 9.86048ZM16.7335 12.1321C13.039 15.8262 7.02756 15.8262 3.33309 12.1321C3.33309 12.1321 3.33309 12.1321 3.33309 12.1321L1.16754 9.96655L3.26653 7.86756C3.26654 7.86756 3.26654 7.86755 3.26654 7.86755C6.961 4.17343 12.9724 4.17343 16.6669 7.86756L18.8325 10.0331L16.7335 12.1321Z" fill="white" stroke="white" stroke-width="0.3"/>
<path d="M9.65271 7.28716C8.34865 7.28716 7.28784 8.34797 7.28784 9.65202C7.28784 9.83851 7.43919 9.98986 7.62568 9.98986C7.81217 9.98986 7.96352 9.83851 7.96352 9.65202C7.96352 8.7206 8.72129 7.96283 9.65271 7.96283C9.83919 7.96283 9.99054 7.81148 9.99054 7.62499C9.99054 7.43851 9.83953 7.28716 9.65271 7.28716Z" fill="white"/>
<path d="M9.99053 5.54798C7.54129 5.54798 5.54863 7.54063 5.54863 9.98987C5.54863 12.4391 7.54129 14.4318 9.99053 14.4318C12.4398 14.4318 14.4324 12.4391 14.4324 9.98987C14.4324 7.54064 12.4401 5.54798 9.99053 5.54798ZM9.99053 13.6561C7.96915 13.6561 6.32431 12.0112 6.32431 9.98987C6.32431 7.9685 7.96915 6.32365 9.99053 6.32365C12.0119 6.32365 13.6567 7.9685 13.6567 9.98987C13.6567 12.0112 12.0122 13.6561 9.99053 13.6561Z" fill="white" stroke="white" stroke-width="0.1"/>
</g>
<defs>
<clipPath id="clip0">
<rect width="20" height="20" fill="white"/>
</clipPath>
</defs>
</svg>
